<svg width="128" height="140" viewBox="0 0 128 140" fill="none" xmlns="http://www.w3.org/2000/svg">
<g filter="url(#filter0_d_1001_316392)">
<path d="M24.018 36.1355L57.9816 16.4326C61.7059 14.2725 66.2941 14.2725 70.0177 16.4326L103.981 36.1355C107.706 38.2957 109.999 42.2889 109.999 46.6092V86.0158C109.999 90.3369 107.705 94.3293 103.981 96.4895L70.0177 116.192C66.2934 118.353 61.7052 118.353 57.9816 116.192L24.018 96.4895C20.2945 94.3285 18 90.3361 18 86.0158V46.6092C18 42.2881 20.2945 38.2957 24.018 36.1355V36.1355Z" fill="white"/>
</g>
<path d="M64.0169 34.2188L36.3672 50.2866V82.3203L64.0169 98.4029L91.6323 82.3203V50.2866L64.0169 34.2188Z" fill="url(#paint0_linear_1001_316392)"/>
<path d="M64.0132 40.1289L41.457 53.2368V79.3704L64.0132 92.4907L86.5424 79.3704V53.2368L64.0132 40.1289Z" fill="url(#paint1_linear_1001_316392)"/>
<path d="M64.0169 78.08L74.139 72.185V60.4309L74.1309 60.4258L63.8628 66.3061L64.0169 78.08Z" fill="url(#paint2_linear_1001_316392)"/>
<path d="M64.0168 78.0798L64.0058 78.0864L53.8604 72.1847V60.4453L63.9357 66.1591L64.0058 78.0864" fill="url(#paint3_linear_1001_316392)"/>
<path d="M64.0058 54.5352L53.8604 60.4309V60.4456L63.9569 66.3472L74.1308 60.4258L64.0058 54.5352Z" fill="url(#paint4_linear_1001_316392)"/>
<path d="M36.4805 50.2852L63.9571 66.3457L91.5535 50.2852" stroke="white" stroke-width="12" stroke-miterlimit="10"/>
<path d="M64.0171 98.2941V66.3477" stroke="white" stroke-width="12" stroke-miterlimit="10"/>
<defs>
<filter id="filter0_d_1001_316392" x="0" y="0.8125" width="127.999" height="139" filterUnits="userSpaceOnUse" color-interpolation-filters="sRGB">
<feFlood flood-opacity="0" result="BackgroundImageFix"/>
<feColorMatrix in="SourceAlpha" type="matrix" values="0 0 0 0 0 0 0 0 0 0 0 0 0 0 0 0 0 0 127 0" result="hardAlpha"/>
<feOffset dy="4"/>
<feGaussianBlur stdDeviation="9"/>
<feComposite in2="hardAlpha" operator="out"/>
<feColorMatrix type="matrix" values="0 0 0 0 0.321569 0 0 0 0 0.4 0 0 0 0 0.647059 0 0 0 0.17 0"/>
<feBlend mode="normal" in2="BackgroundImageFix" result="effect1_dropShadow_1001_316392"/>
<feBlend mode="normal" in="SourceGraphic" in2="effect1_dropShadow_1001_316392" result="shape"/>
</filter>
<linearGradient id="paint0_linear_1001_316392" x1="71.7204" y1="41.5167" x2="59.6394" y2="79.9328" gradientUnits="userSpaceOnUse">
<stop stop-color="#01C2D6"/>
<stop offset="0.18" stop-color="#0B9FDC"/>
<stop offset="0.44" stop-color="#1874E4"/>
<stop offset="0.67" stop-color="#2254EA"/>
<stop offset="0.87" stop-color="#2740EE"/>
<stop offset="1" stop-color="#2A3AF0"/>
</linearGradient>
<linearGradient id="paint1_linear_1001_316392" x1="55.4407" y1="94.3222" x2="69.142" y2="49.8953" gradientUnits="userSpaceOnUse">
<stop offset="0.13" stop-color="#569AFF"/>
<stop offset="0.2" stop-color="#4C85FB"/>
<stop offset="0.32" stop-color="#406AF7"/>
<stop offset="0.45" stop-color="#3654F4"/>
<stop offset="0.59" stop-color="#2F45F1"/>
<stop offset="0.76" stop-color="#2B3CF0"/>
<stop offset="1" stop-color="#2A3AF0"/>
</linearGradient>
<linearGradient id="paint2_linear_1001_316392" x1="72.999" y1="61.657" x2="64.391" y2="77.8391" gradientUnits="userSpaceOnUse">
<stop stop-color="#73A9FF"/>
<stop offset="0.3" stop-color="#71A6FE"/>
<stop offset="0.51" stop-color="#6B9DFD"/>
<stop offset="0.69" stop-color="#618DFC"/>
<stop offset="0.85" stop-color="#5278FA"/>
<stop offset="1" stop-color="#415DF8"/>
</linearGradient>
<linearGradient id="paint3_linear_1001_316392" x1="55.8708" y1="73.3844" x2="62.1896" y2="64.9752" gradientUnits="userSpaceOnUse">
<stop offset="0.26" stop-color="#569AFF"/>
<stop offset="0.57" stop-color="#406BF7"/>
<stop offset="0.85" stop-color="#3047F2"/>
<stop offset="1" stop-color="#2A3AF0"/>
</linearGradient>
<linearGradient id="paint4_linear_1001_316392" x1="66.818" y1="56.3615" x2="61.2323" y2="64.3344" gradientUnits="userSpaceOnUse">
<stop stop-color="#59FCFD"/>
<stop offset="0.43" stop-color="#35E4ED"/>
<stop offset="1" stop-color="#01C2D6"/>
</linearGradient>
</defs>
</svg>
