<svg width="890" height="35" viewBox="0 0 890 35" fill="none" xmlns="http://www.w3.org/2000/svg">
<g clip-path="url(#clip0_1030_314741)">
<path d="M67.6395 12.8233C65.6875 8.81851 61.4148 6.25032 56.7073 6.25032H45.7279V6.2901C43.2323 6.48459 41.0724 7.38634 39.2385 8.99975C37.1589 10.8342 36.1191 13.0443 36.1191 15.6258L36.0954 24.1084C36.0954 25.2488 35.1029 26.1726 33.8788 26.1726H19.3545V35H35.3487C38.279 35 40.7888 34.085 42.8684 32.2506C44.948 30.4161 45.9878 28.2104 45.9878 25.6245H46.0162V18.3133C46.0162 16.5275 47.5664 15.0777 49.4759 15.0777H54.3158C55.8991 15.0777 57.3454 15.9352 58.0165 17.279L63.1352 27.4987C65.4985 32.4981 68.1027 35 70.9386 35H73.7744C76.6102 35 79.2145 32.4981 81.5777 27.4987L87.7977 15.0777H93.8947V25.6245H93.9231C93.9231 28.2104 94.9629 30.4161 97.0425 32.2506C99.1221 34.085 101.632 35 104.562 35H109.501V26.2478H104.562C104.071 26.2478 103.825 26.04 103.825 25.6245V15.0777H105.739V14.9981H109.497V6.25032H103.82V0H93.89V6.25032H82.9247C81.2374 6.25032 79.7108 7.17416 79.016 8.61518L72.347 22.4994L67.6253 12.8189L67.6395 12.8233Z" fill="white"/>
<path d="M23.0786 25.6242C23.0786 28.2101 21.6701 30.4158 19.5905 32.2502C17.5109 34.0847 15.0011 34.9997 12.0708 34.9997H0.722656V26.1723H10.6009C11.8203 26.1723 12.8128 25.2485 12.8175 24.108L12.8412 15.6255C12.8412 13.044 13.881 10.8339 15.9606 8.99943C17.7945 7.38602 19.9544 6.48428 22.45 6.28978V6.25H35.3956V15.0774H26.0373C24.4067 15.0774 23.0833 16.315 23.0833 17.84V25.6242H23.0786Z" fill="white"/>
</g>
<g clip-path="url(#clip1_1030_314741)">
<path d="M314.518 4.76746C314.518 2.13446 312.245 0 309.441 0C306.637 0 304.363 2.13446 304.363 4.76746V30.2205C304.363 32.8535 306.637 34.988 309.441 34.988C312.245 34.988 314.518 32.8535 314.518 30.2205V4.76746Z" fill="white"/>
<path d="M197.698 0.0319824C190.58 0.0319824 184.787 5.33138 184.531 11.9546H184.519V30.1925C184.519 32.8442 186.806 34.992 189.63 34.992C192.454 34.992 194.742 32.8442 194.742 30.1925V12.4706C194.742 10.9507 196.049 9.67488 197.719 9.67488C199.389 9.67488 200.633 10.8987 200.633 12.4106C200.633 13.5544 199.887 14.5303 198.827 14.9423C196.863 15.6222 195.457 17.39 195.457 19.4698C195.457 22.1335 197.758 24.2972 200.599 24.2972C201.459 24.2972 202.268 24.0972 202.98 23.7453V23.7533C207.627 21.8415 210.873 17.482 210.873 12.4146C210.881 5.57535 204.978 0.0319824 197.698 0.0319824Z" fill="white"/>
<path d="M227.996 0.0639764C220.559 -0.435966 214.361 5.0794 214.361 11.9546C214.361 11.9546 214.361 11.9586 214.361 11.9626H214.34V30.3165C214.34 32.9002 216.572 34.996 219.324 34.996C222.075 34.996 224.307 32.9002 224.307 30.3165V24.6412C224.307 24.6412 224.312 24.6292 224.32 24.6292C226.497 24.5172 228.226 22.8254 228.226 20.7536C228.226 18.6818 226.497 16.994 224.32 16.8781C224.312 16.8781 224.307 16.8741 224.307 16.8661V12.2146L224.329 12.2066C224.329 10.7668 225.59 9.60689 227.132 9.64288C228.674 9.67888 229.79 10.9147 229.79 12.3226V30.3085C229.79 32.8922 232.022 34.988 234.773 34.988C237.525 34.988 239.757 32.8922 239.757 30.3085V12.2026C239.757 5.91531 234.675 0.515925 227.996 0.0639764Z" fill="white"/>
<path d="M269.507 11.9546C269.507 5.37137 263.825 0.0319824 256.809 0.0319824C249.794 0.0319824 244.111 5.37137 244.111 11.9546H244.099V30.3085C244.099 32.8922 246.331 34.988 249.082 34.988C251.834 34.988 254.066 32.8922 254.066 30.3085V12.1986C254.066 10.7828 255.289 9.63488 256.797 9.63488C258.305 9.63488 259.527 10.7828 259.527 12.1986V30.3085C259.527 32.8922 261.759 34.988 264.511 34.988C267.263 34.988 269.495 32.8922 269.495 30.3085V12.2946C269.495 12.1826 269.503 12.0706 269.503 11.9586L269.507 11.9546Z" fill="white"/>
<path d="M300.019 28.2927C299.98 28.1967 297.229 21.5335 295.197 16.614C294.852 15.7741 294.911 14.8343 295.359 14.0383L299.12 7.36711C299.776 6.38722 300.074 5.17936 299.814 3.8915C299.414 1.90373 297.667 0.335911 295.533 0.0519434C293.097 -0.27202 290.933 1.01183 290.064 2.93961L284.799 12.2705C284.33 13.1025 284.062 14.0063 283.994 14.9222V4.7834C283.994 2.1517 281.719 0.0159475 278.916 0.0159475C276.114 0.0159475 273.839 2.1517 273.839 4.7834V30.2365C273.839 32.8682 276.114 35.0039 278.916 35.0039C281.719 35.0039 283.994 32.8682 283.994 30.2365V15.8261C284.041 16.4901 284.19 17.154 284.45 17.7899L290.264 31.9363L290.281 31.9283C291.359 34.4 294.349 35.6239 297.016 34.656C299.716 33.6761 301.062 30.8284 300.019 28.2927Z" fill="white"/>
</g>
<g clip-path="url(#clip2_1030_314741)">
<path d="M389.481 17.3835C389.481 8.29267 394.684 3 402.236 3C409.788 3 414.99 8.32009 414.99 17.3835C414.99 26.4468 409.788 32 402.236 32C394.684 32 389.481 26.4468 389.481 17.3835ZM409.158 17.3835C409.158 11.3778 406.459 7.78534 402.222 7.78534C397.984 7.78534 395.285 11.3778 395.285 17.3835C395.285 23.3891 397.984 27.1598 402.222 27.1598C406.459 27.1598 409.158 23.348 409.158 17.3835Z" fill="white"/>
<path d="M417.787 17.6165C417.787 8.40236 423.843 3 431.045 3C434.667 3 437.548 4.70024 439.408 6.59243L436.443 10.1437C434.975 8.78629 433.325 7.79905 431.171 7.79905C426.863 7.79905 423.619 11.4189 423.619 17.4246C423.619 23.4303 426.542 27.1735 431.059 27.1735C433.52 27.1735 435.408 26.0355 436.947 24.4175L439.953 27.8865C437.604 30.574 434.555 32 430.863 32C423.661 32 417.801 26.9404 417.801 17.6165H417.787Z" fill="white"/>
<path d="M443.17 3.49365H460.652V8.1693H448.862V14.6275H458.875V19.3168H448.862V26.7896H461.071V31.479H443.156V3.49365H443.17Z" fill="white"/>
<path d="M470.986 3.49365H477.685L486.86 31.479H480.888L478.888 24.3078H469.644L467.644 31.479H461.868L470.986 3.49365ZM470.875 19.9613H477.657L476.804 16.9036C475.923 13.9967 475.154 10.7882 474.343 7.75796H474.147C473.42 10.8156 472.567 13.983 471.714 16.9036L470.861 19.9613H470.875Z" fill="white"/>
<path d="M488.846 3.49365H494.664L502.943 18.4119L505.796 24.4587H505.991C505.726 21.5518 505.264 17.8497 505.264 14.6823V3.49365H510.662V31.479H504.887L496.649 16.5197L493.754 10.514H493.559C493.824 13.5305 494.258 17.0407 494.258 20.2629V31.479H488.86V3.49365H488.846Z" fill="white"/>
<path d="M512.662 3.49365H518.634L522.41 17.123C523.291 20.2218 523.906 23.0189 524.801 26.1452H524.997C525.92 23.0052 526.535 20.2218 527.43 17.123L531.108 3.49365H536.884L528.186 31.479H521.361L512.662 3.49365Z" fill="white"/>
<path d="M538.801 3.49365H544.507V31.479H538.801V3.49365Z" fill="white"/>
<path d="M550.17 3.49365H567.652V8.1693H555.862V14.6275H565.876V19.3168H555.862V26.7896H568.071V31.479H550.156V3.49365H550.17Z" fill="white"/>
<path d="M569.735 3.49365H575.511L577.777 17.1641C578.196 20.1121 578.658 23.0601 579.091 26.0766H579.245C579.819 23.0601 580.434 20.071 581.049 17.1641L584.364 3.49365H589.259L592.531 17.1641C593.146 20.0298 593.72 23.0601 594.335 26.0766H594.531C594.95 23.0601 595.384 20.071 595.804 17.1641L598.069 3.49365H603.467L598.195 31.479H591.105L587.902 17.6577C587.44 15.4639 587.021 13.3111 586.671 11.1584H586.517C586.126 13.3111 585.748 15.4639 585.287 17.6577L582.168 31.479H575.204L569.735 3.49365Z" fill="white"/>
</g>
<g clip-path="url(#clip3_1030_314741)">
<path d="M733.6 4.84773C733.6 2.1704 731.326 0 728.521 0C725.716 0 723.441 2.1704 723.441 4.84773V30.1523C723.441 32.8296 725.716 35 728.521 35C731.326 35 733.6 32.8296 733.6 30.1523V4.84773Z" fill="white"/>
<path d="M760.88 25.3045H748.227V4.84773C748.242 2.17564 745.962 0 743.163 0C740.363 0 738.083 2.17564 738.083 4.84773V30.1523C738.083 32.8244 740.363 35 743.163 35H760.88C763.68 35 765.959 32.8244 765.959 30.1523C765.959 27.4802 763.68 25.3045 760.88 25.3045Z" fill="white"/>
<path d="M851.93 13.2144H840.409V13.1852C840.409 11.2578 842.046 9.68085 844.081 9.68085H851.975C854.775 9.68085 857.055 7.50522 857.055 4.83312C857.055 2.16103 854.76 0 851.96 0H844.142C836.461 0 830.25 5.94284 830.25 13.2582V16.894C830.25 19.5953 832.545 21.771 835.36 21.771H846.881V21.8002C846.881 23.7276 845.244 25.3045 843.209 25.3045H835.314C832.514 25.3045 830.234 27.4802 830.234 30.1523C830.234 32.8244 832.514 35 835.314 35H843.576C851.012 35 857.04 29.247 857.04 22.1506V18.106C857.04 15.4047 854.745 13.229 851.93 13.229V13.2144Z" fill="white"/>
<path d="M884.319 13.2144H872.798V13.1852C872.798 11.2578 874.435 9.68085 876.47 9.68085H884.365C887.165 9.68085 889.445 7.50522 889.445 4.83312C889.445 2.16103 887.165 0 884.365 0H876.547C868.866 0 862.639 5.94284 862.639 13.2582V16.894C862.639 19.5953 864.934 21.771 867.749 21.771H879.27V21.8002C879.27 23.7276 877.633 25.3045 875.598 25.3045H867.704C864.904 25.3045 862.624 27.4802 862.624 30.1523C862.624 32.8244 864.904 35 867.704 35H875.965C883.401 35 889.429 29.247 889.429 22.1506V18.106C889.429 15.4047 887.134 13.229 884.319 13.229V13.2144Z" fill="white"/>
<path d="M701.578 0H683.707C680.801 0 678.444 2.24864 678.444 5.02295C678.444 7.79725 680.801 10.0459 683.707 10.0459H684.778C683.738 12.2215 683.141 14.6162 683.141 17.1569C683.141 26.6333 691.189 34.3137 701.119 34.3137C711.048 34.3137 719.096 26.6333 719.096 17.1569C719.096 7.68044 711.293 0.233625 701.578 0ZM701.134 24.2678C697.018 24.2678 693.683 21.0847 693.683 17.1569C693.683 13.229 697.018 10.0459 701.134 10.0459C705.25 10.0459 708.585 13.229 708.585 17.1569C708.585 21.0847 705.25 24.2678 701.134 24.2678Z" fill="white"/>
<path d="M781.382 0H771.957V0.0292032C769.31 0.204422 767.229 2.27785 767.229 4.84773V30.1523C767.229 32.8244 769.509 35 772.309 35C775.109 35 777.389 32.8244 777.389 30.1523V25.874H781.397C788.879 25.874 794.953 20.0772 794.953 12.937C794.953 5.79683 788.879 0 781.382 0ZM781.382 17.2153H777.373V8.65874H781.382C783.86 8.65874 785.865 10.5715 785.865 12.937C785.865 15.3025 783.86 17.2153 781.382 17.2153Z" fill="white"/>
<path d="M826.21 19.5807C825.98 8.73175 816.709 0 805.28 0H803.26C800.46 0 798.181 2.17564 798.181 4.84773V30.1523C798.181 32.8244 800.46 35 803.26 35C806.06 35 808.34 32.8244 808.34 30.1523V26.239H816.617V30.4005C816.617 32.9412 818.774 35 821.436 35C824.099 35 826.256 32.9412 826.256 30.4005V19.5807H826.241H826.21ZM808.34 16.5436V10.0313C811.752 10.8928 814.49 13.3605 815.577 16.5436H808.34Z" fill="white"/>
</g>
<defs>
<clipPath id="clip0_1030_314741">
<rect width="109" height="35" fill="white" transform="translate(0.555664)"/>
</clipPath>
<clipPath id="clip1_1030_314741">
<rect width="130" height="35" fill="white" transform="translate(184.519)"/>
</clipPath>
<clipPath id="clip2_1030_314741">
<rect width="214" height="29" fill="white" transform="translate(389.481 3)"/>
</clipPath>
<clipPath id="clip3_1030_314741">
<rect width="211" height="35" fill="white" transform="translate(678.444)"/>
</clipPath>
</defs>
</svg>
