<svg width="116" height="117" viewBox="0 0 116 117" fill="none" xmlns="http://www.w3.org/2000/svg">
<circle cx="58" cy="58.5078" r="50.5" stroke="#EEEEEE" stroke-width="15"/>
<path d="M58 8.00781C66.6248 8.00781 75.1058 10.2167 82.6347 14.424C90.1637 18.6313 96.4896 24.6968 101.01 32.0423C105.53 39.3878 108.093 47.7685 108.455 56.3856C108.818 65.0028 106.967 73.5691 103.08 81.2682C99.1929 88.9673 93.3986 95.5426 86.2496 100.367C79.1005 105.192 70.8349 108.105 62.2406 108.829C53.6463 109.554 45.0098 108.065 37.1541 104.505C29.2985 100.944 22.4855 95.4315 17.3647 88.4915" stroke="#C5292A" stroke-width="15" stroke-linecap="round"/>
<path d="M48.4658 50.9629H48.7588V52.8867H48.5927C47.7529 52.8867 47.027 53.0169 46.415 53.2773C45.8095 53.5378 45.3115 53.8958 44.9209 54.3516C44.5302 54.8073 44.2373 55.3411 44.042 55.9531C43.8532 56.5586 43.7588 57.2031 43.7588 57.8867V60.123C43.7588 60.6895 43.8206 61.1908 43.9443 61.627C44.068 62.0566 44.2405 62.418 44.4619 62.7109C44.6897 62.9974 44.9502 63.2155 45.2431 63.3652C45.5361 63.515 45.8518 63.5898 46.1904 63.5898C46.542 63.5898 46.861 63.5182 47.1474 63.375C47.4339 63.2253 47.678 63.0202 47.8798 62.7598C48.0817 62.4993 48.2347 62.1901 48.3388 61.832C48.443 61.474 48.4951 61.0833 48.4951 60.6602C48.4951 60.2565 48.443 59.8789 48.3388 59.5273C48.2412 59.1693 48.0947 58.8568 47.8994 58.5898C47.7041 58.3164 47.4599 58.1048 47.167 57.9551C46.8805 57.7988 46.5485 57.7207 46.1709 57.7207C45.7021 57.7207 45.2757 57.8314 44.8916 58.0527C44.514 58.2741 44.208 58.5638 43.9736 58.9219C43.7457 59.2734 43.622 59.6478 43.6025 60.0449L42.7041 59.752C42.7561 59.1465 42.8896 58.6029 43.1045 58.1211C43.3258 57.6393 43.6155 57.2292 43.9736 56.8906C44.3317 56.5521 44.7451 56.2949 45.2138 56.1191C45.6891 55.9368 46.2099 55.8457 46.7763 55.8457C47.4664 55.8457 48.0654 55.9759 48.5732 56.2363C49.081 56.4967 49.5009 56.8516 49.833 57.3008C50.1715 57.7435 50.4222 58.2513 50.5849 58.8242C50.7542 59.3906 50.8388 59.9831 50.8388 60.6016C50.8388 61.2852 50.7347 61.9232 50.5263 62.5156C50.318 63.1016 50.012 63.6159 49.6084 64.0586C49.2112 64.5013 48.7262 64.8464 48.1533 65.0938C47.5869 65.3411 46.9423 65.4648 46.2197 65.4648C45.458 65.4648 44.7776 65.3184 44.1787 65.0254C43.5862 64.7324 43.0817 64.3288 42.665 63.8145C42.2548 63.3001 41.9423 62.7077 41.7275 62.0371C41.5127 61.3665 41.4052 60.6569 41.4052 59.9082V58.9316C41.4052 57.8509 41.542 56.832 41.8154 55.875C42.0888 54.9115 42.5088 54.0618 43.0752 53.3262C43.6481 52.5905 44.3805 52.0143 45.2724 51.5977C46.1643 51.1745 47.2288 50.9629 48.4658 50.9629ZM62.4512 56.9688V59.293C62.4512 60.4062 62.3405 61.3568 62.1191 62.1445C61.9043 62.9258 61.5918 63.5605 61.1816 64.0488C60.7715 64.5371 60.2799 64.8952 59.707 65.123C59.1406 65.3509 58.5059 65.4648 57.8027 65.4648C57.2428 65.4648 56.722 65.3932 56.2402 65.25C55.765 65.1068 55.3353 64.8822 54.9512 64.5762C54.5671 64.2702 54.2383 63.8763 53.9648 63.3945C53.6979 62.9062 53.4896 62.3236 53.3398 61.6465C53.1966 60.9694 53.125 60.1849 53.125 59.293V56.9688C53.125 55.849 53.2357 54.9049 53.457 54.1367C53.6784 53.362 53.9941 52.7337 54.4043 52.252C54.8145 51.7637 55.3027 51.4089 55.8691 51.1875C56.4421 50.9661 57.0801 50.8555 57.7832 50.8555C58.3496 50.8555 58.8704 50.9271 59.3457 51.0703C59.8275 51.207 60.2572 51.4251 60.6348 51.7246C61.0189 52.0241 61.3444 52.4147 61.6113 52.8965C61.8848 53.3717 62.0931 53.9479 62.2363 54.625C62.3796 55.2956 62.4512 56.0768 62.4512 56.9688ZM60.0977 59.625V56.6172C60.0977 56.0508 60.0651 55.5527 60 55.123C59.9349 54.6868 59.8372 54.319 59.707 54.0195C59.5833 53.7135 59.4271 53.4661 59.2383 53.2773C59.0495 53.082 58.8346 52.9421 58.5938 52.8574C58.3529 52.7663 58.0827 52.7207 57.7832 52.7207C57.4186 52.7207 57.0931 52.7923 56.8066 52.9355C56.5202 53.0723 56.2793 53.2936 56.084 53.5996C55.8887 53.9056 55.7389 54.3092 55.6348 54.8105C55.5371 55.3053 55.4883 55.9076 55.4883 56.6172V59.625C55.4883 60.1979 55.5208 60.7025 55.5859 61.1387C55.651 61.5749 55.7487 61.9492 55.8789 62.2617C56.0091 62.5677 56.1654 62.8216 56.3477 63.0234C56.5365 63.2188 56.7513 63.362 56.9922 63.4531C57.2396 63.5443 57.5098 63.5898 57.8027 63.5898C58.1738 63.5898 58.5026 63.5182 58.7891 63.375C59.0755 63.2318 59.3164 63.0039 59.5117 62.6914C59.707 62.3724 59.8535 61.959 59.9512 61.4512C60.0488 60.9434 60.0977 60.3346 60.0977 59.625ZM64.7178 56.6836V56.082C64.7178 55.6497 64.8116 55.2565 64.9991 54.9023C65.1866 54.5482 65.46 54.2643 65.8194 54.0508C66.1788 53.8372 66.611 53.7305 67.1163 53.7305C67.6371 53.7305 68.0746 53.8372 68.4288 54.0508C68.7881 54.2643 69.0616 54.5482 69.2491 54.9023C69.4366 55.2565 69.5303 55.6497 69.5303 56.082V56.6836C69.5303 57.1055 69.4366 57.4935 69.2491 57.8477C69.0668 58.2018 68.7959 58.4857 68.4366 58.6992C68.0824 58.9128 67.6475 59.0195 67.1319 59.0195C66.6215 59.0195 66.184 58.9128 65.8194 58.6992C65.46 58.4857 65.1866 58.2018 64.9991 57.8477C64.8116 57.4935 64.7178 57.1055 64.7178 56.6836ZM66.0225 56.082V56.6836C66.0225 56.8919 66.0616 57.0898 66.1397 57.2773C66.223 57.4648 66.348 57.6159 66.5147 57.7305C66.6814 57.8451 66.8871 57.9023 67.1319 57.9023C67.3819 57.9023 67.585 57.8451 67.7413 57.7305C67.9027 57.6159 68.0225 57.4648 68.1006 57.2773C68.1788 57.0898 68.2178 56.8919 68.2178 56.6836V56.082C68.2178 55.8685 68.1761 55.668 68.0928 55.4805C68.0147 55.2878 67.8949 55.1341 67.7334 55.0195C67.572 54.9049 67.3663 54.8477 67.1163 54.8477C66.8767 54.8477 66.6735 54.9049 66.5069 55.0195C66.3454 55.1341 66.223 55.2878 66.1397 55.4805C66.0616 55.668 66.0225 55.8685 66.0225 56.082ZM70.2022 63.0898V62.4805C70.2022 62.0534 70.2959 61.6628 70.4834 61.3086C70.6761 60.9544 70.9522 60.6706 71.3116 60.457C71.6709 60.2435 72.1032 60.1367 72.6084 60.1367C73.1293 60.1367 73.5668 60.2435 73.9209 60.457C74.2803 60.6706 74.5511 60.9544 74.7334 61.3086C74.9209 61.6628 75.0147 62.0534 75.0147 62.4805V63.0898C75.0147 63.5169 74.9209 63.9076 74.7334 64.2617C74.5511 64.6159 74.2829 64.8997 73.9288 65.1133C73.5746 65.3268 73.1423 65.4336 72.6319 65.4336C72.1163 65.4336 71.6761 65.3268 71.3116 65.1133C70.9522 64.8997 70.6761 64.6159 70.4834 64.2617C70.2959 63.9076 70.2022 63.5169 70.2022 63.0898ZM71.5147 62.4805V63.0898C71.5147 63.2982 71.5564 63.4961 71.6397 63.6836C71.7282 63.8711 71.8558 64.0247 72.0225 64.1445C72.1892 64.2591 72.3897 64.3164 72.6241 64.3164C72.8897 64.3164 73.1032 64.2591 73.2647 64.1445C73.4261 64.0247 73.5407 63.8737 73.6084 63.6914C73.6814 63.5039 73.7178 63.3034 73.7178 63.0898V62.4805C73.7178 62.2669 73.6761 62.0664 73.5928 61.8789C73.5147 61.6914 73.3923 61.5404 73.2256 61.4258C73.0642 61.3112 72.8584 61.2539 72.6084 61.2539C72.3636 61.2539 72.1605 61.3112 71.9991 61.4258C71.8376 61.5404 71.7152 61.6914 71.6319 61.8789C71.5538 62.0664 71.5147 62.2669 71.5147 62.4805ZM73.0772 55.5195L67.5225 64.4102L66.5616 63.8555L72.1163 54.9648L73.0772 55.5195Z" fill="#191919"/>
</svg>
