<svg width="143" height="68" viewBox="0 0 143 68" fill="none" xmlns="http://www.w3.org/2000/svg">
<g clip-path="url(#clip0_9785_105474)">
<path d="M3.71724 64.1044C3.64277 63.999 3.56209 63.8937 3.4814 63.7822C3.39451 63.6768 3.28901 63.5591 3.17109 63.4414C3.05937 63.3236 2.94145 63.2121 2.82353 63.113L2.51322 62.8465C2.29599 62.6544 2.11601 62.4871 1.96706 62.3446C1.83052 62.2083 1.7126 62.0844 1.62571 61.9605C1.5202 61.8241 1.45193 61.7002 1.40849 61.5763C1.36505 61.4833 1.34643 61.378 1.34643 61.2603C1.34643 61.1611 1.36505 61.0682 1.40228 60.9814C1.45814 60.8513 1.54503 60.746 1.66295 60.6592C1.88017 60.5105 2.12842 60.4919 2.35185 60.5849C2.48839 60.6407 2.5939 60.7274 2.68079 60.8389C2.76147 60.9753 2.80491 61.1116 2.80491 61.2603C2.80491 61.44 2.87318 61.6011 3.00352 61.7312C3.26418 61.9914 3.68001 61.9914 3.94067 61.7312C4.071 61.6011 4.13307 61.44 4.13307 61.2603C4.13307 60.9753 4.08342 60.7026 3.97791 60.4486C3.81034 60.0768 3.55588 59.7732 3.23315 59.5501C2.8918 59.3209 2.50701 59.2031 2.07257 59.2031C1.78087 59.2031 1.50779 59.2589 1.27195 59.3704C0.91819 59.5191 0.614079 59.767 0.35962 60.1078C0.247906 60.2751 0.161018 60.461 0.0989543 60.653C0.036891 60.8451 0.00585938 61.0496 0.00585938 61.2603C0.00585938 61.5267 0.0617163 61.7994 0.17343 62.0782C0.297557 62.4066 0.514778 62.735 0.806476 63.051C0.936808 63.1997 1.07335 63.3422 1.2223 63.4723C1.36505 63.5963 1.50779 63.7264 1.65054 63.8565C1.87396 64.0424 2.06015 64.2097 2.19669 64.3522C2.33323 64.4947 2.45115 64.631 2.54425 64.7488C2.63734 64.8789 2.70561 65.0028 2.74906 65.1267C2.7925 65.2197 2.81112 65.325 2.81112 65.4427C2.81112 65.5419 2.7925 65.641 2.75526 65.734C2.69941 65.8579 2.61252 65.9694 2.4946 66.0562C2.28979 66.1925 2.01671 66.2049 1.79328 66.1243C1.66916 66.0686 1.56365 65.9818 1.47676 65.8641C1.38987 65.7278 1.35263 65.5977 1.35263 65.4551C1.35263 65.2693 1.28436 65.1081 1.16024 64.978C0.899571 64.7178 0.489953 64.7116 0.223081 64.978C0.092748 65.1081 0.0244784 65.2693 0.0244784 65.4551C0.0244784 65.734 0.074129 66.0004 0.179637 66.2545C0.341001 66.6262 0.59546 66.9298 0.930602 67.1591C1.27816 67.4008 1.66916 67.5185 2.09119 67.5185C2.35185 67.5185 2.62493 67.4627 2.8918 67.3512C3.26418 67.1839 3.56829 66.9298 3.79172 66.6076C4.03377 66.2607 4.15169 65.8765 4.15169 65.4613C4.15169 65.1949 4.09583 64.9223 3.99032 64.6496C3.93446 64.4823 3.84758 64.3088 3.72345 64.1229L3.71724 64.1044Z" fill="#1F406B"/>
<path d="M9.88091 59.2155C9.84367 59.2031 9.79402 59.2031 9.73196 59.2031C9.60783 59.2031 9.4837 59.2341 9.3782 59.3023C9.26028 59.3704 9.1796 59.4696 9.12374 59.5935L7.72731 62.7288L6.33089 59.5935C6.21918 59.3394 6.00816 59.2031 5.72267 59.2031C5.6544 59.2031 5.60475 59.2031 5.57993 59.2155C5.43097 59.2527 5.30064 59.3271 5.20755 59.4386C5.10824 59.5563 5.05859 59.6988 5.05859 59.8599V66.8307C5.05859 67.0166 5.12686 67.1777 5.2572 67.3078C5.51786 67.5681 5.93369 67.5681 6.19435 67.3078C6.33089 67.1777 6.39916 67.0166 6.39916 66.8307L6.38054 62.9828L7.11909 64.6682C7.17495 64.7859 7.26184 64.8789 7.36735 64.947C7.59078 65.0896 7.87627 65.0834 8.09349 64.947C8.2052 64.8789 8.28588 64.7797 8.34174 64.662L9.07409 62.9828V66.8245C9.07409 67.0104 9.14236 67.1715 9.26648 67.3016C9.39682 67.4317 9.55197 67.4937 9.73196 67.4937C9.91194 67.4937 10.0671 67.4317 10.2036 67.3016C10.3402 67.1715 10.4084 67.0104 10.4084 66.8245V59.8537C10.4084 59.6926 10.3526 59.5501 10.2533 59.4324C10.154 59.3209 10.0237 59.2403 9.88091 59.2093V59.2155Z" fill="#1F406B"/>
<path d="M15.6337 63.5653L15.0937 60.6283C15.0627 60.4548 15.0441 60.3556 15.0379 60.3061C14.9696 59.9777 14.8082 59.7112 14.56 59.5129C14.3055 59.3085 14.0138 59.2031 13.6787 59.2031C13.3435 59.2031 13.0642 59.3085 12.816 59.5129C12.5615 59.7112 12.4002 59.9839 12.3443 60.2937C12.3443 60.3061 12.3319 60.337 12.276 60.6407L12.1395 61.3904C12.0836 61.694 12.0216 62.0348 11.9533 62.4128L11.1651 66.7068C11.1527 66.7563 11.1465 66.8059 11.1465 66.8493C11.1465 66.9794 11.1899 67.0971 11.2644 67.1963C11.3699 67.3636 11.5127 67.4565 11.674 67.4813C11.7113 67.4937 11.7547 67.4999 11.8106 67.4999C11.9719 67.4999 12.1147 67.4503 12.2388 67.345C12.3567 67.2397 12.4374 67.1095 12.4684 66.9484L12.8036 65.1205C12.8098 65.0834 12.8222 65.0648 12.8843 65.0648H14.4855C14.5476 65.0648 14.5476 65.0834 14.5538 65.1143L14.8951 66.9546C14.9323 67.1157 15.0068 67.2459 15.1309 67.345C15.2551 67.4503 15.3978 67.4999 15.5592 67.4999C15.6212 67.4999 15.6647 67.4999 15.6771 67.4875C15.8571 67.4627 16.006 67.3636 16.0991 67.2087C16.186 67.1033 16.2295 66.9794 16.2295 66.8617C16.2295 66.8059 16.2295 66.7563 16.2171 66.713C15.9998 65.5481 15.8012 64.4947 15.6337 63.5653V63.5653ZM13.6104 60.777C13.6228 60.7274 13.6352 60.7212 13.6787 60.7212C13.7221 60.7212 13.7407 60.7274 13.7531 60.777L14.2869 63.652C14.2869 63.652 14.2807 63.683 14.2683 63.7016C14.2559 63.714 14.2434 63.7264 14.2124 63.7264H13.1697C13.1697 63.7264 13.1325 63.7264 13.1325 63.7202C13.1201 63.6954 13.1077 63.6768 13.1077 63.6582C13.1077 63.5777 13.1139 63.4909 13.1325 63.398L13.6166 60.7832L13.6104 60.777Z" fill="#1F406B"/>
<path d="M21.3612 60.6596C21.175 60.232 20.8771 59.8788 20.4799 59.6062C20.0827 59.3336 19.6297 59.1973 19.1332 59.1973H17.6312C17.445 59.1973 17.2837 59.2592 17.1595 59.3893C17.0292 59.5195 16.9609 59.6744 16.9609 59.8603V66.831C16.9609 67.0169 17.0292 67.178 17.1595 67.3081C17.414 67.5622 17.8422 67.5684 18.1091 67.3081C18.2394 67.178 18.3077 67.0169 18.3077 66.831V64.0923C18.3077 64.0551 18.3201 64.0427 18.3263 64.0365C18.3387 64.0303 18.3512 64.0179 18.3822 64.0179H19.1083C19.2883 64.0179 19.4373 64.0737 19.58 64.1976C19.7103 64.3154 19.791 64.4579 19.8221 64.6376L20.1013 66.6451C20.1262 66.8062 20.1386 66.8992 20.1386 66.9302C20.1696 67.0975 20.2503 67.2338 20.3744 67.3453C20.4985 67.4507 20.6475 67.5064 20.8089 67.5064C20.8523 67.5064 20.8895 67.5064 20.9144 67.494C21.0819 67.4692 21.2247 67.3949 21.3364 67.271C21.4295 67.1656 21.4791 67.0479 21.4791 66.9178C21.4791 66.8868 21.4791 66.8558 21.4729 66.831L21.1316 64.4455C21.0819 64.1047 20.9516 63.7825 20.7344 63.4913C20.7344 63.4913 20.722 63.4789 20.7282 63.4541C20.7282 63.4293 20.7406 63.4107 20.753 63.3983C20.8275 63.3364 20.8957 63.2682 20.964 63.1876C21.0323 63.1133 21.0944 63.0265 21.1378 62.946C21.4171 62.5556 21.5598 62.1033 21.5598 61.6014C21.5598 61.4403 21.5412 61.2792 21.5102 61.1243C21.4791 60.9694 21.4295 60.8145 21.3736 60.6596H21.3612ZM20.2068 61.5952C20.2068 61.7377 20.1758 61.8802 20.1262 62.0228C20.0455 62.221 19.9152 62.3697 19.729 62.4937C19.5552 62.6114 19.3566 62.6734 19.1332 62.6734H18.3698C18.3698 62.6734 18.3263 62.661 18.3139 62.6548C18.2953 62.6362 18.2953 62.6238 18.2953 62.6114V60.5976C18.2953 60.5976 18.3015 60.5542 18.3139 60.548C18.3201 60.5419 18.3387 60.5295 18.3698 60.5295H19.1332C19.2759 60.5295 19.4186 60.5604 19.5552 60.6162C19.7476 60.6968 19.9027 60.8269 20.0269 61.0004C20.1448 61.1925 20.2068 61.3969 20.2068 61.6014V61.5952Z" fill="#1F406B"/>
<path d="M26.0964 59.1784H22.5837C22.4037 59.1784 22.2485 59.2466 22.1182 59.3767C21.9878 59.5068 21.9258 59.6617 21.9258 59.8414C21.9258 60.0211 21.994 60.1822 22.1182 60.3061C22.2485 60.4362 22.4037 60.5044 22.5837 60.5044H23.6077C23.6077 60.5044 23.6511 60.5168 23.6636 60.523C23.676 60.5354 23.6822 60.5478 23.6822 60.5788V66.8308C23.6822 67.0105 23.7504 67.1654 23.8746 67.3017C24.0049 67.438 24.1601 67.5 24.3462 67.5C24.5324 67.5 24.6876 67.4318 24.8179 67.3017C24.9545 67.1716 25.0227 67.0105 25.0227 66.8308V60.5788C25.0227 60.5478 25.0351 60.5292 25.0414 60.5168C25.0414 60.5168 25.0538 60.5044 25.0848 60.5044H26.0964C26.2764 60.5044 26.4316 60.4362 26.5619 60.3061C26.6922 60.176 26.7543 60.0211 26.7543 59.8352C26.7543 59.6493 26.686 59.4944 26.5619 59.3643C26.4316 59.2342 26.2764 59.166 26.0964 59.166V59.1784Z" fill="#1F406B"/>
<path d="M33.8794 64.1044C33.8049 63.999 33.7242 63.8937 33.6435 63.7822C33.5566 63.6768 33.4511 63.5591 33.3332 63.4414C33.2215 63.3236 33.1036 63.2121 32.9856 63.113L32.6753 62.8465C32.4581 62.6544 32.2781 62.4871 32.1292 62.3446C31.9926 62.2083 31.8747 62.0844 31.7878 61.9605C31.6823 61.8241 31.614 61.7002 31.5706 61.5763C31.5272 61.4833 31.5085 61.378 31.5085 61.2603C31.5085 61.1611 31.5272 61.0682 31.5644 60.9814C31.6202 60.8513 31.7071 60.746 31.8251 60.6592C32.0423 60.5105 32.2905 60.4919 32.514 60.5849C32.6505 60.6407 32.756 60.7274 32.8429 60.8389C32.9236 60.9753 32.967 61.1116 32.967 61.2603C32.967 61.44 33.0353 61.6011 33.1656 61.7312C33.4263 61.9914 33.8421 61.9914 34.1028 61.7312C34.2331 61.6011 34.2952 61.44 34.2952 61.2603C34.2952 60.9753 34.2455 60.7026 34.14 60.4486C33.9724 60.0768 33.718 59.7732 33.3953 59.5501C33.0539 59.3209 32.6691 59.2031 32.2347 59.2031C31.943 59.2031 31.6699 59.2589 31.4341 59.3704C31.0803 59.5191 30.7762 59.767 30.5217 60.1078C30.41 60.2751 30.3231 60.461 30.2611 60.653C30.199 60.8451 30.168 61.0496 30.168 61.2603C30.168 61.5267 30.2238 61.7994 30.3355 62.0782C30.4597 62.4066 30.6769 62.735 30.9686 63.051C31.0989 63.1997 31.2355 63.3422 31.3844 63.4723C31.5272 63.5963 31.6699 63.7264 31.8126 63.8565C32.0361 64.0424 32.2223 64.2097 32.3588 64.3522C32.4953 64.4947 32.6133 64.631 32.7064 64.7488C32.7995 64.8789 32.8677 65.0028 32.9112 65.1267C32.9546 65.2197 32.9732 65.325 32.9732 65.4427C32.9732 65.5419 32.9546 65.641 32.9174 65.734C32.8615 65.8579 32.7746 65.9694 32.6567 66.0562C32.4519 66.1925 32.185 66.2049 31.9554 66.1243C31.8313 66.0686 31.7258 65.9818 31.6389 65.8641C31.552 65.7278 31.5147 65.5977 31.5147 65.4551C31.5147 65.2693 31.4465 65.1081 31.3223 64.978C31.0617 64.7178 30.6521 64.7116 30.3852 64.978C30.2549 65.1081 30.1866 65.2693 30.1866 65.4551C30.1866 65.734 30.2362 66.0004 30.3417 66.2545C30.5031 66.6262 30.7576 66.9298 31.0927 67.1591C31.4403 67.4008 31.8313 67.5185 32.2533 67.5185C32.514 67.5185 32.787 67.4627 33.0539 67.3512C33.4263 67.1839 33.7304 66.9298 33.9538 66.6076C34.1959 66.2607 34.3138 65.8765 34.3138 65.4613C34.3138 65.1949 34.2579 64.9223 34.1524 64.6496C34.0966 64.4823 34.0097 64.3088 33.8856 64.1229L33.8794 64.1044Z" fill="#1F406B"/>
<path d="M38.5281 59.3833C38.3977 59.5134 38.3357 59.6683 38.3357 59.848V62.5868C38.3357 62.6239 38.3233 62.6363 38.3171 62.6425C38.2984 62.6611 38.286 62.6611 38.2736 62.6611H36.7034C36.7034 62.6611 36.6786 62.6611 36.66 62.6425C36.6476 62.6301 36.6413 62.6177 36.6413 62.5868V59.848C36.6413 59.6683 36.5731 59.5134 36.4427 59.3833C36.1759 59.1231 35.7538 59.1292 35.4932 59.3833C35.3628 59.5134 35.3008 59.6683 35.3008 59.848V66.8188C35.3008 67.0047 35.3691 67.1658 35.4994 67.2959C35.7538 67.5499 36.1821 67.5561 36.449 67.2959C36.5793 67.1658 36.6476 67.0047 36.6476 66.8188V64.0677C36.6476 64.0305 36.66 64.0181 36.6662 64.0119C36.6786 63.9995 36.691 63.9933 36.7096 63.9933H38.2798C38.2798 63.9933 38.3046 63.9933 38.3233 64.0119C38.3357 64.0243 38.3419 64.0367 38.3419 64.0677V66.8188C38.3419 67.0047 38.4102 67.1658 38.5343 67.2959C38.6646 67.426 38.8198 67.488 38.9998 67.488C39.1797 67.488 39.3473 67.4198 39.4776 67.2959C39.608 67.1658 39.6762 67.0047 39.6762 66.8188V59.848C39.6762 59.6683 39.608 59.5072 39.4776 59.3833C39.2232 59.1292 38.7949 59.1231 38.5281 59.3833Z" fill="#1F406B"/>
<path d="M41.042 59.3954C40.9117 59.5255 40.8496 59.6804 40.8496 59.8601V66.8309C40.8496 67.0168 40.9179 67.1779 41.042 67.308C41.1723 67.4381 41.3275 67.5001 41.5075 67.5001C41.6875 67.5001 41.8426 67.4319 41.973 67.308C42.1033 67.1779 42.1654 67.0168 42.1654 66.8309V59.8601C42.1654 59.6804 42.0971 59.5255 41.973 59.3954C41.7185 59.1351 41.3027 59.1351 41.042 59.3954Z" fill="#1F406B"/>
<path d="M46.7019 59.6496C46.2488 59.3522 45.7399 59.1973 45.1999 59.1973H43.9649C43.7787 59.1973 43.6173 59.2592 43.487 59.3893C43.3628 59.5133 43.3008 59.6682 43.3008 59.8603V66.831C43.3008 67.0169 43.3691 67.178 43.4932 67.3081C43.6235 67.4383 43.7787 67.5002 43.9587 67.5002C44.1386 67.5002 44.2938 67.4321 44.4241 67.3081C44.5545 67.178 44.6165 67.0169 44.6165 66.831V64.6128C44.6165 64.6128 44.6165 64.5818 44.6476 64.557C44.66 64.5446 44.6724 64.5384 44.691 64.5384H45.1875C45.5661 64.5384 45.9199 64.4641 46.2302 64.3216C46.7143 64.1233 47.1115 63.8011 47.4156 63.3611C47.7197 62.9026 47.8748 62.4007 47.8748 61.8616C47.8748 61.5085 47.8066 61.1615 47.6638 60.8207C47.4528 60.3312 47.1239 59.9346 46.6894 59.6434L46.7019 59.6496ZM45.1937 63.2H44.6972C44.6662 63.2 44.6476 63.1876 44.6414 63.1815C44.6289 63.1691 44.6227 63.1567 44.6227 63.1443V60.5976C44.6227 60.5976 44.6289 60.5542 44.6414 60.548C44.6538 60.5357 44.6662 60.5295 44.6972 60.5295H45.2185C45.3923 60.5295 45.5599 60.5666 45.7213 60.641C45.9695 60.7463 46.1681 60.9074 46.3109 61.1243C46.466 61.3536 46.5405 61.6076 46.5405 61.8678C46.5405 62.0599 46.5032 62.2396 46.435 62.3945C46.3357 62.6362 46.1805 62.8283 45.9509 62.977C45.715 63.1319 45.4544 63.2124 45.1875 63.2124L45.1937 63.2Z" fill="#1F406B"/>
<path d="M55.5409 59.197H55.4354C55.2741 59.197 55.1251 59.2465 55.0072 59.3519C54.8893 59.4572 54.8086 59.5873 54.7838 59.736L53.6356 65.9137C53.6356 65.9137 53.6232 65.9447 53.617 65.9509C53.5984 65.9633 53.586 65.9695 53.5673 65.9695C53.5177 65.9695 53.5115 65.9633 53.4991 65.9075L52.3571 59.736C52.3323 59.5811 52.2516 59.451 52.1275 59.3457C52.0033 59.2403 51.8606 59.1908 51.7054 59.1908H51.5813C51.4075 59.2341 51.2648 59.3271 51.1531 59.4758C51.0724 59.5935 51.0352 59.7236 51.0352 59.8662L51.0476 59.9653C51.0476 59.9653 51.0476 59.9715 51.0476 59.9777L52.2268 66.3722C52.295 66.6882 52.4502 66.9609 52.6985 67.1777C52.9529 67.3822 53.2446 67.4875 53.5673 67.4875C53.7287 67.4875 53.8839 67.4628 54.039 67.407C54.188 67.3512 54.3245 67.2769 54.4486 67.1777C54.7093 66.9609 54.8645 66.6944 54.9141 66.3784L56.1057 59.9653C56.1057 59.9219 56.1119 59.8847 56.1119 59.8538C56.1119 59.7174 56.0685 59.5873 55.9878 59.4696C55.8823 59.3271 55.7396 59.2341 55.5347 59.1846L55.5409 59.197Z" fill="#1F406B"/>
<path d="M65.2659 59.383C65.1355 59.5131 65.0735 59.668 65.0735 59.8477V63.8567L63.0626 59.5565C63.0006 59.445 62.9199 59.352 62.8144 59.2901C62.7089 59.2219 62.5847 59.1847 62.4606 59.1847C62.3985 59.1847 62.3489 59.1847 62.3117 59.1971C62.1627 59.2343 62.0386 59.3087 61.9455 59.4326C61.8524 59.5503 61.8027 59.6928 61.8027 59.8415V66.8123C61.8027 66.9982 61.871 67.1593 61.9951 67.2894C62.2558 67.5497 62.6716 67.5435 62.9261 67.2894C63.0564 67.1593 63.1185 66.9982 63.1185 66.8123V62.8343L65.1231 67.0912C65.179 67.2151 65.2597 67.3142 65.3714 67.3824C65.4831 67.4505 65.601 67.4815 65.7313 67.4815C65.75 67.4815 65.7748 67.4815 65.8058 67.4753C65.8244 67.4753 65.8368 67.4753 65.8803 67.4691C66.0354 67.4319 66.1596 67.3514 66.2589 67.2275C66.352 67.1035 66.4016 66.961 66.4016 66.8123V59.8415C66.4016 59.6618 66.3333 59.5069 66.203 59.3768C65.9361 59.1166 65.5265 59.1166 65.2659 59.3768V59.383Z" fill="#1F406B"/>
<path d="M71.3351 59.1784H67.8161C67.6361 59.1784 67.4809 59.2466 67.3506 59.3767C67.2203 59.5068 67.1582 59.6617 67.1582 59.8414C67.1582 60.0211 67.2265 60.1822 67.3506 60.3061C67.4809 60.4362 67.6361 60.5044 67.8161 60.5044H68.8401C68.8401 60.5044 68.8836 60.5168 68.896 60.523C68.9084 60.5354 68.9146 60.5478 68.9146 60.5788V66.8308C68.9146 67.0105 68.9829 67.1654 69.107 67.3017C69.2373 67.438 69.3925 67.5 69.5787 67.5C69.7649 67.5 69.92 67.4318 70.0504 67.3017C70.1869 67.1716 70.2552 67.0105 70.2552 66.8308V60.5788C70.2552 60.5478 70.2676 60.5292 70.2738 60.5168C70.2738 60.5168 70.2862 60.5044 70.3172 60.5044H71.3289C71.5088 60.5044 71.664 60.4362 71.7943 60.3061C71.9247 60.176 71.9867 60.0211 71.9867 59.8352C71.9867 59.6493 71.9185 59.4944 71.7943 59.3643C71.664 59.2342 71.5088 59.166 71.3289 59.166L71.3351 59.1784Z" fill="#1F406B"/>
<path d="M76.133 59.3892C76.0027 59.5193 75.9344 59.6742 75.9344 59.8539V65.2508C75.9344 65.3686 75.9096 65.4863 75.8599 65.6102C75.7855 65.7775 75.68 65.9014 75.5248 66.0068C75.3262 66.1431 75.0903 66.1865 74.8297 66.1493C74.7738 66.1431 74.718 66.1245 74.6683 66.0997C74.4945 66.0254 74.358 65.9138 74.2649 65.7713C74.1594 65.604 74.1035 65.4305 74.1035 65.257V59.8601C74.1035 59.6804 74.0353 59.5255 73.9111 59.3954C73.6505 59.1351 73.2347 59.1351 72.974 59.3954C72.8437 59.5255 72.7754 59.6804 72.7754 59.8601V65.257C72.7754 65.5606 72.8375 65.8519 72.9492 66.1307C73.0361 66.3352 73.154 66.5211 73.2905 66.6884C73.4271 66.8495 73.5884 66.9982 73.7684 67.1221C74.1532 67.3761 74.5752 67.5063 75.0159 67.5063C75.32 67.5063 75.6179 67.4443 75.891 67.3266C76.3006 67.1531 76.6295 66.8804 76.8778 66.5149C77.1322 66.1431 77.2688 65.7217 77.2688 65.257V59.8601C77.2688 59.6804 77.2005 59.5255 77.0764 59.3954C76.8157 59.1351 76.3999 59.1351 76.1392 59.3954L76.133 59.3892Z" fill="#1F406B"/>
<path d="M82.7987 60.6596C82.6125 60.232 82.3146 59.8788 81.9174 59.6062C81.5202 59.3336 81.0672 59.1973 80.5707 59.1973H79.0687C78.8825 59.1973 78.7212 59.2592 78.597 59.3893C78.4667 59.5195 78.3984 59.6744 78.3984 59.8603V66.831C78.3984 67.0169 78.4667 67.178 78.597 67.3081C78.8515 67.5622 79.2797 67.5684 79.5466 67.3081C79.6769 67.178 79.7452 67.0169 79.7452 66.831V64.0923C79.7452 64.0551 79.7576 64.0427 79.7638 64.0365C79.7762 64.0303 79.7887 64.0179 79.8197 64.0179H80.5458C80.7258 64.0179 80.8748 64.0737 81.0175 64.1976C81.1478 64.3154 81.2285 64.4579 81.2595 64.6376L81.5388 66.6451C81.5637 66.8062 81.5761 66.8992 81.5761 66.9302C81.6071 67.0975 81.6878 67.2338 81.8119 67.3453C81.936 67.4507 82.085 67.5064 82.2464 67.5064C82.2898 67.5064 82.327 67.5064 82.3519 67.494C82.5194 67.4692 82.6622 67.3949 82.7739 67.271C82.867 67.1656 82.9166 67.0479 82.9166 66.9178C82.9166 66.8868 82.9166 66.8558 82.9104 66.831L82.5691 64.4455C82.5194 64.1047 82.3891 63.7825 82.1719 63.4913C82.1719 63.4913 82.1595 63.4789 82.1657 63.4541C82.1657 63.4293 82.1781 63.4107 82.1905 63.3983C82.265 63.3364 82.3333 63.2682 82.4015 63.1876C82.4698 63.1133 82.5319 63.0265 82.5753 62.946C82.8546 62.5556 82.9973 62.1033 82.9973 61.6014C82.9973 61.4403 82.9787 61.2792 82.9477 61.1243C82.9166 60.9694 82.867 60.8145 82.8111 60.6596H82.7987ZM81.6443 61.5952C81.6443 61.7377 81.6133 61.8802 81.5637 62.0228C81.483 62.221 81.3526 62.3697 81.1665 62.4937C80.9927 62.6114 80.8003 62.6734 80.5707 62.6734H79.8073C79.8073 62.6734 79.7638 62.661 79.7514 62.6548C79.7328 62.6362 79.7328 62.6238 79.7328 62.6114V60.5976C79.7328 60.5976 79.739 60.5542 79.7514 60.548C79.7576 60.5419 79.7762 60.5295 79.8073 60.5295H80.5707C80.7134 60.5295 80.8561 60.5604 80.9927 60.6162C81.1851 60.6968 81.3402 60.8269 81.4644 61.0004C81.5823 61.1925 81.6443 61.3969 81.6443 61.6014V61.5952Z" fill="#1F406B"/>
<path d="M85.2878 60.535C85.2878 60.535 85.3127 60.5164 85.3437 60.5164H87.3421C87.5221 60.5164 87.6835 60.4483 87.8138 60.3181C87.9441 60.188 88.0062 60.0269 88.0062 59.8472C88.0062 59.6675 87.9379 59.5064 87.8138 59.3825C87.6835 59.2524 87.5283 59.1904 87.3483 59.1904H84.6113C84.4314 59.1904 84.2762 59.2586 84.1459 59.3825C84.0155 59.5126 83.9473 59.6675 83.9473 59.8472V66.818C83.9473 67.0039 84.0155 67.165 84.1397 67.2951C84.27 67.4252 84.4252 67.4872 84.6051 67.4872H87.3421C87.5221 67.4872 87.6773 67.419 87.8076 67.2951C87.9379 67.165 88.0062 67.0039 88.0062 66.818C88.0062 66.6321 87.9379 66.4834 87.8138 66.3471C87.6835 66.217 87.5283 66.1488 87.3483 66.1488H85.3499C85.3499 66.1488 85.3064 66.1364 85.294 66.1302C85.2754 66.1116 85.2754 66.0992 85.2754 66.0868V64.0793C85.2754 64.0421 85.2878 64.0297 85.294 64.0235C85.3064 64.0111 85.3189 64.0049 85.3499 64.0049H86.796C86.976 64.0049 87.1373 63.9368 87.2676 63.8066C87.398 63.6765 87.4662 63.5154 87.4662 63.3357C87.4662 63.156 87.398 62.9887 87.2676 62.8586C87.1373 62.7285 86.976 62.6665 86.796 62.6665H85.3499C85.3127 62.6665 85.3002 62.6541 85.2878 62.6479C85.2878 62.6479 85.2754 62.6355 85.2754 62.6046V60.5908C85.2754 60.5908 85.2816 60.5474 85.294 60.5412L85.2878 60.535Z" fill="#1F406B"/>
<path d="M95.4285 59.1784H91.9157C91.7357 59.1784 91.5805 59.2466 91.4502 59.3767C91.3199 59.5068 91.2578 59.6617 91.2578 59.8414C91.2578 60.0211 91.3261 60.1822 91.4502 60.3061C91.5805 60.4362 91.7357 60.5044 91.9157 60.5044H92.9397C92.9397 60.5044 92.9832 60.5168 92.9956 60.523C93.008 60.5354 93.0142 60.5478 93.0142 60.5788V66.8308C93.0142 67.0105 93.0825 67.1654 93.2066 67.3017C93.3369 67.438 93.4921 67.5 93.6783 67.5C93.8645 67.5 94.0196 67.4318 94.15 67.3017C94.2865 67.1716 94.3548 67.0105 94.3548 66.8308V60.5788C94.3548 60.5478 94.3672 60.5292 94.3734 60.5168C94.3734 60.5168 94.3858 60.5044 94.4168 60.5044H95.4285C95.6084 60.5044 95.7636 60.4362 95.8939 60.3061C96.0243 60.176 96.0863 60.0211 96.0863 59.8352C96.0863 59.6493 96.0181 59.4944 95.8939 59.3643C95.7636 59.2342 95.6084 59.166 95.4285 59.166V59.1784Z" fill="#1F406B"/>
<path d="M98.1394 60.535C98.1394 60.535 98.1642 60.5164 98.1953 60.5164H100.194C100.374 60.5164 100.535 60.4483 100.665 60.3181C100.796 60.188 100.858 60.0269 100.858 59.8472C100.858 59.6675 100.789 59.5064 100.665 59.3825C100.535 59.2524 100.38 59.1904 100.2 59.1904H97.4629C97.2829 59.1904 97.1278 59.2586 96.9974 59.3825C96.8671 59.5126 96.7988 59.6675 96.7988 59.8472V66.818C96.7988 67.0039 96.8671 67.165 96.9912 67.2951C97.1216 67.4252 97.2767 67.4872 97.4567 67.4872H100.194C100.374 67.4872 100.529 67.419 100.659 67.2951C100.79 67.165 100.858 67.0039 100.858 66.818C100.858 66.6321 100.789 66.4834 100.665 66.3471C100.535 66.217 100.38 66.1488 100.2 66.1488H98.2015C98.2015 66.1488 98.158 66.1364 98.1456 66.1302C98.127 66.1116 98.127 66.0992 98.127 66.0868V64.0793C98.127 64.0421 98.1394 64.0297 98.1456 64.0235C98.158 64.0111 98.1704 64.0049 98.2015 64.0049H99.6475C99.8275 64.0049 99.9889 63.9368 100.119 63.8066C100.25 63.6765 100.318 63.5154 100.318 63.3357C100.318 63.156 100.25 62.9887 100.119 62.8586C99.9889 62.7285 99.8275 62.6665 99.6475 62.6665H98.2015C98.1642 62.6665 98.1518 62.6541 98.1394 62.6479C98.1394 62.6479 98.127 62.6355 98.127 62.6046V60.5908C98.127 60.5908 98.1332 60.5474 98.1456 60.5412L98.1394 60.535Z" fill="#1F406B"/>
<path d="M102.957 60.9691C103 60.8389 103.087 60.7336 103.217 60.6469C103.447 60.5105 103.689 60.4919 103.906 60.5787C104.037 60.6345 104.142 60.7212 104.229 60.8389C104.31 60.9567 104.353 61.093 104.353 61.2541C104.353 61.4338 104.421 61.5949 104.552 61.725C104.806 61.9852 105.241 61.9914 105.501 61.725C105.632 61.5949 105.7 61.44 105.7 61.2603C105.7 60.9938 105.65 60.7212 105.538 60.4548C105.383 60.0768 105.129 59.7732 104.787 59.5501C104.446 59.3209 104.055 59.2031 103.633 59.2031C103.335 59.2031 103.062 59.2589 102.826 59.3704C102.448 59.5253 102.144 59.7732 101.92 60.1078C101.684 60.4486 101.566 60.8327 101.566 61.2665V65.4551C101.566 65.7278 101.622 65.9942 101.734 66.2483C101.889 66.6324 102.137 66.9422 102.479 67.1653C102.845 67.3946 103.236 67.5123 103.639 67.5123C103.912 67.5123 104.179 67.4565 104.434 67.345C104.819 67.1901 105.129 66.936 105.352 66.5952C105.464 66.4218 105.551 66.2421 105.607 66.05C105.669 65.8579 105.7 65.6534 105.7 65.4551C105.7 65.2754 105.632 65.1205 105.507 64.9842C105.241 64.7178 104.812 64.724 104.558 64.9842C104.428 65.1143 104.359 65.2754 104.359 65.4489C104.359 65.5419 104.334 65.641 104.297 65.734C104.235 65.8827 104.148 65.988 104.037 66.0562C103.832 66.1925 103.546 66.2111 103.348 66.1181C103.217 66.0624 103.112 65.9756 103.031 65.8517C102.944 65.7278 102.901 65.5977 102.901 65.4489V61.2603C102.901 61.1611 102.919 61.0682 102.969 60.9753L102.957 60.9691Z" fill="#1F406B"/>
<path d="M109.747 59.3833C109.616 59.5134 109.554 59.6683 109.554 59.848V62.5868C109.554 62.6239 109.542 62.6363 109.536 62.6425C109.517 62.6611 109.505 62.6611 109.492 62.6611H107.922C107.922 62.6611 107.897 62.6611 107.879 62.6425C107.866 62.6301 107.86 62.6177 107.86 62.5868V59.848C107.86 59.6683 107.792 59.5134 107.661 59.3833C107.395 59.1231 106.966 59.1292 106.712 59.3833C106.582 59.5134 106.52 59.6683 106.52 59.848V66.8188C106.52 67.0047 106.588 67.1658 106.718 67.2959C106.973 67.5499 107.401 67.5561 107.668 67.2959C107.798 67.1658 107.866 67.0047 107.866 66.8188V64.0677C107.866 64.0305 107.879 64.0181 107.885 64.0119C107.897 63.9995 107.91 63.9933 107.928 63.9933H109.499C109.499 63.9933 109.523 63.9933 109.542 64.0119C109.554 64.0243 109.561 64.0367 109.561 64.0677V66.8188C109.561 67.0047 109.629 67.1658 109.753 67.2959C109.883 67.426 110.039 67.488 110.218 67.488C110.398 67.488 110.566 67.4198 110.696 67.2959C110.827 67.1658 110.895 67.0047 110.895 66.8188V59.848C110.895 59.6683 110.827 59.5072 110.696 59.3833C110.442 59.1292 110.014 59.1231 109.747 59.3833Z" fill="#1F406B"/>
<path d="M115.53 59.383C115.399 59.5131 115.337 59.668 115.337 59.8477V63.8567L113.326 59.5565C113.264 59.445 113.184 59.352 113.078 59.2901C112.973 59.2219 112.848 59.1847 112.724 59.1847C112.662 59.1847 112.613 59.1847 112.575 59.1971C112.426 59.2343 112.302 59.3087 112.209 59.4326C112.116 59.5503 112.066 59.6928 112.066 59.8415V66.8123C112.066 66.9982 112.135 67.1593 112.259 67.2894C112.519 67.5497 112.935 67.5435 113.19 67.2894C113.32 67.1593 113.382 66.9982 113.382 66.8123V62.8343L115.387 67.0912C115.443 67.2151 115.523 67.3142 115.635 67.3824C115.747 67.4505 115.865 67.4815 115.995 67.4815C116.014 67.4815 116.038 67.4815 116.069 67.4753C116.088 67.4753 116.101 67.4753 116.144 67.4691C116.299 67.4319 116.423 67.3514 116.523 67.2275C116.616 67.1035 116.665 66.961 116.665 66.8123V59.8415C116.665 59.6618 116.597 59.5069 116.467 59.3768C116.2 59.1166 115.79 59.1166 115.53 59.3768V59.383Z" fill="#1F406B"/>
<path d="M121.265 59.5687C120.893 59.3147 120.471 59.1846 120.005 59.1846C119.701 59.1846 119.409 59.2465 119.13 59.3581C118.72 59.5192 118.385 59.7918 118.137 60.1698C118.013 60.3495 117.914 60.5477 117.845 60.7584C117.777 60.9753 117.746 61.1922 117.746 61.4152V65.2383C117.746 65.5419 117.808 65.8331 117.92 66.112C118.007 66.3164 118.125 66.5023 118.261 66.6696C118.398 66.8307 118.559 66.9794 118.739 67.1034C119.124 67.3574 119.546 67.4875 119.999 67.4875C120.297 67.4875 120.595 67.4256 120.868 67.314C121.073 67.2273 121.259 67.1158 121.426 66.9794C121.594 66.8369 121.737 66.682 121.861 66.5023C122.115 66.1182 122.246 65.6968 122.246 65.2445V61.4214C122.246 61.1364 122.184 60.839 122.059 60.5477C121.898 60.145 121.625 59.8166 121.259 59.5687H121.265ZM120.918 61.4214V65.2445C120.918 65.3746 120.899 65.4923 120.849 65.5977C120.775 65.765 120.669 65.8951 120.514 65.9942C120.365 66.0996 120.198 66.1491 120.005 66.1491C119.875 66.1491 119.751 66.1244 119.645 66.081C119.478 66.0066 119.347 65.9013 119.248 65.7464C119.143 65.5977 119.093 65.4304 119.093 65.2383V61.4152C119.093 61.3595 119.093 61.2975 119.111 61.2355C119.124 61.1736 119.143 61.124 119.167 61.0682C119.236 60.8947 119.341 60.7584 119.484 60.6655C119.658 60.5601 119.831 60.5106 120.005 60.5106C120.117 60.5106 120.235 60.5354 120.359 60.5849C120.527 60.6593 120.657 60.7646 120.762 60.9195C120.868 61.062 120.918 61.2231 120.918 61.4152V61.4214Z" fill="#1F406B"/>
<path d="M126.087 66.1617H124.722C124.722 66.1617 124.678 66.1493 124.666 66.1431C124.647 66.1245 124.647 66.1121 124.647 66.0997V59.8601C124.647 59.6804 124.579 59.5255 124.455 59.3954C124.194 59.1351 123.785 59.1351 123.511 59.3954C123.375 59.5255 123.307 59.6804 123.307 59.8663V66.8371C123.307 67.023 123.375 67.1841 123.511 67.3142C123.648 67.4443 123.803 67.5063 123.983 67.5063H126.087C126.267 67.5063 126.422 67.4381 126.553 67.3142C126.683 67.1841 126.745 67.023 126.745 66.8371C126.745 66.6512 126.677 66.5025 126.553 66.3662C126.422 66.236 126.267 66.1679 126.087 66.1679V66.1617Z" fill="#1F406B"/>
<path d="M130.543 59.5687C130.171 59.3147 129.749 59.1846 129.284 59.1846C128.979 59.1846 128.688 59.2465 128.408 59.3581C127.999 59.5192 127.664 59.7918 127.415 60.1698C127.291 60.3495 127.192 60.5477 127.124 60.7584C127.055 60.9753 127.024 61.1922 127.024 61.4152V65.2383C127.024 65.5419 127.086 65.8331 127.198 66.112C127.285 66.3164 127.403 66.5023 127.54 66.6696C127.676 66.8307 127.837 66.9794 128.017 67.1034C128.402 67.3574 128.824 67.4875 129.277 67.4875C129.575 67.4875 129.873 67.4256 130.146 67.314C130.351 67.2273 130.537 67.1158 130.705 66.9794C130.872 66.8369 131.015 66.682 131.139 66.5023C131.394 66.1182 131.524 65.6968 131.524 65.2445V61.4214C131.524 61.1364 131.462 60.839 131.338 60.5477C131.176 60.145 130.903 59.8166 130.537 59.5687H130.543ZM130.196 61.4214V65.2445C130.196 65.3746 130.171 65.4923 130.128 65.5977C130.053 65.765 129.948 65.8951 129.792 65.9942C129.643 66.0996 129.476 66.1491 129.284 66.1491C129.153 66.1491 129.029 66.1244 128.924 66.081C128.756 66.0066 128.626 65.9013 128.526 65.7464C128.421 65.5977 128.371 65.4304 128.371 65.2383V61.4152C128.371 61.3595 128.371 61.2975 128.39 61.2355C128.402 61.1736 128.421 61.124 128.446 61.0682C128.514 60.8947 128.619 60.7584 128.762 60.6655C128.936 60.5601 129.11 60.5106 129.284 60.5106C129.395 60.5106 129.513 60.5354 129.637 60.5849C129.805 60.6593 129.935 60.7646 130.041 60.9195C130.146 61.062 130.196 61.2231 130.196 61.4152V61.4214Z" fill="#1F406B"/>
<path d="M133.969 61.0748C134.044 60.9013 134.149 60.765 134.298 60.6658C134.379 60.6162 134.459 60.5791 134.546 60.5481C134.726 60.4923 134.943 60.4923 135.161 60.5853C135.316 60.6534 135.452 60.765 135.57 60.9137C135.676 61.081 135.725 61.2545 135.725 61.4156C135.725 61.5952 135.794 61.7502 135.918 61.8865C136.172 62.1529 136.594 62.1529 136.855 61.8865C136.985 61.7502 137.054 61.5952 137.054 61.4156C137.054 61.1119 136.992 60.8207 136.88 60.5419C136.793 60.3374 136.681 60.1577 136.545 59.9904C136.408 59.8293 136.247 59.6868 136.067 59.5629C135.694 59.3088 135.272 59.1787 134.807 59.1787C134.497 59.1787 134.205 59.2407 133.944 59.3522C133.535 59.5133 133.199 59.7859 132.957 60.1639C132.821 60.3436 132.722 60.5419 132.659 60.7588C132.597 60.9756 132.566 61.1925 132.566 61.4156V65.2386C132.566 65.5423 132.628 65.8335 132.746 66.1061C132.833 66.3106 132.945 66.4965 133.088 66.6638C133.224 66.8249 133.386 66.9736 133.566 67.0975C133.957 67.3516 134.379 67.4817 134.826 67.4817C135.123 67.4817 135.421 67.4197 135.701 67.302C136.098 67.1223 136.433 66.8497 136.675 66.4903C136.936 66.1185 137.066 65.6972 137.066 65.2324V63.8445C137.066 63.6648 136.998 63.5099 136.874 63.386C136.743 63.2496 136.582 63.1815 136.396 63.1815H135.185C135.005 63.1815 134.85 63.2496 134.72 63.3798C134.59 63.5099 134.528 63.671 134.528 63.8507C134.528 64.0304 134.596 64.1977 134.72 64.3278C134.85 64.4579 135.005 64.5199 135.185 64.5199H135.657C135.694 64.5199 135.707 64.5323 135.713 64.5385C135.725 64.5509 135.732 64.5632 135.732 64.5818V65.2324C135.732 65.344 135.707 65.4617 135.657 65.5856C135.583 65.7529 135.477 65.8831 135.322 65.9822C135.173 66.0875 135.012 66.1371 134.826 66.1371C134.683 66.1371 134.559 66.1123 134.466 66.0689C134.31 66.0008 134.174 65.8892 134.056 65.7405C133.95 65.567 133.901 65.3997 133.901 65.2262V61.4032C133.901 61.2854 133.926 61.1677 133.975 61.0562L133.969 61.0748Z" fill="#1F406B"/>
<path d="M137.811 60.0455C137.848 60.3615 137.879 60.6589 137.923 60.9626C137.947 61.0245 137.966 61.1175 137.985 61.2414L138.121 62.208C138.196 62.7161 138.432 63.1436 138.823 63.4658C139.009 63.6331 139.232 63.7633 139.474 63.85C139.511 63.8686 139.524 63.8872 139.524 63.9244V66.818C139.524 67.0039 139.592 67.165 139.716 67.2951C139.84 67.4252 140.008 67.4934 140.194 67.4934C140.38 67.4934 140.529 67.4252 140.66 67.3013C140.79 67.1712 140.858 67.0101 140.858 66.8242V63.9429C140.858 63.9429 140.858 63.8934 140.902 63.8748C141.144 63.7942 141.367 63.6641 141.566 63.4906C141.746 63.3357 141.895 63.1498 142.013 62.933C142.13 62.7223 142.211 62.4868 142.248 62.2328L142.428 60.9564C142.472 60.6465 142.521 60.3119 142.571 59.9526C142.577 59.9154 142.584 59.8782 142.584 59.8534C142.584 59.7171 142.54 59.5808 142.447 59.4507C142.342 59.302 142.193 59.2152 141.988 59.1904H141.913C141.752 59.1904 141.603 59.2462 141.479 59.3515C141.355 59.4569 141.274 59.587 141.243 59.7605C141.243 59.7853 141.231 59.8782 141.206 60.0455L140.92 62.0531C140.902 62.2266 140.827 62.3691 140.691 62.4868C140.548 62.6108 140.393 62.6665 140.213 62.6665H140.157C139.983 62.6665 139.834 62.6108 139.691 62.4868C139.555 62.3815 139.474 62.239 139.443 62.0531L139.158 60.0455C139.133 59.8844 139.12 59.7915 139.12 59.7667C139.102 59.5994 139.027 59.4631 138.903 59.3577C138.779 59.2524 138.63 59.1966 138.456 59.1966H138.357C138.189 59.2276 138.047 59.3082 137.929 59.4569C137.842 59.5684 137.798 59.6923 137.792 59.8348L137.767 59.8658C137.73 59.9154 137.73 59.9835 137.774 60.0269C137.78 60.0331 137.786 60.0393 137.798 60.0455H137.811Z" fill="#1F406B"/>
<path d="M58.2094 60.535C58.2094 60.535 58.2342 60.5164 58.2652 60.5164H60.2637C60.4436 60.5164 60.605 60.4483 60.7353 60.3181C60.8657 60.188 60.9277 60.0269 60.9277 59.8472C60.9277 59.6675 60.8595 59.5064 60.7353 59.3825C60.605 59.2524 60.4498 59.1904 60.2699 59.1904H57.5391C57.3591 59.1904 57.2039 59.2586 57.0736 59.3825C56.9433 59.5126 56.875 59.6675 56.875 59.8472V66.818C56.875 67.0039 56.9433 67.165 57.0674 67.2951C57.1977 67.4252 57.3529 67.4872 57.5329 67.4872H60.2637C60.4436 67.4872 60.5988 67.419 60.7291 67.2951C60.8595 67.165 60.9277 67.0039 60.9277 66.818C60.9277 66.6321 60.8595 66.4834 60.7353 66.3471C60.605 66.217 60.4498 66.1488 60.2699 66.1488H58.2714C58.2714 66.1488 58.228 66.1364 58.2156 66.1302C58.1969 66.1116 58.1969 66.0992 58.1969 66.0868V64.0793C58.1969 64.0421 58.2094 64.0297 58.2156 64.0235C58.228 64.0111 58.2404 64.0049 58.2714 64.0049H59.7175C59.8975 64.0049 60.0588 63.9368 60.1892 63.8066C60.3195 63.6765 60.3878 63.5154 60.3878 63.3357C60.3878 63.156 60.3195 62.9887 60.1892 62.8586C60.0588 62.7285 59.8975 62.6665 59.7175 62.6665H58.2714C58.2342 62.6665 58.2218 62.6541 58.2094 62.6479C58.2094 62.6479 58.1969 62.6355 58.1969 62.6046V60.5908C58.1969 60.5908 58.2032 60.5474 58.2156 60.5412L58.2094 60.535Z" fill="#1F406B"/>
<path d="M88.0171 18.4753C85.4539 12.8615 79.8434 9.26149 73.6619 9.26149H59.2446V9.31726C55.9676 9.58989 53.1314 10.8539 50.7233 13.1156C47.9925 15.687 46.6271 18.7851 46.6271 22.4037L46.5961 34.2943C46.5961 35.893 45.2928 37.188 43.6853 37.188H24.6133V49.5619H45.6155C49.4634 49.5619 52.759 48.2792 55.4898 45.7078C58.2205 43.1364 59.5859 40.0444 59.5859 36.4196H59.6232V26.171C59.6232 23.6678 61.6589 21.6354 64.1662 21.6354H70.5215C72.6006 21.6354 74.4997 22.8375 75.381 24.7211L82.1025 39.0468C85.2057 46.0548 88.6253 49.5619 92.3491 49.5619H96.0729C99.7967 49.5619 103.216 46.0548 106.32 39.0468L114.487 21.6354H122.493V36.4196H122.531C122.531 40.0444 123.896 43.1364 126.627 45.7078C129.357 48.2792 132.653 49.5619 136.501 49.5619H142.987V37.2933H136.501C135.855 37.2933 135.533 37.0021 135.533 36.4196V21.6354H138.046V21.5239H142.98V9.26149H135.527V0.5H122.487V9.26149H108.088C105.873 9.26149 103.868 10.5565 102.956 12.5765L94.1986 32.0389L87.9985 18.4691L88.0171 18.4753Z" fill="#1F406B"/>
<path d="M29.5044 36.4199C29.5044 40.0447 27.6549 43.1366 24.9241 45.708C22.1933 48.2795 18.8978 49.5621 15.0498 49.5621H0.148438V37.1882H13.1197C14.7209 37.1882 16.0242 35.8932 16.0304 34.2946L16.0615 22.404C16.0615 18.7853 17.4269 15.6872 20.1576 13.1158C22.5657 10.8542 25.402 9.59012 28.6789 9.31748V9.26172H45.6781V21.6356H33.3895C31.2483 21.6356 29.5106 23.3706 29.5106 25.5083V36.4199H29.5044Z" fill="#E61C2F"/>
</g>
<defs>
<clipPath id="clip0_9785_105474">
<rect width="143" height="67" fill="white" transform="translate(0 0.5)"/>
</clipPath>
</defs>
</svg>
