<svg width="80" height="28" viewBox="0 0 80 28" fill="none" xmlns="http://www.w3.org/2000/svg">
<g clip-path="url(#clip0_9762_118521)">
<path d="M49.2126 10.0476C47.7757 6.90934 44.6334 4.89656 41.1737 4.89656H33.102V4.92918C31.269 5.07924 29.6782 5.78714 28.3297 7.05287C26.7978 8.4915 26.0352 10.2205 26.0352 12.2463L26.0188 18.8914C26.0188 19.7852 25.2889 20.5094 24.3888 20.5094H13.7051V27.4286H25.4689C27.6259 27.4286 29.4688 26.7109 30.9973 25.2723C32.5259 23.8369 33.2918 22.1047 33.2918 20.0788H33.3115V14.3472C33.3115 12.9477 34.4505 11.8124 35.8547 11.8124H39.4127C40.578 11.8124 41.6385 12.4844 42.1327 13.5381L45.8969 21.5468C47.635 25.4647 49.5498 27.4253 51.6348 27.4253H53.7231C55.8114 27.4253 57.7229 25.4647 59.461 21.5468L64.0336 11.8124H68.5179V20.0788H68.5375C68.5375 22.1047 69.3035 23.8336 70.832 25.2723C72.3606 26.7109 74.2067 27.4286 76.3605 27.4286H79.9904V20.5714H76.3605C75.9971 20.5714 75.8171 20.4083 75.8171 20.0821V11.8157H77.2246V11.7537H79.9904V4.89656H75.8171V0H68.5146V4.89656H60.4528C59.2122 4.89656 58.0862 5.62077 57.5789 6.74949L52.6757 17.6322L49.2028 10.0476H49.2126Z" fill="#253A68"/>
<path d="M16.4412 20.0822C16.4412 22.108 15.4069 23.837 13.8783 25.2756C12.3465 26.7142 10.5037 27.4319 8.3499 27.4319H0V20.5128H7.26648C8.16333 20.5128 8.89325 19.7886 8.89653 18.8947L8.91289 12.2496C8.91289 10.2238 9.67882 8.49485 11.2074 7.05622C12.556 5.79048 14.1467 5.08585 15.9797 4.93252V4.8999H25.4981V11.819H18.6146C17.4166 11.819 16.4412 12.7879 16.4412 13.9851V20.0854V20.0822Z" fill="#E61C2F"/>
</g>
<defs>
<clipPath id="clip0_9762_118521">
<rect width="80" height="27.4286" fill="white"/>
</clipPath>
</defs>
</svg>
