<svg width="320" height="15" viewBox="0 0 320 15" fill="none" xmlns="http://www.w3.org/2000/svg">
<g clip-path="url(#clip0_917_320176)">
<path d="M26.4642 5.62933C25.6942 4.02741 24.0086 3.00013 22.1515 3.00013H17.8202V3.01604C16.8357 3.09384 15.9836 3.45453 15.2602 4.0999C14.4398 4.83367 14.0296 5.71773 14.0296 6.75032L14.0202 10.1433C14.0202 10.5995 13.6287 10.9691 13.1458 10.9691H7.41602V14.5H13.7256C14.8817 14.5 15.8717 14.134 16.6921 13.4002C17.5125 12.6665 17.9227 11.7842 17.9227 10.7498H17.9339V7.82533C17.9339 7.11101 18.5455 6.53107 19.2988 6.53107H21.2081C21.8327 6.53107 22.4033 6.87408 22.668 7.41159L24.6873 11.4995C25.6196 13.4992 26.647 14.5 27.7657 14.5H28.8844C30.0032 14.5 31.0305 13.4992 31.9628 11.4995L34.4165 6.53107H36.8218V10.7498H36.833C36.833 11.7842 37.2432 12.6665 38.0636 13.4002C38.884 14.134 39.8741 14.5 41.0301 14.5H42.9785V10.9991H41.0301C40.8362 10.9991 40.7392 10.916 40.7392 10.7498V6.53107H41.4944V6.49924H42.9767V3.00013H40.7374V0.5H36.8199V3.00013H32.4942C31.8285 3.00013 31.2263 3.36966 30.9522 3.94607L28.3213 9.49975L26.4586 5.62756L26.4642 5.62933Z" fill="white"/>
<path d="M8.88523 10.7497C8.88523 11.784 8.3296 12.6663 7.50919 13.4001C6.68879 14.1339 5.69872 14.4999 4.5427 14.4999H0.065918V10.9689H3.96282C4.44388 10.9689 4.83543 10.5994 4.8373 10.1432L4.84662 6.75019C4.84662 5.71761 5.25682 4.83354 6.07722 4.09977C6.80067 3.45441 7.65276 3.09371 8.63725 3.01591V3H13.7442V6.53094H10.0524C9.40917 6.53094 8.88709 7.02602 8.88709 7.63602V10.7497H8.88523Z" fill="white"/>
</g>
<g clip-path="url(#clip1_917_320176)">
<path d="M113.333 2.40698C113.333 1.35378 112.424 0.5 111.302 0.5C110.181 0.5 109.271 1.35378 109.271 2.40698V12.5882C109.271 13.6414 110.181 14.4952 111.302 14.4952C112.424 14.4952 113.333 13.6414 113.333 12.5882V2.40698Z" fill="white"/>
<path d="M66.6052 0.513672C63.7581 0.513672 61.4408 2.63343 61.3386 5.28273H61.3335V12.5779C61.3335 13.6386 62.2485 14.4977 63.3781 14.4977C64.5078 14.4977 65.4228 13.6386 65.4228 12.5779V5.4891C65.4228 4.88117 65.9458 4.37083 66.6137 4.37083C67.2817 4.37083 67.7792 4.86037 67.7792 5.46511C67.7792 5.92265 67.481 6.31301 67.0567 6.47779C66.2713 6.74976 65.709 7.45688 65.709 8.28878C65.709 9.35426 66.6291 10.2198 67.7656 10.2198C68.1097 10.2198 68.4335 10.1398 68.718 9.99899V10.0022C70.5769 9.23747 71.8753 7.49367 71.8753 5.46671C71.8787 2.73102 69.5171 0.513672 66.6052 0.513672Z" fill="white"/>
<path d="M78.7248 0.526274C75.7498 0.326297 73.2707 2.53244 73.2707 5.28253C73.2707 5.28253 73.2707 5.28413 73.2707 5.28573H73.2622V12.6273C73.2622 13.6608 74.155 14.4991 75.2557 14.4991C76.3564 14.4991 77.2492 13.6608 77.2492 12.6273V10.3572C77.2492 10.3572 77.2509 10.3524 77.2543 10.3524C78.125 10.3076 78.8168 9.63083 78.8168 8.80213C78.8168 7.97342 78.125 7.2983 77.2543 7.25191C77.2509 7.25191 77.2492 7.25031 77.2492 7.24711V5.38652L77.2578 5.38332C77.2578 4.80738 77.7621 4.34344 78.3789 4.35784C78.9957 4.37223 79.4421 4.86658 79.4421 5.42971V12.6241C79.4421 13.6576 80.3349 14.4959 81.4356 14.4959C82.5363 14.4959 83.4291 13.6576 83.4291 12.6241V5.38172C83.4291 2.86681 81.3964 0.707054 78.7248 0.526274Z" fill="white"/>
<path d="M95.329 5.28273C95.329 2.64943 93.0561 0.513672 90.2498 0.513672C87.4436 0.513672 85.1706 2.64943 85.1706 5.28273H85.1655V12.6243C85.1655 13.6578 86.0584 14.4961 87.159 14.4961C88.2597 14.4961 89.1526 13.6578 89.1526 12.6243V5.38032C89.1526 4.81398 89.6416 4.35483 90.2447 4.35483C90.8479 4.35483 91.3369 4.81398 91.3369 5.38032V12.6243C91.3369 13.6578 92.2297 14.4961 93.3304 14.4961C94.4311 14.4961 95.3239 13.6578 95.3239 12.6243V5.41871C95.3239 5.37392 95.3273 5.32912 95.3273 5.28433L95.329 5.28273Z" fill="white"/>
<path d="M107.533 11.8163C107.518 11.7779 106.417 9.11261 105.605 7.14484C105.467 6.80888 105.491 6.43292 105.669 6.11456L107.174 3.44606C107.436 3.05411 107.556 2.57096 107.452 2.05582C107.291 1.26071 106.593 0.633583 105.739 0.519996C104.765 0.390411 103.899 0.903952 103.552 1.67506L101.446 5.40744C101.258 5.7402 101.151 6.10176 101.124 6.46812V2.41258C101.124 1.3599 100.214 0.505598 99.0925 0.505598C97.9714 0.505598 97.0615 1.3599 97.0615 2.41258V12.5938C97.0615 13.6465 97.9714 14.5008 99.0925 14.5008C100.214 14.5008 101.124 13.6465 101.124 12.5938V6.82968C101.142 7.09524 101.202 7.36081 101.306 7.61519L103.632 13.2737L103.638 13.2705C104.069 14.2592 105.266 14.7488 106.332 14.3616C107.412 13.9697 107.951 12.8306 107.533 11.8163Z" fill="white"/>
</g>
<g clip-path="url(#clip2_917_320176)">
<path d="M131.667 7.45177C131.667 3.69007 133.757 1.5 136.792 1.5C139.827 1.5 141.918 3.70142 141.918 7.45177C141.918 11.2021 139.827 13.5 136.792 13.5C133.757 13.5 131.667 11.2021 131.667 7.45177ZM139.574 7.45177C139.574 4.96667 138.489 3.48014 136.786 3.48014C135.084 3.48014 133.999 4.96667 133.999 7.45177C133.999 9.93688 135.084 11.4972 136.786 11.4972C138.489 11.4972 139.574 9.91986 139.574 7.45177Z" fill="white"/>
<path d="M143.042 7.54823C143.042 3.73546 145.476 1.5 148.37 1.5C149.826 1.5 150.983 2.20355 151.731 2.98652L150.539 4.45603C149.949 3.89433 149.286 3.48582 148.421 3.48582C146.689 3.48582 145.386 4.98369 145.386 7.46879C145.386 9.9539 146.56 11.5028 148.376 11.5028C149.365 11.5028 150.123 11.0319 150.742 10.3624L151.95 11.7979C151.006 12.9099 149.781 13.5 148.297 13.5C145.402 13.5 143.048 11.4064 143.048 7.54823H143.042Z" fill="white"/>
<path d="M153.242 1.70508H160.268V3.63983H155.53V6.31217H159.554V8.2526H155.53V11.3448H160.436V13.2852H153.237V1.70508H153.242Z" fill="white"/>
<path d="M164.421 1.70508H167.113L170.8 13.2852H168.4L167.596 10.3178H163.881L163.077 13.2852H160.756L164.421 1.70508ZM164.376 8.51926H167.102L166.759 7.25401C166.405 6.05118 166.096 4.72352 165.77 3.46962H165.691C165.399 4.73487 165.056 6.0455 164.713 7.25401L164.37 8.51926H164.376Z" fill="white"/>
<path d="M171.598 1.70508H173.936L177.263 7.87813L178.409 10.3803H178.488C178.381 9.17742 178.196 7.6455 178.196 6.33487V1.70508H180.365V13.2852H178.044L174.734 7.09515L173.57 4.61004H173.492C173.598 5.85827 173.773 7.31075 173.773 8.64409V13.2852H171.603V1.70508H171.598Z" fill="white"/>
<path d="M181.169 1.70508H183.569L185.086 7.34479C185.44 8.62706 185.688 9.78451 186.047 11.0781H186.126C186.497 9.77884 186.744 8.62706 187.104 7.34479L188.582 1.70508H190.903L187.407 13.2852H184.665L181.169 1.70508Z" fill="white"/>
<path d="M191.673 1.70508H193.966V13.2852H191.673V1.70508Z" fill="white"/>
<path d="M196.242 1.70508H203.268V3.63983H198.53V6.31217H202.554V8.2526H198.53V11.3448H203.436V13.2852H196.237V1.70508H196.242Z" fill="white"/>
<path d="M204.105 1.70508H206.426L207.337 7.36182C207.505 8.58167 207.691 9.80153 207.865 11.0498H207.927C208.157 9.80153 208.404 8.56465 208.652 7.36182L209.984 1.70508H211.951L213.266 7.36182C213.513 8.54763 213.744 9.80153 213.991 11.0498H214.07C214.238 9.80153 214.412 8.56465 214.581 7.36182L215.491 1.70508H217.661L215.542 13.2852H212.693L211.406 7.56607C211.22 6.65827 211.052 5.76749 210.911 4.87671H210.849C210.692 5.76749 210.54 6.65827 210.355 7.56607L209.101 13.2852H206.302L204.105 1.70508Z" fill="white"/>
</g>
<g clip-path="url(#clip3_917_320176)">
<path d="M257.958 2.43909C257.958 1.36816 257.053 0.5 255.936 0.5C254.819 0.5 253.914 1.36816 253.914 2.43909V12.5609C253.914 13.6318 254.819 14.5 255.936 14.5C257.053 14.5 257.958 13.6318 257.958 12.5609V2.43909Z" fill="white"/>
<path d="M268.818 10.6218H263.781V2.43909C263.787 1.37025 262.88 0.5 261.765 0.5C260.65 0.5 259.743 1.37025 259.743 2.43909V12.5609C259.743 13.6297 260.65 14.5 261.765 14.5H268.818C269.933 14.5 270.84 13.6297 270.84 12.5609C270.84 11.4921 269.933 10.6218 268.818 10.6218Z" fill="white"/>
<path d="M305.065 5.78577H300.479V5.77409C300.479 5.00313 301.13 4.37234 301.941 4.37234H305.083C306.198 4.37234 307.106 3.50209 307.106 2.43325C307.106 1.36441 306.192 0.5 305.077 0.5H301.965C298.907 0.5 296.434 2.87714 296.434 5.8033V7.25761C296.434 8.33813 297.348 9.20839 298.469 9.20839H303.055V9.22007C303.055 9.99103 302.403 10.6218 301.593 10.6218H298.45C297.336 10.6218 296.428 11.4921 296.428 12.5609C296.428 13.6297 297.336 14.5 298.45 14.5H301.74C304.7 14.5 307.1 12.1988 307.1 9.36024V7.74239C307.1 6.66187 306.186 5.79161 305.065 5.79161V5.78577Z" fill="white"/>
<path d="M317.96 5.78577H313.373V5.77409C313.373 5.00313 314.025 4.37234 314.835 4.37234H317.978C319.093 4.37234 320 3.50209 320 2.43325C320 1.36441 319.093 0.5 317.978 0.5H314.866C311.808 0.5 309.329 2.87714 309.329 5.8033V7.25761C309.329 8.33813 310.242 9.20839 311.363 9.20839H315.95V9.22007C315.95 9.99103 315.298 10.6218 314.488 10.6218H311.345C310.23 10.6218 309.323 11.4921 309.323 12.5609C309.323 13.6297 310.23 14.5 311.345 14.5H314.634C317.594 14.5 319.994 12.1988 319.994 9.36024V7.74239C319.994 6.66187 319.08 5.79161 317.96 5.79161V5.78577Z" fill="white"/>
<path d="M245.209 0.5H238.095C236.938 0.5 236 1.39946 236 2.50918C236 3.6189 236.938 4.51836 238.095 4.51836H238.522C238.107 5.38861 237.87 6.34648 237.87 7.36275C237.87 11.1533 241.074 14.2255 245.027 14.2255C248.98 14.2255 252.184 11.1533 252.184 7.36275C252.184 3.57217 249.077 0.59345 245.209 0.5ZM245.033 10.2071C243.394 10.2071 242.067 8.93388 242.067 7.36275C242.067 5.79162 243.394 4.51836 245.033 4.51836C246.671 4.51836 247.999 5.79162 247.999 7.36275C247.999 8.93388 246.671 10.2071 245.033 10.2071Z" fill="white"/>
<path d="M276.98 0.5H273.228V0.511681C272.174 0.581769 271.346 1.41114 271.346 2.43909V12.5609C271.346 13.6297 272.253 14.5 273.368 14.5C274.483 14.5 275.39 13.6297 275.39 12.5609V10.8496H276.986C279.964 10.8496 282.382 8.53087 282.382 5.6748C282.382 2.81873 279.964 0.5 276.98 0.5ZM276.98 7.38611H275.384V3.9635H276.98C277.967 3.9635 278.764 4.72862 278.764 5.6748C278.764 6.62098 277.967 7.38611 276.98 7.38611Z" fill="white"/>
<path d="M294.826 8.33229C294.735 3.9927 291.044 0.5 286.494 0.5H285.69C284.575 0.5 283.667 1.37025 283.667 2.43909V12.5609C283.667 13.6297 284.575 14.5 285.69 14.5C286.804 14.5 287.712 13.6297 287.712 12.5609V10.9956H291.007V12.6602C291.007 13.6765 291.866 14.5 292.926 14.5C293.986 14.5 294.844 13.6765 294.844 12.6602V8.33229H294.838H294.826ZM287.712 7.11744V4.51252C289.07 4.85711 290.16 5.84418 290.593 7.11744H287.712Z" fill="white"/>
</g>
<defs>
<clipPath id="clip0_917_320176">
<rect width="43" height="14" fill="white" transform="translate(0 0.5)"/>
</clipPath>
<clipPath id="clip1_917_320176">
<rect width="52" height="14" fill="white" transform="translate(61.3335 0.5)"/>
</clipPath>
<clipPath id="clip2_917_320176">
<rect width="86" height="12" fill="white" transform="translate(131.667 1.5)"/>
</clipPath>
<clipPath id="clip3_917_320176">
<rect width="84" height="14" fill="white" transform="translate(236 0.5)"/>
</clipPath>
</defs>
</svg>
