<svg width="266" height="208" viewBox="0 0 266 208" fill="none" xmlns="http://www.w3.org/2000/svg">
<g style="mix-blend-mode:multiply">
<path opacity="0.05" d="M143.744 133.762L92.8566 159.197C90.6546 160.296 87.0863 160.296 84.8865 159.197L72.3927 152.951C70.1907 151.852 70.1907 150.066 72.3927 148.967L123.28 123.532C125.482 122.432 129.051 122.432 131.251 123.532L143.744 129.777C145.946 130.877 145.946 132.662 143.744 133.762Z" fill="#B4C1F3"/>
<path opacity="0.1" d="M144.474 133.402L93.5861 158.837C91.3841 159.937 87.8158 159.937 85.616 158.837L73.1222 152.591C70.9202 151.492 70.9202 149.707 73.1222 148.607L124.01 123.172C126.212 122.073 129.78 122.073 131.98 123.172L144.474 129.418C146.676 130.517 146.676 132.303 144.474 133.402Z" fill="#B4C1F3"/>
<path opacity="0.14" d="M145.2 133.035L94.3127 158.47C92.1107 159.569 88.5423 159.569 86.3426 158.47L73.8488 152.224C71.6468 151.125 71.6468 149.339 73.8488 148.24L124.736 122.805C126.938 121.706 130.507 121.706 132.707 122.805L145.2 129.051C147.402 130.15 147.402 131.936 145.2 133.035Z" fill="#B4C1F3"/>
<path opacity="0.19" d="M145.93 132.672L95.0422 158.107C92.8402 159.206 89.2718 159.206 87.0721 158.107L74.5783 151.861C72.3763 150.762 72.3763 148.976 74.5783 147.877L125.466 122.442C127.668 121.342 131.236 121.342 133.436 122.442L145.93 128.688C148.132 129.787 148.132 131.572 145.93 132.672Z" fill="#B4C1F3"/>
<path opacity="0.24" d="M146.657 132.308L95.7697 157.744C93.5677 158.843 89.9994 158.843 87.7996 157.744L75.3058 151.498C73.1038 150.398 73.1038 148.613 75.3058 147.514L126.193 122.078C128.395 120.979 131.964 120.979 134.164 122.078L146.657 128.324C148.859 129.424 148.859 131.209 146.657 132.308Z" fill="#B4C1F3"/>
<path opacity="0.29" d="M147.387 131.941L96.4992 157.376C94.2972 158.476 90.7288 158.476 88.5291 157.376L76.0353 151.131C73.8333 150.031 73.8333 148.246 76.0353 147.146L126.923 121.711C129.125 120.612 132.693 120.612 134.893 121.711L147.387 127.957C149.589 129.056 149.589 130.842 147.387 131.941Z" fill="#B4C1F3"/>
<path opacity="0.33" d="M148.114 131.582L97.2268 157.017C95.0248 158.116 91.4564 158.116 89.2566 157.017L76.7628 150.771C74.5608 149.672 74.5608 147.886 76.7628 146.787L127.651 121.352C129.853 120.253 133.421 120.253 135.621 121.352L148.114 127.598C150.316 128.697 150.316 130.483 148.114 131.582Z" fill="#B4C1F3"/>
<path opacity="0.38" d="M148.842 131.219L97.9543 156.654C95.7523 157.753 92.1839 157.753 89.9842 156.654L77.4904 150.408C75.2884 149.309 75.2884 147.523 77.4904 146.424L128.378 120.989C130.58 119.889 134.148 119.889 136.348 120.989L148.842 127.234C151.044 128.334 151.044 130.119 148.842 131.219Z" fill="#B4C1F3"/>
<path opacity="0.43" d="M149.57 130.851L98.6828 156.287C96.4808 157.386 92.9124 157.386 90.7127 156.287L78.2189 150.041C76.0169 148.941 76.0169 147.156 78.2189 146.057L129.107 120.621C131.309 119.522 134.877 119.522 137.077 120.621L149.57 126.867C151.772 127.967 151.772 129.752 149.57 130.851Z" fill="#B4C1F3"/>
<path opacity="0.48" d="M150.298 130.484L99.4104 155.919C97.2084 157.019 93.64 157.019 91.4402 155.919L78.9464 149.673C76.7444 148.574 76.7444 146.789 78.9464 145.689L129.834 120.254C132.036 119.155 135.604 119.155 137.804 120.254L150.298 126.5C152.5 127.599 152.5 129.385 150.298 130.484Z" fill="#B4C1F3"/>
<path opacity="0.52" d="M151.028 130.121L100.14 155.556C97.9378 156.655 94.3695 156.655 92.1697 155.556L79.6759 149.31C77.4739 148.211 77.4739 146.425 79.6759 145.326L130.564 119.891C132.766 118.792 136.334 118.792 138.534 119.891L151.028 126.137C153.23 127.236 153.23 129.022 151.028 130.121Z" fill="#B4C1F3"/>
<path opacity="0.57" d="M151.755 129.758L100.867 155.193C98.6654 156.292 95.097 156.292 92.8973 155.193L80.4035 148.947C78.2015 147.848 78.2015 146.062 80.4035 144.963L131.291 119.528C133.493 118.428 137.061 118.428 139.261 119.528L151.755 125.774C153.957 126.873 153.957 128.658 151.755 129.758Z" fill="#B4C1F3"/>
<path opacity="0.62" d="M152.484 129.39L101.596 154.826C99.3939 155.925 95.8255 155.925 93.6258 154.826L81.132 148.58C78.93 147.48 78.93 145.695 81.132 144.596L132.02 119.16C134.222 118.061 137.79 118.061 139.99 119.16L152.484 125.406C154.686 126.506 154.686 128.291 152.484 129.39Z" fill="#B4C1F3"/>
<path opacity="0.67" d="M153.211 129.031L102.323 154.466C100.121 155.566 96.5531 155.566 94.3533 154.466L81.8595 148.22C79.6575 147.121 79.6575 145.336 81.8595 144.236L132.747 118.801C134.949 117.702 138.518 117.702 140.717 118.801L153.211 125.047C155.413 126.146 155.413 127.932 153.211 129.031Z" fill="#B4C1F3"/>
<path opacity="0.71" d="M153.939 128.668L103.051 154.103C100.849 155.202 97.2806 155.202 95.0809 154.103L82.587 147.857C80.385 146.758 80.385 144.972 82.587 143.873L133.475 118.438C135.677 117.338 139.245 117.338 141.445 118.438L153.939 124.684C156.141 125.783 156.141 127.569 153.939 128.668Z" fill="#B4C1F3"/>
<path opacity="0.76" d="M154.668 128.301L103.78 153.736C101.578 154.835 98.0101 154.835 95.8104 153.736L83.3165 147.49C81.1145 146.391 81.1145 144.605 83.3165 143.506L134.204 118.071C136.406 116.971 139.975 116.971 142.174 118.071L154.668 124.317C156.87 125.416 156.87 127.201 154.668 128.301Z" fill="#B4C1F3"/>
<path opacity="0.81" d="M155.396 127.937L104.508 153.373C102.306 154.472 98.7376 154.472 96.5379 153.373L84.0441 147.127C81.8421 146.027 81.8421 144.242 84.0441 143.142L134.932 117.707C137.134 116.608 140.702 116.608 142.902 117.707L155.396 123.953C157.598 125.053 157.598 126.838 155.396 127.937Z" fill="#B4C1F3"/>
<path opacity="0.86" d="M156.125 127.57L105.237 153.005C103.035 154.105 99.4671 154.105 97.2674 153.005L84.7736 146.759C82.5716 145.66 82.5716 143.875 84.7736 142.775L135.661 117.34C137.863 116.241 141.432 116.241 143.631 117.34L156.125 123.586C158.327 124.685 158.327 126.471 156.125 127.57Z" fill="#B4C1F3"/>
<path opacity="0.9" d="M156.852 127.211L105.964 152.646C103.762 153.745 100.194 153.745 97.9939 152.646L85.5001 146.4C83.2981 145.301 83.2981 143.515 85.5001 142.416L136.388 116.981C138.59 115.881 142.158 115.881 144.358 116.981L156.852 123.227C159.054 124.326 159.054 126.111 156.852 127.211Z" fill="#B4C1F3"/>
<path opacity="0.95" d="M157.582 126.844L106.695 152.279C104.493 153.378 100.924 153.378 98.7244 152.279L86.2306 146.033C84.0286 144.934 84.0286 143.148 86.2306 142.049L137.118 116.614C139.32 115.514 142.889 115.514 145.088 116.614L157.582 122.859C159.784 123.959 159.784 125.744 157.582 126.844Z" fill="#B4C1F3"/>
<path d="M158.309 126.48L107.421 151.916C105.219 153.015 101.651 153.015 99.451 151.916L86.9572 145.67C84.7552 144.57 84.7552 142.785 86.9572 141.685L137.845 116.25C140.047 115.151 143.615 115.151 145.815 116.25L158.309 122.496C160.511 123.595 160.511 125.381 158.309 126.48Z" fill="#B4C1F3"/>
</g>
<path d="M90.7157 29.7035L133.647 8.24337C135.291 7.42172 136.759 7.42172 137.753 8.0831C137.755 8.0831 143.959 11.1824 143.959 11.1824C144.144 11.2523 144.318 11.3381 144.481 11.4442L144.508 11.4578C145.321 11.9973 145.815 12.9792 145.815 14.3245V111.648C145.815 114.632 143.394 118.264 140.409 119.756L97.4775 141.216C95.8604 142.024 94.415 142.035 93.4236 141.406C93.4145 141.41 87.0547 138.23 87.0547 138.23C86.9463 138.185 86.8424 138.133 86.743 138.074L86.6617 138.033C85.8238 137.498 85.3066 136.507 85.3066 135.133V37.8117C85.3066 34.8275 87.7277 31.1978 90.7134 29.7035H90.7157Z" fill="url(#paint0_linear_845_298428)"/>
<path d="M140.406 119.757L97.4751 141.217C94.4894 142.709 92.0684 141.499 92.0684 138.515V41.1917C92.0684 38.2076 94.4894 34.5778 97.4751 33.0835L140.406 11.6234C143.392 10.1313 145.813 11.3412 145.813 14.3254V111.649C145.813 114.633 143.392 118.263 140.406 119.757Z" fill="url(#paint1_linear_845_298428)"/>
<path d="M153.927 126.515L110.996 147.975C108.01 149.467 105.589 148.257 105.589 145.273V47.9495C105.589 44.9654 108.01 41.3356 110.996 39.8413L153.927 18.3812C156.912 16.8891 159.333 18.099 159.333 21.0832V118.406C159.333 121.391 156.912 125.02 153.927 126.515Z" fill="url(#paint2_linear_845_298428)" fill-opacity="0.7" style="mix-blend-mode:hard-light"/>
<path d="M98.8271 44.5695V141.893C98.8271 143.267 99.3443 144.258 100.182 144.793L100.264 144.834C100.363 144.893 100.467 144.945 100.575 144.99C100.575 144.99 106.935 148.168 106.944 148.166C106.104 147.633 105.589 146.642 105.589 145.274V47.9487C105.589 44.9645 108.01 41.3325 110.996 39.8405L153.927 18.3804C155.286 17.7009 156.526 17.5858 157.477 17.9402C157.477 17.9402 151.273 14.8387 151.271 14.8409C150.279 14.1795 148.809 14.1795 147.165 15.0012L104.234 36.4613C101.248 37.9534 98.8271 41.5831 98.8271 44.5695Z" fill="url(#paint3_linear_845_298428)"/>
<g style="mix-blend-mode:multiply">
<path opacity="0.05" d="M150.24 91.4289C152.199 88.9202 152.548 85.9187 151.018 84.725C149.488 83.5313 146.659 84.5973 144.7 87.106C142.74 89.6147 142.392 92.6162 143.921 93.8099C145.451 95.0036 148.28 93.9376 150.24 91.4289Z" fill="#A7B1F2"/>
<path opacity="0.1" d="M150.24 90.9484C152.2 88.4397 152.549 85.4383 151.019 84.2445C149.489 83.0508 146.66 84.1168 144.701 86.6255C142.741 89.1342 142.392 92.1357 143.922 93.3294C145.452 94.5232 148.281 93.4572 150.24 90.9484Z" fill="#A7B1F2"/>
<path opacity="0.14" d="M150.241 90.468C152.201 87.9592 152.55 84.9578 151.02 83.7641C149.49 82.5703 146.661 83.6363 144.702 86.1451C142.742 88.6538 142.393 91.6552 143.923 92.849C145.453 94.0427 148.282 92.9767 150.241 90.468Z" fill="#A7B1F2"/>
<path opacity="0.19" d="M150.24 89.9875C152.199 87.4788 152.548 84.4773 151.018 83.2836C149.488 82.0899 146.659 83.1559 144.7 85.6646C142.74 88.1733 142.392 91.1747 143.921 92.3685C145.451 93.5622 148.28 92.4962 150.24 89.9875Z" fill="#A7B1F2"/>
<path opacity="0.24" d="M150.24 89.4992C152.2 86.9905 152.549 83.9891 151.019 82.7953C149.489 81.6016 146.66 82.6676 144.701 85.1763C142.741 87.685 142.392 90.6865 143.922 91.8802C145.452 93.0739 148.281 92.0079 150.24 89.4992Z" fill="#A7B1F2"/>
<path opacity="0.29" d="M150.239 89.0187C152.198 86.51 152.547 83.5086 151.017 82.3148C149.487 81.1211 146.658 82.1871 144.699 84.6958C142.739 87.2046 142.391 90.206 143.92 91.3997C145.45 92.5935 148.279 91.5275 150.239 89.0187Z" fill="#A7B1F2"/>
<path opacity="0.33" d="M150.241 88.5383C152.201 86.0295 152.55 83.0281 151.02 81.8344C149.49 80.6406 146.661 81.7066 144.702 84.2154C142.742 86.7241 142.393 89.7255 143.923 90.9193C145.453 92.113 148.282 91.047 150.241 88.5383Z" fill="#A7B1F2"/>
<path opacity="0.38" d="M150.24 88.0578C152.199 85.5491 152.548 82.5476 151.018 81.3539C149.488 80.1602 146.659 81.2262 144.7 83.7349C142.74 86.2436 142.392 89.2451 143.921 90.4388C145.451 91.6325 148.28 90.5665 150.24 88.0578Z" fill="#A7B1F2"/>
<path opacity="0.43" d="M150.24 87.5734C152.2 85.0647 152.549 82.0633 151.019 80.8695C149.489 79.6758 146.66 80.7418 144.701 83.2505C142.741 85.7592 142.392 88.7607 143.922 89.9544C145.452 91.1482 148.281 90.0822 150.24 87.5734Z" fill="#A7B1F2"/>
<path opacity="0.48" d="M150.24 87.089C152.199 84.5803 152.548 81.5789 151.018 80.3852C149.488 79.1914 146.659 80.2574 144.7 82.7661C142.74 85.2749 142.392 88.2763 143.921 89.47C145.451 90.6638 148.28 89.5978 150.24 87.089Z" fill="#A7B1F2"/>
<path opacity="0.52" d="M150.24 86.6008C152.199 84.092 152.548 81.0906 151.018 79.8969C149.488 78.7031 146.659 79.7691 144.7 82.2779C142.74 84.7866 142.392 87.788 143.921 88.9818C145.451 90.1755 148.28 89.1095 150.24 86.6008Z" fill="#A7B1F2"/>
<path opacity="0.57" d="M150.24 86.1281C152.199 83.6194 152.548 80.618 151.018 79.4242C149.488 78.2305 146.659 79.2965 144.7 81.8052C142.74 84.3139 142.392 87.3154 143.921 88.5091C145.451 89.7028 148.28 88.6368 150.24 86.1281Z" fill="#A7B1F2"/>
<path opacity="0.62" d="M150.24 85.6398C152.2 83.1311 152.549 80.1297 151.019 78.9359C149.489 77.7422 146.66 78.8082 144.701 81.3169C142.741 83.8256 142.392 86.8271 143.922 88.0208C145.452 89.2146 148.281 88.1486 150.24 85.6398Z" fill="#A7B1F2"/>
<path opacity="0.67" d="M150.241 85.1555C152.201 82.6467 152.55 79.6453 151.02 78.4516C149.49 77.2578 146.661 78.3238 144.702 80.8326C142.742 83.3413 142.393 86.3427 143.923 87.5365C145.453 88.7302 148.282 87.6642 150.241 85.1555Z" fill="#A7B1F2"/>
<path opacity="0.71" d="M150.24 84.6711C152.199 82.1624 152.548 79.1609 151.018 77.9672C149.488 76.7735 146.659 77.8395 144.7 80.3482C142.74 82.8569 142.392 85.8583 143.921 87.0521C145.451 88.2458 148.28 87.1798 150.24 84.6711Z" fill="#A7B1F2"/>
<path opacity="0.76" d="M150.24 84.1906C152.2 81.6819 152.549 78.6805 151.019 77.4867C149.489 76.293 146.66 77.359 144.701 79.8677C142.741 82.3764 142.393 85.3779 143.922 86.5716C145.452 87.7654 148.281 86.6993 150.24 84.1906Z" fill="#A7B1F2"/>
<path opacity="0.81" d="M150.24 83.7101C152.199 81.2014 152.548 78.2 151.018 77.0063C149.488 75.8125 146.659 76.8785 144.7 79.3872C142.74 81.896 142.392 84.8974 143.921 86.0911C145.451 87.2849 148.28 86.2189 150.24 83.7101Z" fill="#A7B1F2"/>
<path opacity="0.86" d="M150.241 83.2297C152.201 80.7209 152.55 77.7195 151.02 76.5258C149.49 75.332 146.661 76.398 144.702 78.9068C142.742 81.4155 142.393 84.4169 143.923 85.6107C145.453 86.8044 148.282 85.7384 150.241 83.2297Z" fill="#A7B1F2"/>
<path opacity="0.9" d="M150.24 82.7414C152.199 80.2327 152.548 77.2312 151.018 76.0375C149.488 74.8438 146.659 75.9098 144.7 78.4185C142.74 80.9272 142.392 83.9287 143.921 85.1224C145.451 86.3161 148.28 85.2501 150.24 82.7414Z" fill="#A7B1F2"/>
<path opacity="0.95" d="M150.24 82.2609C152.2 79.7522 152.549 76.7508 151.019 75.557C149.489 74.3633 146.66 75.4293 144.701 77.938C142.741 80.4467 142.392 83.4482 143.922 84.6419C145.452 85.8357 148.281 84.7696 150.24 82.2609Z" fill="#A7B1F2"/>
<path d="M150.24 81.7765C152.199 79.2678 152.548 76.2664 151.018 75.0727C149.488 73.8789 146.659 74.9449 144.7 77.4536C142.74 79.9624 142.392 82.9638 143.921 84.1575C145.451 85.3513 148.28 84.2853 150.24 81.7765Z" fill="#A7B1F2"/>
</g>
<g style="mix-blend-mode:multiply">
<path opacity="0.05" d="M132.963 82.7961C134.923 80.2874 135.271 77.2859 133.741 76.0922C132.212 74.8985 129.383 75.9645 127.423 78.4732C125.464 80.9819 125.115 83.9833 126.645 85.1771C128.175 86.3708 131.004 85.3048 132.963 82.7961Z" fill="#A7B1F2"/>
<path opacity="0.1" d="M132.963 82.3117C134.923 79.803 135.271 76.8016 133.741 75.6078C132.212 74.4141 129.383 75.4801 127.423 77.9888C125.464 80.4975 125.115 83.499 126.645 84.6927C128.175 85.8864 131.004 84.8204 132.963 82.3117Z" fill="#A7B1F2"/>
<path opacity="0.14" d="M132.962 81.8312C134.922 79.3225 135.27 76.3211 133.74 75.1273C132.211 73.9336 129.382 74.9996 127.422 77.5083C125.463 80.0171 125.114 83.0185 126.644 84.2122C128.174 85.406 131.003 84.34 132.962 81.8312Z" fill="#A7B1F2"/>
<path opacity="0.19" d="M132.963 81.3508C134.923 78.842 135.271 75.8406 133.741 74.6469C132.212 73.4531 129.383 74.5191 127.423 77.0279C125.464 79.5366 125.115 82.538 126.645 83.7318C128.175 84.9255 131.004 83.8595 132.963 81.3508Z" fill="#A7B1F2"/>
<path opacity="0.24" d="M132.961 80.8625C134.921 78.3538 135.269 75.3523 133.739 74.1586C132.21 72.9649 129.381 74.0309 127.421 76.5396C125.462 79.0483 125.113 82.0498 126.643 83.2435C128.173 84.4372 131.002 83.3712 132.961 80.8625Z" fill="#A7B1F2"/>
<path opacity="0.29" d="M132.963 80.382C134.923 77.8733 135.271 74.8719 133.741 73.6781C132.212 72.4844 129.383 73.5504 127.423 76.0591C125.464 78.5678 125.115 81.5693 126.645 82.763C128.175 83.9568 131.004 82.8907 132.963 80.382Z" fill="#A7B1F2"/>
<path opacity="0.33" d="M132.962 79.9015C134.922 77.3928 135.27 74.3914 133.74 73.1977C132.211 72.0039 129.382 73.0699 127.422 75.5786C125.463 78.0874 125.114 81.0888 126.644 82.2825C128.174 83.4763 131.003 82.4103 132.962 79.9015Z" fill="#A7B1F2"/>
<path opacity="0.38" d="M132.963 79.4211C134.923 76.9124 135.271 73.9109 133.741 72.7172C132.212 71.5235 129.383 72.5895 127.423 75.0982C125.464 77.6069 125.115 80.6083 126.645 81.8021C128.175 82.9958 131.004 81.9298 132.963 79.4211Z" fill="#A7B1F2"/>
<path opacity="0.43" d="M132.961 78.9367C134.921 76.428 135.269 73.4265 133.739 72.2328C132.21 71.0391 129.381 72.1051 127.421 74.6138C125.462 77.1225 125.113 80.124 126.643 81.3177C128.173 82.5114 131.002 81.4454 132.961 78.9367Z" fill="#A7B1F2"/>
<path opacity="0.48" d="M132.962 78.4523C134.922 75.9436 135.27 72.9422 133.74 71.7484C132.211 70.5547 129.382 71.6207 127.422 74.1294C125.463 76.6381 125.114 79.6396 126.644 80.8333C128.174 82.0271 131.003 80.9611 132.962 78.4523Z" fill="#A7B1F2"/>
<path opacity="0.52" d="M132.96 77.9719C134.92 75.4631 135.268 72.4617 133.738 71.268C132.209 70.0742 129.38 71.1402 127.42 73.649C125.461 76.1577 125.112 79.1591 126.642 80.3529C128.172 81.5466 131.001 80.4806 132.96 77.9719Z" fill="#A7B1F2"/>
<path opacity="0.57" d="M132.963 77.4914C134.923 74.9827 135.271 71.9812 133.741 70.7875C132.212 69.5938 129.383 70.6598 127.423 73.1685C125.464 75.6772 125.115 78.6787 126.645 79.8724C128.175 81.0661 131.004 80.0001 132.963 77.4914Z" fill="#A7B1F2"/>
<path opacity="0.62" d="M132.963 77.0031C134.923 74.4944 135.271 71.493 133.741 70.2992C132.212 69.1055 129.383 70.1715 127.423 72.6802C125.464 75.1889 125.115 78.1904 126.645 79.3841C128.175 80.5778 131.004 79.5118 132.963 77.0031Z" fill="#A7B1F2"/>
<path opacity="0.67" d="M132.962 76.5226C134.922 74.0139 135.27 71.0125 133.74 69.8188C132.211 68.625 129.382 69.691 127.422 72.1997C125.463 74.7085 125.114 77.7099 126.644 78.9036C128.174 80.0974 131.003 79.0314 132.962 76.5226Z" fill="#A7B1F2"/>
<path opacity="0.71" d="M132.963 76.0344C134.923 73.5256 135.271 70.5242 133.741 69.3305C132.212 68.1367 129.383 69.2027 127.423 71.7115C125.464 74.2202 125.115 77.2216 126.645 78.4154C128.175 79.6091 131.004 78.5431 132.963 76.0344Z" fill="#A7B1F2"/>
<path opacity="0.76" d="M132.961 75.5539C134.921 73.0452 135.269 70.0437 133.739 68.85C132.21 67.6563 129.381 68.7223 127.421 71.231C125.462 73.7397 125.113 76.7412 126.643 77.9349C128.173 79.1286 131.002 78.0626 132.961 75.5539Z" fill="#A7B1F2"/>
<path opacity="0.81" d="M132.962 75.0734C134.922 72.5647 135.27 69.5633 133.74 68.3695C132.211 67.1758 129.382 68.2418 127.422 70.7505C125.463 73.2592 125.114 76.2607 126.644 77.4544C128.174 78.6482 131.003 77.5821 132.962 75.0734Z" fill="#A7B1F2"/>
<path opacity="0.86" d="M132.962 74.593C134.922 72.0842 135.27 69.0828 133.74 67.8891C132.211 66.6953 129.382 67.7613 127.422 70.2701C125.463 72.7788 125.114 75.7802 126.644 76.974C128.174 78.1677 131.003 77.1017 132.962 74.593Z" fill="#A7B1F2"/>
<path opacity="0.9" d="M132.963 74.1125C134.923 71.6038 135.271 68.6023 133.741 67.4086C132.212 66.2149 129.383 67.2809 127.423 69.7896C125.464 72.2983 125.115 75.2997 126.645 76.4935C128.175 77.6872 131.004 76.6212 132.963 74.1125Z" fill="#A7B1F2"/>
<path opacity="0.95" d="M132.961 73.6281C134.921 71.1194 135.269 68.118 133.739 66.9242C132.21 65.7305 129.381 66.7965 127.421 69.3052C125.462 71.8139 125.113 74.8154 126.643 76.0091C128.173 77.2028 131.002 76.1368 132.961 73.6281Z" fill="#A7B1F2"/>
<path d="M132.962 73.1398C134.922 70.6311 135.27 67.6297 133.74 66.4359C132.211 65.2422 129.382 66.3082 127.422 68.8169C125.463 71.3256 125.114 74.3271 126.644 75.5208C128.174 76.7146 131.003 75.6486 132.962 73.1398Z" fill="#A7B1F2"/>
</g>
<g style="mix-blend-mode:multiply">
<path opacity="0.05" d="M114.344 109.425C116.304 106.916 116.652 103.915 115.122 102.721C113.592 101.527 110.764 102.593 108.804 105.102C106.844 107.611 106.496 110.612 108.026 111.806C109.556 113 112.384 111.934 114.344 109.425Z" fill="#A7B1F2"/>
<path opacity="0.1" d="M114.344 108.945C116.304 106.436 116.652 103.434 115.122 102.241C113.592 101.047 110.764 102.113 108.804 104.622C106.844 107.13 106.496 110.132 108.026 111.326C109.556 112.519 112.384 111.453 114.344 108.945Z" fill="#A7B1F2"/>
<path opacity="0.14" d="M114.345 108.464C116.305 105.955 116.653 102.954 115.123 101.76C113.593 100.566 110.765 101.632 108.805 104.141C106.845 106.65 106.497 109.651 108.027 110.845C109.557 112.039 112.385 110.973 114.345 108.464Z" fill="#A7B1F2"/>
<path opacity="0.19" d="M114.345 107.984C116.305 105.475 116.653 102.473 115.123 101.28C113.593 100.086 110.765 101.152 108.805 103.661C106.845 106.169 106.497 109.171 108.027 110.365C109.557 111.558 112.385 110.492 114.345 107.984Z" fill="#A7B1F2"/>
<path opacity="0.24" d="M114.344 107.495C116.304 104.987 116.652 101.985 115.122 100.791C113.592 99.5977 110.764 100.664 108.804 103.172C106.844 105.681 106.496 108.683 108.026 109.876C109.556 111.07 112.384 110.004 114.344 107.495Z" fill="#A7B1F2"/>
<path opacity="0.29" d="M114.345 107.015C116.305 104.506 116.653 101.505 115.123 100.311C113.593 99.1172 110.765 100.183 108.805 102.692C106.845 105.201 106.497 108.202 108.027 109.396C109.557 110.59 112.385 109.524 114.345 107.015Z" fill="#A7B1F2"/>
<path opacity="0.33" d="M114.345 106.534C116.305 104.026 116.653 101.024 115.123 99.8305C113.593 98.6367 110.765 99.7027 108.805 102.211C106.845 104.72 106.497 107.722 108.027 108.915C109.557 110.109 112.385 109.043 114.345 106.534Z" fill="#A7B1F2"/>
<path opacity="0.38" d="M114.344 106.046C116.304 103.537 116.652 100.536 115.122 99.3422C113.592 98.1485 110.764 99.2145 108.804 101.723C106.844 104.232 106.496 107.233 108.026 108.427C109.556 109.621 112.384 108.555 114.344 106.046Z" fill="#A7B1F2"/>
<path opacity="0.43" d="M114.346 105.57C116.306 103.061 116.654 100.059 115.124 98.8656C113.594 97.6719 110.766 98.7379 108.806 101.247C106.846 103.755 106.498 106.757 108.028 107.951C109.558 109.144 112.386 108.078 114.346 105.57Z" fill="#A7B1F2"/>
<path opacity="0.48" d="M114.345 105.085C116.305 102.576 116.653 99.575 115.123 98.3812C113.593 97.1875 110.765 98.2535 108.805 100.762C106.845 103.271 106.497 106.272 108.027 107.466C109.557 108.66 112.385 107.594 114.345 105.085Z" fill="#A7B1F2"/>
<path opacity="0.52" d="M114.346 104.597C116.306 102.088 116.654 99.0867 115.124 97.893C113.594 96.6992 110.766 97.7652 108.806 100.274C106.846 102.783 106.498 105.784 108.028 106.978C109.558 108.172 112.386 107.106 114.346 104.597Z" fill="#A7B1F2"/>
<path opacity="0.57" d="M114.344 104.116C116.304 101.608 116.652 98.6062 115.122 97.4125C113.592 96.2188 110.764 97.2848 108.804 99.7935C106.844 102.302 106.496 105.304 108.026 106.497C109.556 107.691 112.384 106.625 114.344 104.116Z" fill="#A7B1F2"/>
<path opacity="0.62" d="M114.345 103.636C116.305 101.127 116.653 98.1258 115.123 96.932C113.593 95.7383 110.765 96.8043 108.805 99.313C106.845 101.822 106.497 104.823 108.027 106.017C109.557 107.211 112.385 106.145 114.345 103.636Z" fill="#A7B1F2"/>
<path opacity="0.67" d="M114.345 103.155C116.305 100.647 116.653 97.6453 115.123 96.4516C113.593 95.2578 110.765 96.3238 108.805 98.8326C106.845 101.341 106.497 104.343 108.027 105.536C109.557 106.73 112.385 105.664 114.345 103.155Z" fill="#A7B1F2"/>
<path opacity="0.71" d="M114.346 102.667C116.306 100.158 116.654 97.157 115.124 95.9633C113.594 94.7695 110.766 95.8356 108.806 98.3443C106.846 100.853 106.498 103.854 108.028 105.048C109.558 106.242 112.386 105.176 114.346 102.667Z" fill="#A7B1F2"/>
<path opacity="0.76" d="M114.344 102.187C116.304 99.678 116.652 96.6766 115.122 95.4828C113.592 94.2891 110.764 95.3551 108.804 97.8638C106.844 100.373 106.496 103.374 108.026 104.568C109.556 105.761 112.384 104.695 114.344 102.187Z" fill="#A7B1F2"/>
<path opacity="0.81" d="M114.345 101.706C116.305 99.1975 116.653 96.1961 115.123 95.0023C113.593 93.8086 110.765 94.8746 108.805 97.3833C106.845 99.8921 106.497 102.893 108.027 104.087C109.557 105.281 112.385 104.215 114.345 101.706Z" fill="#A7B1F2"/>
<path opacity="0.86" d="M114.343 101.226C116.303 98.717 116.651 95.7156 115.121 94.5219C113.591 93.3281 110.763 94.3941 108.803 96.9029C106.843 99.4116 106.495 102.413 108.025 103.607C109.555 104.801 112.383 103.734 114.343 101.226Z" fill="#A7B1F2"/>
<path opacity="0.9" d="M114.344 100.734C116.304 98.2249 116.652 95.2234 115.122 94.0297C113.592 92.836 110.764 93.902 108.804 96.4107C106.844 98.9194 106.496 101.921 108.026 103.115C109.556 104.308 112.384 103.242 114.344 100.734Z" fill="#A7B1F2"/>
<path opacity="0.95" d="M114.346 100.257C116.306 97.7483 116.654 94.7469 115.124 93.5531C113.594 92.3594 110.766 93.4254 108.806 95.9341C106.846 98.4428 106.498 101.444 108.028 102.638C109.558 103.832 112.386 102.766 114.346 100.257Z" fill="#A7B1F2"/>
<path d="M114.345 99.7726C116.305 97.2639 116.653 94.2625 115.123 93.0688C113.593 91.875 110.765 92.941 108.805 95.4497C106.845 97.9585 106.497 100.96 108.027 102.154C109.557 103.347 112.385 102.281 114.345 99.7726Z" fill="#A7B1F2"/>
</g>
<path d="M113.637 100.753C113.244 100.753 112.846 100.64 112.494 100.408C111.545 99.7757 111.29 98.4958 111.922 97.55L129.925 70.5595C130.498 69.6995 131.618 69.397 132.547 69.8507L149.02 77.9115L174.943 39.0432C175.575 38.0951 176.855 37.84 177.802 38.4721C178.75 39.1041 179.006 40.384 178.373 41.3298L151.448 81.6993C150.874 82.5593 149.754 82.8618 148.826 82.4081L132.352 74.3473L115.353 99.8366C114.956 100.433 114.301 100.755 113.634 100.755L113.637 100.753Z" fill="url(#paint4_linear_845_298428)"/>
<path d="M115.884 96.2811L118.328 94.6671L114.719 92.8726C114.671 92.8477 114.624 92.8229 114.576 92.8003C113.759 92.4346 112.67 92.5091 111.471 93.1073C108.984 94.3511 106.97 97.3713 106.97 99.8566C106.97 101.116 107.489 101.997 108.325 102.396L112.087 104.267L111.925 101.857C113.903 100.669 115.504 98.3894 115.886 96.2811H115.884Z" fill="url(#paint5_linear_845_298428)"/>
<path d="M117.855 101.577C119.814 99.0686 120.163 96.0672 118.633 94.8734C117.103 93.6797 114.274 94.7457 112.315 97.2544C110.355 99.7632 110.007 102.765 111.537 103.958C113.066 105.152 115.895 104.086 117.855 101.577Z" fill="#E3E5F9"/>
<path d="M134.608 69.6561L137.052 68.0421L133.443 66.2476C133.396 66.2227 133.348 66.1979 133.301 66.1753C132.483 65.8096 131.395 65.8841 130.195 66.4823C127.709 67.7261 125.694 70.7463 125.694 73.2316C125.694 74.4912 126.214 75.3715 127.049 75.7711L130.812 77.6424L130.649 75.2316C132.628 74.0442 134.229 71.7644 134.611 69.6561H134.608Z" fill="url(#paint6_linear_845_298428)"/>
<path d="M136.577 74.9523C138.537 72.4436 138.885 69.4422 137.356 68.2484C135.826 67.0547 132.997 68.1207 131.037 70.6294C129.078 73.1382 128.729 76.1396 130.259 77.3333C131.789 78.5271 134.618 77.4611 136.577 74.9523Z" fill="#E3E5F9"/>
<path d="M151.886 78.2928L154.33 76.6788L150.72 74.8843C150.673 74.8594 150.626 74.8346 150.578 74.812C149.761 74.4464 148.672 74.5208 147.473 75.119C144.986 76.3628 142.972 79.3831 142.972 81.8683C142.972 83.1279 143.491 84.0083 144.327 84.4078L148.089 86.2791L147.927 83.8683C149.905 82.681 151.506 80.4011 151.888 78.2928H151.886Z" fill="url(#paint7_linear_845_298428)"/>
<path d="M153.857 83.5891C155.816 81.0803 156.165 78.0789 154.635 76.8852C153.105 75.6914 150.276 76.7574 148.317 79.2662C146.357 81.7749 146.009 84.7763 147.539 85.97C149.068 87.1638 151.897 86.0978 153.857 83.5891Z" fill="#E3E5F9"/>
<path d="M178.812 37.9139L181.255 36.2999L177.646 34.5054C177.599 34.4805 177.551 34.4557 177.504 34.4331C176.686 34.0674 175.598 34.1419 174.399 34.7401C171.912 35.9839 169.897 39.0042 169.897 41.4894C169.897 42.749 170.417 43.6293 171.253 44.0289L175.015 45.9002L174.853 43.4894C176.831 42.3021 178.432 40.0222 178.814 37.9139H178.812Z" fill="#E3E5F9"/>
<path d="M180.782 43.2101C182.742 40.7014 183.091 37.7 181.561 36.5063C180.031 35.3125 177.202 36.3785 175.243 38.8872C173.283 41.396 172.934 44.3974 174.464 45.5911C175.994 46.7849 178.823 45.7189 180.782 43.2101Z" fill="url(#paint8_linear_845_298428)"/>
<path d="M45.2461 185.23L67.4852 174.113V151.883L45.2461 163V185.23Z" fill="#E3E5F9"/>
<path d="M23.0049 174.113L45.2462 185.23V163L23.0049 151.883V174.113Z" fill="url(#paint9_linear_845_298428)"/>
<path style="mix-blend-mode:multiply" d="M45.2463 185.23L23.005 196.348L0.763672 185.23L23.005 174.113L45.2463 185.23Z" fill="url(#paint10_linear_845_298428)"/>
<path d="M67.4853 151.883L45.2462 163L23.0049 151.883L45.2462 140.766L67.4853 151.883Z" fill="url(#paint11_linear_845_298428)"/>
<g style="mix-blend-mode:multiply" opacity="0.3">
<path opacity="0.09" d="M196.059 185.464C185.567 180.247 173.18 180.247 162.686 185.464C162.634 185.49 162.583 185.516 162.531 185.54C159.753 186.93 157.218 188.394 154.924 189.918C152.037 191.838 152.037 196.077 154.924 197.997C157.218 199.523 159.753 200.988 162.531 202.375C162.583 202.401 162.634 202.427 162.686 202.452C173.178 207.669 185.565 207.669 196.059 202.452C196.111 202.425 196.161 202.401 196.214 202.375C198.992 200.986 201.526 199.521 203.821 197.997C206.708 196.077 206.708 191.838 203.821 189.918C201.526 188.392 198.992 186.928 196.214 185.54C196.161 185.514 196.111 185.488 196.059 185.464Z" fill="#A7B1F2"/>
<path opacity="0.18" d="M197.347 184.819C186.855 179.602 174.468 179.602 163.974 184.819C163.922 184.845 163.871 184.871 163.819 184.896C161.041 186.285 158.506 187.749 156.212 189.274C153.325 191.194 153.325 195.433 156.212 197.352C158.506 198.879 161.041 200.343 163.819 201.73C163.871 201.757 163.922 201.783 163.974 201.807C174.466 207.024 186.853 207.024 197.347 201.807C197.399 201.781 197.45 201.757 197.502 201.73C200.28 200.341 202.815 198.877 205.109 197.352C207.996 195.433 207.996 191.194 205.109 189.274C202.815 187.747 200.28 186.283 197.502 184.896C197.45 184.869 197.399 184.843 197.347 184.819Z" fill="#A7B1F2"/>
<path opacity="0.27" d="M198.636 184.174C188.144 178.957 175.757 178.957 165.263 184.174C165.211 184.201 165.16 184.227 165.108 184.251C162.33 185.641 159.795 187.105 157.501 188.629C154.614 190.549 154.614 194.788 157.501 196.708C159.795 198.234 162.33 199.698 165.108 201.086C165.16 201.112 165.211 201.138 165.263 201.163C175.755 206.38 188.142 206.38 198.636 201.163C198.688 201.136 198.739 201.112 198.791 201.086C201.569 199.696 204.104 198.232 206.398 196.708C209.285 194.788 209.285 190.549 206.398 188.629C204.104 187.103 201.569 185.639 198.791 184.251C198.739 184.225 198.688 184.199 198.636 184.174Z" fill="#A7B1F2"/>
<path opacity="0.36" d="M199.922 183.534C189.43 178.317 177.043 178.317 166.55 183.534C166.497 183.56 166.447 183.586 166.394 183.61C163.616 185 161.082 186.464 158.788 187.989C155.9 189.908 155.9 194.147 158.788 196.067C161.082 197.594 163.616 199.058 166.394 200.445C166.447 200.472 166.497 200.498 166.55 200.522C177.041 205.739 189.428 205.739 199.922 200.522C199.974 200.496 200.025 200.472 200.077 200.445C202.855 199.056 205.39 197.592 207.684 196.067C210.571 194.147 210.571 189.908 207.684 187.989C205.39 186.462 202.855 184.998 200.077 183.61C200.025 183.584 199.974 183.558 199.922 183.534Z" fill="#A7B1F2"/>
<path opacity="0.45" d="M201.21 182.889C190.718 177.672 178.332 177.672 167.838 182.889C167.785 182.916 167.735 182.942 167.682 182.966C164.904 184.355 162.37 185.819 160.076 187.344C157.188 189.264 157.188 193.503 160.076 195.423C162.37 196.949 164.904 198.413 167.682 199.801C167.735 199.827 167.785 199.853 167.838 199.877C178.33 205.094 190.716 205.094 201.21 199.877C201.262 199.851 201.313 199.827 201.365 199.801C204.144 198.411 206.678 196.947 208.972 195.423C211.859 193.503 211.859 189.264 208.972 187.344C206.678 185.817 204.144 184.353 201.365 182.966C201.313 182.94 201.262 182.914 201.21 182.889Z" fill="#A7B1F2"/>
<path opacity="0.55" d="M202.499 182.245C192.007 177.028 179.621 177.028 169.127 182.245C169.074 182.271 169.024 182.297 168.971 182.321C166.193 183.711 163.659 185.175 161.365 186.7C158.477 188.619 158.477 192.858 161.365 194.778C163.659 196.305 166.193 197.769 168.971 199.156C169.024 199.182 169.074 199.209 169.127 199.233C179.619 204.45 192.005 204.45 202.499 199.233C202.551 199.207 202.602 199.182 202.654 199.156C205.433 197.767 207.967 196.303 210.261 194.778C213.148 192.858 213.148 188.619 210.261 186.7C207.967 185.173 205.433 183.709 202.654 182.321C202.602 182.295 202.551 182.269 202.499 182.245Z" fill="#A7B1F2"/>
<path opacity="0.64" d="M203.786 181.6C193.294 176.383 180.908 176.383 170.414 181.6C170.361 181.626 170.311 181.653 170.258 181.677C167.48 183.066 164.946 184.53 162.652 186.055C159.765 187.975 159.765 192.214 162.652 194.134C164.946 195.66 167.48 197.124 170.258 198.512C170.311 198.538 170.361 198.564 170.414 198.588C180.906 203.805 193.292 203.805 203.786 198.588C203.839 198.562 203.889 198.538 203.941 198.512C206.72 197.122 209.254 195.658 211.548 194.134C214.435 192.214 214.435 187.975 211.548 186.055C209.254 184.528 206.72 183.064 203.941 181.677C203.889 181.651 203.839 181.624 203.786 181.6Z" fill="#A7B1F2"/>
<path opacity="0.73" d="M205.074 180.956C194.582 175.739 182.196 175.739 171.702 180.956C171.649 180.982 171.599 181.008 171.547 181.032C168.768 182.422 166.234 183.886 163.94 185.41C161.053 187.33 161.053 191.569 163.94 193.489C166.234 195.016 168.768 196.48 171.547 197.867C171.599 197.893 171.649 197.92 171.702 197.944C182.194 203.161 194.58 203.161 205.074 197.944C205.127 197.918 205.177 197.893 205.23 197.867C208.008 196.478 210.542 195.014 212.836 193.489C215.723 191.569 215.723 187.33 212.836 185.41C210.542 183.884 208.008 182.42 205.23 181.032C205.177 181.006 205.127 180.98 205.074 180.956Z" fill="#A7B1F2"/>
<path opacity="0.82" d="M206.362 180.311C195.87 175.094 183.484 175.094 172.99 180.311C172.937 180.337 172.887 180.364 172.835 180.388C170.056 181.777 167.522 183.241 165.228 184.766C162.341 186.686 162.341 190.925 165.228 192.845C167.522 194.371 170.056 195.835 172.835 197.223C172.887 197.249 172.937 197.275 172.99 197.299C183.482 202.516 195.868 202.516 206.362 197.299C206.415 197.273 206.465 197.249 206.518 197.223C209.296 195.833 211.83 194.369 214.124 192.845C217.012 190.925 217.012 186.686 214.124 184.766C211.83 183.239 209.296 181.775 206.518 180.388C206.465 180.362 206.415 180.335 206.362 180.311Z" fill="#A7B1F2"/>
<path opacity="0.91" d="M207.649 179.667C197.157 174.45 184.771 174.45 174.277 179.667C174.225 179.693 174.174 179.719 174.122 179.743C171.343 181.133 168.809 182.597 166.515 184.121C163.628 186.041 163.628 190.28 166.515 192.2C168.809 193.727 171.343 195.191 174.122 196.578C174.174 196.604 174.225 196.631 174.277 196.655C184.769 201.872 197.155 201.872 207.649 196.655C207.702 196.629 207.752 196.604 207.805 196.578C210.583 195.189 213.117 193.725 215.411 192.2C218.299 190.28 218.299 186.041 215.411 184.121C213.117 182.595 210.583 181.131 207.805 179.743C207.752 179.717 207.702 179.691 207.649 179.667Z" fill="#A7B1F2"/>
<path d="M208.937 179.026C198.446 173.809 186.059 173.809 175.565 179.026C175.513 179.052 175.462 179.078 175.41 179.103C172.631 180.492 170.097 181.956 167.803 183.481C164.916 185.401 164.916 189.64 167.803 191.559C170.097 193.086 172.631 194.55 175.41 195.937C175.462 195.964 175.513 195.99 175.565 196.014C186.057 201.231 198.444 201.231 208.937 196.014C208.99 195.988 209.04 195.964 209.093 195.937C211.871 194.548 214.405 193.084 216.699 191.559C219.587 189.64 219.587 185.401 216.699 183.481C214.405 181.954 211.871 180.49 209.093 179.103C209.04 179.076 208.99 179.05 208.937 179.026Z" fill="#A7B1F2"/>
</g>
<path d="M171.685 76.9667C171.461 77.0453 171.332 77.2833 171.395 77.5112L171.766 78.8926L171.01 77.9569L169.484 76.8941C169.297 76.763 169.036 76.8114 168.899 77.001C168.77 77.1805 168.798 77.4265 168.962 77.5677L170.184 78.6123L170.354 78.8966L168.98 78.6284C168.758 78.5296 168.494 78.6445 168.409 78.8764L167.967 80.0743C167.904 80.2457 167.955 80.4353 168.096 80.5462L168.8 81.1068L169.432 81.8711L170.808 83.3634C171.215 83.8051 171.911 83.8252 172.359 83.4058L173.229 82.5931L173.465 82.3733C174.072 81.8066 174.157 81.1774 173.671 80.2296L172.216 77.1865C172.121 76.9869 171.891 76.8921 171.679 76.9667H171.685Z" fill="#F4ACC8"/>
<path d="M191.235 102.534C187.151 102.534 182.646 101.671 178.782 98.87C174.47 95.7422 171.817 90.8176 170.897 84.2333C170.697 82.8095 171.692 81.4947 173.116 81.295C174.541 81.0954 175.856 82.0896 176.056 83.5133C176.772 88.6436 178.719 92.3926 181.84 94.6552C186.205 97.8193 192.02 97.6076 196.13 96.8715C197.546 96.6214 198.9 97.5612 199.152 98.9769C199.406 100.393 198.462 101.744 197.046 101.998C195.314 102.306 193.329 102.534 191.233 102.534H191.235Z" fill="#4A69BD"/>
<path d="M208.531 183.733C205.333 182.676 200.113 179.407 197.932 177.427C195.656 175.36 197.266 172.994 200.123 173.442L212.518 174.993V180.976C212.518 182.884 210.764 184.471 208.531 183.733Z" fill="#4C4E6E"/>
<path d="M208.695 178.965C205.818 178.965 203.485 176.634 203.485 173.759V124.301C203.485 121.425 205.818 119.094 208.695 119.094C211.572 119.094 213.905 121.425 213.905 124.301V173.759C213.905 176.634 211.572 178.965 208.695 178.965Z" fill="#37384F"/>
<path d="M189.504 191.675L188.971 186.609L173.211 190.487C170.935 191.062 170.96 195.136 173.744 195.136H186.806C188.727 195.136 189.655 193.071 189.504 191.677V191.675Z" fill="#4C4E6E"/>
<path d="M217.158 116.399C216.062 116.399 215.043 115.704 214.684 114.607C214.234 113.241 214.979 111.769 216.347 111.322C219.946 110.14 222.285 107.837 222.602 105.159C222.995 101.843 220.42 98.2134 215.538 95.2026C214.313 94.4464 213.934 92.8431 214.69 91.6191C215.447 90.395 217.051 90.0158 218.276 90.7721C224.954 94.892 228.418 100.359 227.777 105.772C227.216 110.515 223.55 114.439 217.973 116.268C217.703 116.357 217.428 116.399 217.16 116.399H217.158Z" fill="#4A69BD"/>
<path d="M218.141 114.467L217.158 113.796L216.892 113.614C216.206 113.146 215.575 113.201 214.753 113.88L214.348 114.199C213.648 114.748 213.274 115.613 213.353 116.498C213.418 117.232 213.789 117.904 214.372 118.351L215.845 119.481C216.027 119.505 216.2 119.412 216.279 119.251L216.672 118.44L217.282 117.656L218.438 115.988C218.781 115.494 218.648 114.812 218.139 114.465L218.141 114.467Z" fill="#F4ACC8"/>
<path d="M186.58 191.463C186.275 191.463 185.966 191.436 185.655 191.38C182.823 190.874 180.938 188.167 181.445 185.338L191.464 129.385C191.971 126.553 194.68 124.67 197.509 125.176C200.342 125.682 202.227 128.388 201.72 131.218L191.7 187.171C191.248 189.692 189.053 191.461 186.578 191.461L186.58 191.463Z" fill="#37384F"/>
<path d="M213.903 115.621V124.857L191.437 135.713V119.42L213.903 115.621Z" fill="#37384F"/>
<path d="M203.522 88.6285L202.576 95.2047L207.969 93.7386L208.597 87.7734L203.522 88.6285Z" fill="#F4ACC8"/>
<path d="M201.658 87.3029C201.569 88.0652 202.512 89.3337 204.011 88.9283C204.517 88.7912 208.589 87.8635 208.589 87.8635C208.589 87.8635 210.693 84.2457 209.454 82.2371C208.887 81.3196 204.798 80.8194 203.869 81.37C202.518 82.1706 201.858 85.6029 201.66 87.3029H201.658Z" fill="#F4ACC8"/>
<path d="M205.651 77.2773C205.698 78.1445 205.962 79.0016 206.414 79.7437C206.493 79.1508 206.898 78.4288 207.635 78.1021C207.582 78.7878 216.779 83.8274 208.432 89.3569C205.96 89.0968 203.827 86.6446 204.142 83.658C201.372 82.5085 201.67 78.6345 205.651 77.2773Z" fill="#37384F"/>
<path d="M194.428 97.678C201.656 94.1288 208.814 91.5898 215.886 90.3395C218.132 89.9423 219.647 91.9549 218.969 94.1086C217.208 99.7027 212.797 106.948 213.903 115.622C212.858 119.994 202.917 121.214 191.438 119.419C190.635 112.083 191.577 104.833 194.43 97.6801L194.428 97.678Z" fill="#4A69BD"/>
<path d="M45.2456 143.435L35.6426 138.633L45.2456 133.832L54.8485 138.633L45.2456 143.435ZM36.6521 138.633L45.2456 142.929L53.839 138.633L45.2456 134.338L36.6521 138.633Z" fill="#B3C4FF"/>
<path d="M45.0195 152.648V143.048L54.5706 138.273V147.874L45.0195 152.648ZM45.4712 143.328V151.917L54.1189 147.594V139.005L45.4712 143.328Z" fill="#B3C4FF"/>
<path d="M45.4719 152.648L35.9209 147.874V138.273L45.4719 143.048V152.648ZM36.3726 147.596L45.0202 151.919V143.33L36.3726 139.007V147.596Z" fill="#B3C4FF"/>
<path d="M45.2456 144.369C45.898 144.369 46.4268 143.84 46.4268 143.188C46.4268 142.536 45.898 142.008 45.2456 142.008C44.5933 142.008 44.0645 142.536 44.0645 143.188C44.0645 143.84 44.5933 144.369 45.2456 144.369Z" fill="#42C8FF"/>
<path d="M36.146 139.822C36.7984 139.822 37.3272 139.294 37.3272 138.642C37.3272 137.99 36.7984 137.461 36.146 137.461C35.4937 137.461 34.9648 137.99 34.9648 138.642C34.9648 139.294 35.4937 139.822 36.146 139.822Z" fill="#42C8FF"/>
<path d="M36.146 148.892C36.7984 148.892 37.3272 148.364 37.3272 147.712C37.3272 147.06 36.7984 146.531 36.146 146.531C35.4937 146.531 34.9648 147.06 34.9648 147.712C34.9648 148.364 35.4937 148.892 36.146 148.892Z" fill="#42C8FF"/>
<path d="M45.2456 153.463C45.898 153.463 46.4268 152.934 46.4268 152.282C46.4268 151.63 45.898 151.102 45.2456 151.102C44.5933 151.102 44.0645 151.63 44.0645 152.282C44.0645 152.934 44.5933 153.463 45.2456 153.463Z" fill="#42C8FF"/>
<path d="M54.3423 139.822C54.9947 139.822 55.5235 139.294 55.5235 138.642C55.5235 137.99 54.9947 137.461 54.3423 137.461C53.69 137.461 53.1611 137.99 53.1611 138.642C53.1611 139.294 53.69 139.822 54.3423 139.822Z" fill="#42C8FF"/>
<path d="M45.2456 135.271C45.898 135.271 46.4268 134.743 46.4268 134.091C46.4268 133.439 45.898 132.91 45.2456 132.91C44.5933 132.91 44.0645 133.439 44.0645 134.091C44.0645 134.743 44.5933 135.271 45.2456 135.271Z" fill="#42C8FF"/>
<path d="M54.3423 148.912C54.9947 148.912 55.5235 148.383 55.5235 147.731C55.5235 147.079 54.9947 146.551 54.3423 146.551C53.69 146.551 53.1611 147.079 53.1611 147.731C53.1611 148.383 53.69 148.912 54.3423 148.912Z" fill="#42C8FF"/>
<path d="M251.581 118.494L238.633 112.022L251.581 105.551L264.528 112.022L251.581 118.494ZM239.642 112.022L251.581 117.991L263.519 112.022L251.581 106.054L239.642 112.022Z" fill="#B3C4FF"/>
<path d="M251.354 131.042V118.101L264.25 111.656V124.597L251.354 131.042ZM251.806 118.378V130.311L263.799 124.317V112.385L251.806 118.378Z" fill="#B3C4FF"/>
<path d="M251.806 131.042L238.91 124.597V111.656L251.806 118.101V131.042ZM239.362 124.317L251.354 130.311V118.378L239.362 112.385V124.317Z" fill="#B3C4FF"/>
<path d="M252.793 118.247C252.793 118.915 252.251 119.459 251.58 119.459C250.909 119.459 250.367 118.918 250.367 118.247C250.367 117.577 250.909 117.035 251.58 117.035C252.251 117.035 252.793 117.577 252.793 118.247Z" fill="#42C8FF"/>
<path d="M240.349 112.029C240.349 112.697 239.807 113.241 239.137 113.241C238.466 113.241 237.924 112.699 237.924 112.029C237.924 111.358 238.466 110.816 239.137 110.816C239.807 110.816 240.349 111.358 240.349 112.029Z" fill="#42C8FF"/>
<path d="M240.349 124.439C240.349 125.107 239.807 125.651 239.137 125.651C238.466 125.651 237.924 125.109 237.924 124.439C237.924 123.768 238.466 123.227 239.137 123.227C239.807 123.227 240.349 123.768 240.349 124.439Z" fill="#42C8FF"/>
<path d="M252.793 130.685C252.793 131.353 252.251 131.897 251.58 131.897C250.909 131.897 250.367 131.355 250.367 130.685C250.367 130.014 250.909 129.473 251.58 129.473C252.251 129.473 252.793 130.014 252.793 130.685Z" fill="#42C8FF"/>
<path d="M265.235 112.029C265.235 112.697 264.693 113.241 264.022 113.241C263.352 113.241 262.81 112.699 262.81 112.029C262.81 111.358 263.352 110.816 264.022 110.816C264.693 110.816 265.235 111.358 265.235 112.029Z" fill="#42C8FF"/>
<path d="M252.793 105.806C252.793 106.474 252.251 107.018 251.58 107.018C250.909 107.018 250.367 106.476 250.367 105.806C250.367 105.136 250.909 104.594 251.58 104.594C252.251 104.594 252.793 105.136 252.793 105.806Z" fill="#42C8FF"/>
<path d="M265.235 124.462C265.235 125.13 264.693 125.674 264.022 125.674C263.352 125.674 262.81 125.133 262.81 124.462C262.81 123.792 263.352 123.25 264.022 123.25C264.693 123.25 265.235 123.792 265.235 124.462Z" fill="#42C8FF"/>
<path d="M65.2652 19.5539L46.8994 10.3735L65.2652 1.19531L83.631 10.3757L65.2652 19.5561V19.5539ZM47.9089 10.3735L65.2652 19.0483L82.6215 10.3735L65.2652 1.69869L47.9089 10.3735Z" fill="#B3C4FF"/>
<path d="M65.0381 37.5214V19.165L83.3497 10.0117V28.368L65.0381 37.5214ZM65.4898 19.445V36.7923L82.898 28.0904V10.7408L65.4898 19.4427V19.445Z" fill="#B3C4FF"/>
<path d="M65.4903 37.5214L47.1787 28.368V10.0117L65.4903 19.165V37.5214ZM47.6304 28.0881L65.0386 36.79V19.4427L47.6304 10.7408V28.0881Z" fill="#B3C4FF"/>
<path d="M66.7124 19.3047C66.7124 20.1037 66.0642 20.7538 65.2624 20.7538C64.4607 20.7538 63.8125 20.106 63.8125 19.3047C63.8125 18.5033 64.4607 17.8555 65.2624 17.8555C66.0642 17.8555 66.7124 18.5033 66.7124 19.3047Z" fill="#42C8FF"/>
<path d="M48.852 10.375C48.852 11.174 48.2038 11.8241 47.4021 11.8241C46.6003 11.8241 45.9521 11.1763 45.9521 10.375C45.9521 9.57363 46.6003 8.92578 47.4021 8.92578C48.2038 8.92578 48.852 9.57363 48.852 10.375Z" fill="#42C8FF"/>
<path d="M48.852 28.1953C48.852 28.9944 48.2038 29.6445 47.4021 29.6445C46.6003 29.6445 45.9521 28.9966 45.9521 28.1953C45.9521 27.3939 46.6003 26.7461 47.4021 26.7461C48.2038 26.7461 48.852 27.3939 48.852 28.1953Z" fill="#42C8FF"/>
<path d="M65.2644 38.6015C66.0652 38.6015 66.7143 37.9527 66.7143 37.1523C66.7143 36.3519 66.0652 35.7031 65.2644 35.7031C64.4636 35.7031 63.8145 36.3519 63.8145 37.1523C63.8145 37.9527 64.4636 38.6015 65.2644 38.6015Z" fill="#42C8FF"/>
<path d="M84.5717 10.375C84.5717 11.174 83.9236 11.8241 83.1218 11.8241C82.3201 11.8241 81.6719 11.1763 81.6719 10.375C81.6719 9.57363 82.3201 8.92578 83.1218 8.92578C83.9236 8.92578 84.5717 9.57363 84.5717 10.375Z" fill="#42C8FF"/>
<path d="M66.7124 1.44918C66.7124 2.24827 66.0642 2.89837 65.2624 2.89837C64.4607 2.89837 63.8125 2.25052 63.8125 1.44918C63.8125 0.647844 64.4607 0 65.2624 0C66.0642 0 66.7124 0.647844 66.7124 1.44918Z" fill="#42C8FF"/>
<path d="M84.5717 28.2265C84.5717 29.0256 83.9236 29.6757 83.1218 29.6757C82.3201 29.6757 81.6719 29.0279 81.6719 28.2265C81.6719 27.4252 82.3201 26.7773 83.1218 26.7773C83.9236 26.7773 84.5717 27.4252 84.5717 28.2265Z" fill="#42C8FF"/>
<defs>
<linearGradient id="paint0_linear_845_298428" x1="115.561" y1="141.853" x2="115.561" y2="11.0086" gradientUnits="userSpaceOnUse">
<stop stop-color="#7023FF"/>
<stop offset="0.63" stop-color="#174DBA"/>
<stop offset="1" stop-color="#8A6EFF"/>
</linearGradient>
<linearGradient id="paint1_linear_845_298428" x1="-288.939" y1="339.365" x2="-330.883" y2="255.452" gradientUnits="userSpaceOnUse">
<stop stop-color="#7023FF"/>
<stop offset="0.63" stop-color="#1E69FF"/>
<stop offset="1" stop-color="#8FB5FF"/>
</linearGradient>
<linearGradient id="paint2_linear_845_298428" x1="74.6514" y1="223.671" x2="115.663" y2="-12.1833" gradientUnits="userSpaceOnUse">
<stop stop-color="#5E6EFF"/>
<stop offset="0.576413" stop-color="#61A7FF"/>
<stop offset="1" stop-color="#65E1FF"/>
</linearGradient>
<linearGradient id="paint3_linear_845_298428" x1="128.151" y1="144.118" x2="128.151" y2="16.8725" gradientUnits="userSpaceOnUse">
<stop stop-color="#C3CFF7"/>
<stop offset="1" stop-color="white"/>
</linearGradient>
<linearGradient id="paint4_linear_845_298428" x1="145.149" y1="100.753" x2="145.149" y2="39.7113" gradientUnits="userSpaceOnUse">
<stop stop-color="#7023FF"/>
<stop offset="0.63" stop-color="#1E69FF"/>
<stop offset="1" stop-color="#8FB5FF"/>
</linearGradient>
<linearGradient id="paint5_linear_845_298428" x1="112.647" y1="103.915" x2="112.647" y2="92.7958" gradientUnits="userSpaceOnUse">
<stop stop-color="#E8EAFB"/>
<stop offset="1" stop-color="white"/>
</linearGradient>
<linearGradient id="paint6_linear_845_298428" x1="131.372" y1="77.2902" x2="131.372" y2="66.1731" gradientUnits="userSpaceOnUse">
<stop stop-color="#E8EAFB"/>
<stop offset="1" stop-color="white"/>
</linearGradient>
<linearGradient id="paint7_linear_845_298428" x1="148.649" y1="85.9247" x2="148.649" y2="74.8075" gradientUnits="userSpaceOnUse">
<stop stop-color="#E8EAFB"/>
<stop offset="1" stop-color="white"/>
</linearGradient>
<linearGradient id="paint8_linear_845_298428" x1="173.51" y1="41.0493" x2="182.512" y2="41.0493" gradientUnits="userSpaceOnUse">
<stop stop-color="#E8EAFB"/>
<stop offset="1" stop-color="white"/>
</linearGradient>
<linearGradient id="paint9_linear_845_298428" x1="45.2462" y1="168.555" x2="23.0049" y2="168.555" gradientUnits="userSpaceOnUse">
<stop stop-color="#D9DEFC"/>
<stop offset="1" stop-color="#CCD6FF"/>
</linearGradient>
<linearGradient id="paint10_linear_845_298428" x1="19.1972" y1="192.689" x2="27.4948" y2="176.412" gradientUnits="userSpaceOnUse">
<stop stop-color="white"/>
<stop offset="1" stop-color="#A7B1F2"/>
</linearGradient>
<linearGradient id="paint11_linear_845_298428" x1="23.0026" y1="151.883" x2="67.4853" y2="151.883" gradientUnits="userSpaceOnUse">
<stop stop-color="#E8EAFB"/>
<stop offset="1" stop-color="white"/>
</linearGradient>
</defs>
</svg>
