<svg width="485" height="352" viewBox="0 0 485 352" fill="none" xmlns="http://www.w3.org/2000/svg">
<g clip-path="url(#clip0_1003_360589)">
<path style="mix-blend-mode:multiply" opacity="0.5" d="M282.964 351.985L265.182 352.002C243.245 352.021 221.608 346.921 201.988 337.107L2.84396 237.131C-2.21084 234.594 -0.0916159 229.888 5.74106 226.968L184.006 138.046C197.769 131.053 212.983 127.399 228.419 127.383L282.961 351.985H282.964Z" fill="url(#paint0_linear_1003_360589)"/>
<path d="M482.918 243.34L480.994 244.462C480.206 243.887 479.309 243.34 478.29 242.829L243.982 125.63C235.035 121.155 220.53 121.155 211.586 125.63L32.6698 215.225C31.5814 215.77 30.6248 216.358 29.803 216.974L28.0411 215.948L25.9603 216.427V223.538C26.0758 226.4 28.3049 229.245 32.6698 231.428L266.977 348.624C275.924 353.1 290.429 353.1 299.373 348.624L478.287 259.029C482.759 256.791 484.996 253.858 484.996 250.927V243.816L482.916 243.337L482.918 243.34Z" fill="#D5DBED"/>
<path d="M32.6698 224.415L266.977 341.611C275.924 346.087 290.429 346.087 299.373 341.611L478.287 252.016C487.234 247.541 487.234 240.286 478.287 235.81L243.982 118.614C235.035 114.139 220.53 114.139 211.586 118.614L32.6698 208.21C23.7229 212.685 23.7229 219.94 32.6698 224.413V224.415Z" fill="white"/>
<path style="mix-blend-mode:multiply" opacity="0.5" d="M59.9696 199.25V213.787H130.696L127.757 199.25H59.9696Z" fill="url(#paint1_linear_1003_360589)"/>
<path d="M104.965 200.489C105.026 199.851 113.736 198.109 113.736 198.109C114.143 197.988 114.577 198.161 114.795 198.524C115.053 198.964 114.907 199.53 114.47 199.788L108.277 204.091C107.236 204.734 105.122 204.805 105.034 204.055C104.894 202.884 104.847 201.718 104.965 200.487V200.489Z" fill="#37384F"/>
<path d="M96.1778 153.922C94.2482 140.149 93.4593 121.953 95.6088 109.602L112.442 110.929L108.39 155.495L107.997 200.456C107.813 201.839 105.793 202.122 105.171 200.898C97.805 186.353 94.0503 166.978 96.1778 153.922V153.922Z" fill="#F4ACC8"/>
<path d="M130.778 213.787L140.605 211.253C141.099 211.126 141.396 210.62 141.27 210.125C141.165 209.716 140.794 209.43 140.368 209.433L128.898 208.734C128.296 208.737 128.453 211.747 128.524 212.347C128.615 213.092 128.623 213.79 130.778 213.79V213.787Z" fill="#37384F"/>
<path d="M126.685 154.81L120.836 113.582L102.013 118.005C103.885 128.823 107.42 148.284 112.73 160.896C112.563 174.251 120.111 197.066 128.695 210.234C129.445 211.383 131.421 210.883 131.454 209.486C131.454 209.486 126.331 167.689 126.685 154.813V154.81Z" fill="#F4ACC8"/>
<path d="M120.839 108.397C120.85 108.378 119.066 92.3203 119.066 92.3203L99.0942 92.3396L92.0988 103.407C87.3464 115.344 92.5716 137.095 92.5743 149.075C94.8007 157.682 126.743 161.476 127.939 154.573C127.474 136.712 125.33 118.868 120.836 108.397H120.839Z" fill="#37384F"/>
<path d="M111.205 54.1937C111.065 55.6452 108.811 57.6218 106.197 56.2692C105.314 55.8129 103.533 54.8232 102.885 54.0672C101.645 52.6185 99.6852 49.0529 99.6852 47.145C99.6852 45.6743 100.886 42.5541 102.151 41.7981C103.907 40.7479 107.975 40.9101 109.476 42.3012C111.661 44.3272 111.515 50.9553 111.205 54.1937V54.1937Z" fill="#F4ACC8"/>
<path d="M106.801 55.0671L107.931 64.4112L100.425 63.8586L101.606 50.5586L106.801 55.0671Z" fill="#F4ACC8"/>
<path d="M99.097 92.3405C96.1449 83.9503 90.9554 64.847 93.289 61.3447C99.993 58.6231 109.748 61.8725 118.519 68.9102L119.52 96.4119C118.412 100.47 100.246 99.5431 99.0942 92.3405H99.097Z" fill="#4A69BD"/>
<path d="M107.931 46.0992C110.905 44.8181 112.901 43.0505 111.933 39.8203L109.891 40.2162H104.383C102.896 40.2162 96.4115 38.9763 98.3603 45.8105C95.7986 48.6036 93.2863 54.0715 94.9382 60.9332C97.5715 62.5029 101.227 63.4404 105.738 63.8527C104.836 59.0144 107.074 47.5892 107.934 46.102L107.931 46.0992Z" fill="#37384F"/>
<path d="M146.347 74.674L147.314 70.5531L151.195 65.2969C151.588 65.525 151.668 65.9347 151.495 66.3883L150.277 69.3133C151.088 68.9284 152.031 68.9037 152.853 69.3133L154.499 70.1325L150.612 73.6156L148.647 76.3014L146.349 74.6795L146.347 74.674Z" fill="#F4ACC8"/>
<path d="M145.811 74.4871L132.254 89.1396C127.012 79.4794 119.965 69.2473 116.117 67.0316C112.288 66.4185 107.203 70.0775 110.792 76.0458C116.364 84.1253 127.958 96.2488 127.958 96.2488C129.709 97.8707 132.293 98.2336 134.94 96.9195C141.861 92.1196 148.136 83.1934 149.483 76.9695C149.612 74.5778 147.179 73.1043 145.811 74.4843V74.4871Z" fill="url(#paint2_linear_1003_360589)"/>
<path style="mix-blend-mode:multiply" opacity="0.5" d="M119.055 170.34V184.877H189.778L199.138 178.562L198.775 170.34H119.055Z" fill="url(#paint3_linear_1003_360589)"/>
<path d="M172.201 172.418L159.678 171.752C159.169 171.719 158.691 170.774 158.724 170.265C158.751 169.845 160.854 169.542 161.943 168.954L170.106 165.056C170.697 164.948 174.042 164.753 174.281 166.023L173.853 170.416C173.778 171.557 173.443 172.415 172.198 172.415L172.201 172.418Z" fill="#4C4E6E"/>
<path d="M201.023 182.729L189.929 184.867C189.429 184.958 188.734 184.155 188.646 183.655C188.572 183.24 190.54 182.443 191.455 181.607L197.219 176.09C197.766 175.842 200.965 174.847 201.504 176.024L202.147 180.392C202.348 181.519 202.23 182.432 201.023 182.731V182.729Z" fill="#4C4E6E"/>
<path d="M197.15 78.7803L179.666 75.8828L171.546 121.207L167.121 165.907C167.187 167.298 174.4 167.762 174.897 166.396C181.464 148.354 183.437 127.337 185.988 119.744C188.539 112.149 195.941 91.3436 197.148 78.7803H197.15Z" fill="#37384F"/>
<path d="M205.443 85.0352L188.643 86.4207L192.763 131.745L195.262 176.445C195.542 177.836 202.829 178.3 203.115 176.934C206.979 158.449 207.318 139.962 206.262 127.121C205.121 113.221 207.584 97.3428 205.443 85.0379V85.0352Z" fill="#37384F"/>
<path d="M181.42 34.9818C181.293 31.2595 178.047 29.8135 175.554 31.0149C173.743 31.8891 171.882 34.8031 171.362 38.7178C170.538 44.9087 171.428 62.7365 171.428 62.7365L176.953 68.5095C176.953 68.5095 181.796 45.9891 181.42 34.9818V34.9818Z" fill="#4A69BD"/>
<path d="M208.799 41.2413C201.842 33.0325 182.338 28.2574 175.554 31.0147C173.19 34.561 177.112 82.0376 177.112 82.0376C177.723 87.9041 201.633 92.6133 204.514 86.4718L208.799 41.2413Z" fill="#37384F"/>
<path d="M175.554 31.0152C174.331 32.8516 174.466 46.487 175.521 59.1685C176.395 69.648 174.798 73.549 173.503 82.6017C173.281 86.0078 176.236 92.6798 178.02 93.7217C190.166 75.0142 175.062 38.1931 188.338 31.0317C183.368 29.6077 177.844 29.4318 175.551 31.0152H175.554Z" fill="#4A69BD"/>
<path d="M195.916 33.2734C197.183 44.913 186.67 74.9054 194.932 97.863C199.907 98.2286 213.065 91.7875 214.206 89.3601C202.945 74.6718 214.835 53.1273 208.802 41.2458C205.996 37.9359 201.144 35.2005 195.916 33.2762V33.2734Z" fill="#4A69BD"/>
<path d="M185.743 30.7827L186.997 39.4478C189.883 38.6176 192.249 36.4211 193.008 33.6665L190.449 27.1484L185.746 30.7827H185.743Z" fill="#F4ACC8"/>
<path d="M182.816 32.063C183.487 33.3715 184.952 34.3337 187.291 32.5523C187.291 32.5523 189.44 30.419 189.847 29.5146C190.63 27.7799 191.51 23.813 190.977 21.9848C190.565 20.5746 188.539 17.9217 187.118 17.5506C185.141 17.0365 181.978 18.1691 180.851 19.8736C178.176 23.9092 181.2 28.9208 182.813 32.063H182.816Z" fill="#F4ACC8"/>
<path d="M189.066 24.668C188.717 24.2639 188.088 24.5058 187.676 25.8776C187.17 25.6769 186.628 24.5058 186.059 22.554L179.735 22.7024C177.027 22.7327 176.755 20.9183 176.917 18.774C177.673 18.862 178.358 18.7932 178.979 18.5816L186.529 16.3768C189.88 15.3569 191.988 17.4544 192.052 21.4818L191.958 26.4164C191.933 27.747 192.348 28.7696 191.455 29.7126C191.43 29.7291 189.822 27.9229 189.391 26.4549C189.132 25.578 189.339 24.9842 189.069 24.6735L189.066 24.668Z" fill="#37384F"/>
<path d="M187.054 24.0742L186.505 27.7442C186.26 28.536 185.559 29.1023 184.735 29.1765L181.285 29.05L181.582 32.6431C181.722 33.6245 182.544 34.3613 183.533 34.397L184.781 34.441C185.292 34.4575 185.79 34.2843 186.178 33.9516L188.382 32.0658C188.943 31.5847 189.201 30.8397 189.055 30.1139L188.03 24.9869L187.052 24.077L187.054 24.0742Z" fill="#37384F"/>
<path d="M171.428 62.7383C167.976 63.5768 167.871 64.9843 164.246 65.9602C164.919 68.6846 167.487 70.5402 170.277 70.246C172.932 69.9656 175.483 69.4268 176.953 68.5141C176.953 68.5141 175.628 61.7212 171.428 62.7411V62.7383Z" fill="#4A69BD"/>
<path d="M210.646 44.5064C208.846 37.7794 200.531 38.9423 199.91 45.2569C199.239 52.0608 202.186 62.6173 205.352 71.714L184.924 68.6543C182.992 68.4618 182.052 71.1477 183.676 72.9098C188.676 76.8493 203.134 80.8629 211.526 80.1537C213.697 78.6472 213.975 75.7084 213.931 72.7971C213.931 72.7971 213.183 53.9879 210.646 44.5064V44.5064Z" fill="url(#paint4_linear_1003_360589)"/>
<path d="M169.265 73.3769L182.607 76.6043C183.761 76.8847 184.534 76.2332 184.33 75.1501L180.199 52.9733C179.998 51.8901 178.899 50.7878 177.745 50.5073L164.403 47.2799C163.248 46.9995 162.476 47.6511 162.679 48.7342L166.81 70.911C167.011 71.9941 168.11 73.0965 169.265 73.3769Z" fill="#B6D1FA"/>
<path d="M163.867 64.8257L164.246 65.9638L166.274 68.0476L165.749 65.227L166.582 63.913L166.024 59.5859L164.367 60.3914C162.731 61.3316 163.207 62.7254 163.864 64.8284L163.867 64.8257Z" fill="#F4ACC8"/>
<path d="M182.384 72.1004C181.788 71.1602 180.155 68.2434 180.155 68.2434L177.541 66.0634L179.251 65.3761C181.046 64.7961 183.014 65.038 183.723 67.0476C183.723 67.0476 184.745 69.7472 185.015 70.6681C185.416 72.0344 182.937 72.9636 182.387 72.0976L182.384 72.1004Z" fill="#F4ACC8"/>
<path d="M439.423 227.034L269.039 139.287C265.686 137.61 262.967 133.53 262.967 130.176L260.625 2.41282L264.559 0.452727C265.669 -0.207051 267.266 -0.168564 269.042 0.719387L439.437 85.949C442.791 87.6259 445.509 91.7056 445.509 95.0594V221.481C445.509 223.133 444.849 224.302 443.78 224.863L439.426 227.037L439.423 227.034Z" fill="white"/>
<path d="M435.251 226.606L264.855 141.377C261.502 139.7 258.784 135.62 258.784 132.266V5.84459C258.784 2.49071 261.502 1.12992 264.855 2.80961L435.251 88.0392C438.604 89.7162 441.323 93.7958 441.323 97.1497V223.571C441.323 226.925 438.604 228.286 435.251 226.606Z" fill="url(#paint5_linear_1003_360589)"/>
<path d="M297.309 98.8648C287.93 94.1749 280.328 97.9741 280.328 107.354C280.328 116.734 287.93 128.14 297.309 132.832C306.687 137.522 314.29 133.723 314.29 124.343C314.29 114.963 306.687 103.558 297.309 98.8648ZM297.309 127.172C291.056 124.044 285.987 116.44 285.987 110.186C285.987 103.931 291.056 101.397 297.309 104.525C303.562 107.654 308.631 115.258 308.631 121.512C308.631 127.766 303.562 130.301 297.309 127.172Z" fill="white"/>
<path d="M305.313 127.859C303.265 128.885 300.434 128.736 297.309 127.172C291.056 124.044 285.987 116.44 285.987 110.186C285.987 103.931 291.056 101.397 297.309 104.525V98.8648C287.93 94.1749 280.328 97.9741 280.328 107.354C280.328 116.734 287.93 128.14 297.309 132.832C301.998 135.177 306.245 135.4 309.318 133.863L305.316 127.859H305.313Z" fill="#6335AD"/>
<path d="M350.147 125.295C340.768 120.605 333.165 124.404 333.165 133.784C333.165 143.164 340.768 154.569 350.147 159.262C359.525 163.952 367.128 160.153 367.128 150.773C367.128 141.393 359.525 129.987 350.147 125.295V125.295ZM350.147 153.602C343.893 150.473 338.825 142.869 338.825 136.615C338.825 130.361 343.893 127.826 350.147 130.955C356.4 134.083 361.468 141.687 361.468 147.941C361.468 154.196 356.4 156.73 350.147 153.602Z" fill="white"/>
<path d="M358.153 138.276C360.201 141.349 361.468 144.813 361.468 147.941C361.468 154.196 356.4 156.73 350.147 153.602C343.893 150.473 338.825 142.869 338.825 136.615C338.825 130.361 343.893 127.826 350.147 130.955V125.295C340.768 120.605 333.165 124.404 333.165 133.784C333.165 143.164 340.768 154.569 350.147 159.262C359.525 163.952 367.128 160.153 367.128 150.773C367.128 146.083 365.226 140.887 362.153 136.274L358.151 138.276H358.153Z" fill="#00BFFF"/>
<path d="M402.987 150.791C393.609 146.101 386.006 149.9 386.006 159.28C386.006 168.66 393.609 180.066 402.987 184.758C412.365 189.448 419.968 185.649 419.968 176.269C419.968 166.889 412.365 155.483 402.987 150.791ZM402.987 179.098C396.734 175.969 391.665 168.365 391.665 162.111C391.665 155.857 396.734 153.323 402.987 156.451C409.24 159.579 414.309 167.183 414.309 173.438C414.309 179.692 409.24 182.226 402.987 179.098Z" fill="white"/>
<path d="M394.98 171.777C392.932 168.704 391.665 165.24 391.665 162.111C391.665 155.857 396.734 153.323 402.987 156.451V150.791C393.609 146.101 386.006 149.9 386.006 159.28C386.006 163.97 387.908 169.165 390.981 173.778L394.983 171.777H394.98Z" fill="#D6567D"/>
<path d="M280.328 129.75V132.645L314.29 149.631V146.737L280.328 129.75V129.75ZM280.328 138.107L302.927 149.411V146.517L280.328 135.212V138.107V138.107Z" fill="white"/>
<path d="M333.165 156.18V159.074L367.128 176.061V173.166L333.165 156.18ZM333.165 164.537L355.765 175.841V172.946L333.165 161.642V164.537Z" fill="white"/>
<path d="M386.006 182.605V185.5L419.968 202.487V199.592L386.006 182.605ZM386.006 190.963L408.605 202.267V199.372L386.006 188.068V190.963Z" fill="white"/>
<path d="M399.073 164.604C399.073 164.928 398.974 165.156 398.776 165.288C398.578 165.423 398.292 165.448 397.921 165.365V165.387C398.793 165.931 399.227 166.561 399.227 167.276C399.227 167.76 399.034 168.045 398.65 168.133C398.265 168.219 397.732 168.092 397.05 167.751C396.77 167.611 396.508 167.46 396.272 167.3C396.033 167.141 395.775 166.938 395.497 166.69V165.519C395.725 165.75 395.959 165.953 396.195 166.127C396.431 166.3 396.649 166.437 396.849 166.539C397.157 166.693 397.382 166.762 397.525 166.748C397.666 166.731 397.737 166.632 397.737 166.446C397.737 166.303 397.701 166.173 397.627 166.061C397.553 165.948 397.435 165.83 397.27 165.709C397.105 165.588 396.89 165.461 396.629 165.329L396.308 165.17V164.112L396.635 164.277C397.349 164.634 397.71 164.631 397.71 164.263C397.71 164.125 397.657 163.996 397.55 163.878C397.443 163.757 397.303 163.652 397.124 163.564C396.792 163.397 396.448 163.336 396.091 163.383L395.505 162.149C395.78 162.096 396.063 162.102 396.352 162.165C396.64 162.228 396.97 162.355 397.344 162.542C397.883 162.811 398.306 163.13 398.614 163.499C398.922 163.867 399.073 164.238 399.073 164.615V164.604Z" fill="white"/>
<path d="M403.528 170.917L399.744 169.023V168.097L401.016 167.445C401.379 167.247 401.618 167.107 401.728 167.022C401.841 166.939 401.918 166.857 401.962 166.78C402.006 166.703 402.028 166.61 402.028 166.5C402.028 166.365 401.984 166.236 401.896 166.112C401.808 165.988 401.684 165.889 401.525 165.81C401.36 165.727 401.195 165.691 401.027 165.702C400.86 165.713 400.67 165.757 400.458 165.834L399.683 164.542C399.952 164.438 400.178 164.377 400.362 164.366C400.546 164.355 400.744 164.375 400.958 164.427C401.173 164.479 401.415 164.572 401.684 164.707C402.022 164.875 402.325 165.087 402.588 165.337C402.852 165.587 403.058 165.862 403.207 166.153C403.353 166.447 403.427 166.73 403.427 167.003C403.427 167.206 403.402 167.385 403.35 167.53C403.298 167.679 403.221 167.811 403.113 167.924C403.006 168.036 402.863 168.144 402.687 168.24C402.512 168.336 402.132 168.501 401.555 168.729V168.765L403.528 169.752V170.915V170.917Z" fill="white"/>
<path d="M406.629 168.807C406.629 169.33 406.511 169.676 406.274 169.846C406.038 170.014 405.703 169.992 405.268 169.772C404.859 169.569 404.535 169.258 404.295 168.843C404.056 168.428 403.938 167.966 403.938 167.463C403.938 166.96 404.053 166.594 404.287 166.429C404.521 166.264 404.848 166.286 405.268 166.498C405.683 166.707 406.016 167.018 406.261 167.433C406.505 167.848 406.629 168.307 406.629 168.807V168.807ZM405.013 168.013C405.013 168.285 405.035 168.494 405.082 168.64C405.125 168.782 405.194 168.879 405.285 168.923C405.376 168.967 405.442 168.942 405.486 168.846C405.53 168.749 405.552 168.56 405.552 168.282C405.552 168.004 405.53 167.801 405.486 167.655C405.442 167.512 405.373 167.419 405.285 167.372C405.191 167.325 405.123 167.353 405.079 167.455C405.035 167.556 405.013 167.741 405.013 168.01V168.013ZM409.229 168.552L406.335 172.321L405.277 171.79L408.171 168.021L409.229 168.552ZM410.595 172.868C410.595 173.387 410.477 173.734 410.241 173.901C410.004 174.069 409.669 174.044 409.237 173.83C408.828 173.626 408.504 173.316 408.264 172.901C408.025 172.485 407.907 172.026 407.907 171.526C407.907 171.026 408.023 170.657 408.256 170.492C408.49 170.327 408.817 170.349 409.237 170.561C409.653 170.77 409.985 171.081 410.23 171.496C410.474 171.911 410.598 172.37 410.598 172.87L410.595 172.868ZM408.979 172.073C408.979 172.348 409.001 172.554 409.048 172.7C409.092 172.843 409.161 172.939 409.251 172.983C409.353 173.035 409.424 173 409.463 172.881C409.501 172.763 409.521 172.584 409.521 172.345C409.521 172.106 409.501 171.908 409.463 171.751C409.424 171.592 409.353 171.488 409.251 171.435C409.158 171.389 409.089 171.416 409.045 171.518C409.001 171.619 408.979 171.804 408.979 172.073V172.073Z" fill="white"/>
<path d="M346.356 139.493C346.356 140.513 346.136 141.143 345.696 141.379C345.257 141.616 344.553 141.492 343.586 141.008C343.267 140.849 343.025 140.717 342.857 140.61V139.493C343.061 139.634 343.267 139.755 343.47 139.856C343.973 140.109 344.363 140.2 344.636 140.128C344.908 140.057 345.059 139.801 345.081 139.364L345.037 139.342C344.943 139.466 344.853 139.546 344.762 139.576C344.671 139.606 344.561 139.609 344.429 139.584C344.297 139.559 344.135 139.499 343.94 139.4C343.489 139.175 343.135 138.847 342.882 138.416C342.629 137.984 342.5 137.506 342.5 136.975C342.5 136.398 342.665 136.027 342.995 135.862C343.324 135.7 343.775 135.76 344.347 136.046C344.985 136.365 345.477 136.824 345.828 137.421C346.178 138.02 346.353 138.707 346.353 139.488L346.356 139.493ZM344.391 137.198C344.237 137.121 344.111 137.115 344.014 137.179C343.918 137.242 343.869 137.399 343.869 137.646C343.869 137.841 343.91 138.017 343.992 138.174C344.075 138.331 344.204 138.452 344.374 138.537C344.528 138.614 344.663 138.625 344.778 138.57C344.891 138.515 344.949 138.41 344.949 138.251C344.949 138.039 344.897 137.83 344.789 137.627C344.685 137.421 344.55 137.278 344.388 137.198H344.391Z" fill="white"/>
<path d="M349.954 144.123L348.525 143.409V140.649C348.525 140.313 348.533 140.011 348.547 139.739C348.459 139.802 348.349 139.86 348.22 139.909L347.629 140.102L346.898 138.837L348.69 138.273L349.96 138.908V144.123H349.954Z" fill="white"/>
<path d="M353.695 142.335C353.695 142.857 353.577 143.203 353.341 143.374C353.104 143.541 352.769 143.519 352.335 143.299C351.925 143.096 351.601 142.785 351.362 142.37C351.122 141.955 351.004 141.496 351.004 140.99C351.004 140.484 351.12 140.122 351.353 139.957C351.587 139.792 351.914 139.814 352.335 140.025C352.75 140.234 353.082 140.545 353.327 140.96C353.571 141.375 353.695 141.834 353.695 142.335V142.335ZM352.079 141.54C352.079 141.815 352.101 142.021 352.148 142.167C352.192 142.31 352.26 142.406 352.351 142.45C352.442 142.494 352.508 142.469 352.552 142.373C352.596 142.277 352.618 142.09 352.618 141.809C352.618 141.529 352.596 141.328 352.552 141.185C352.508 141.042 352.442 140.946 352.351 140.902C352.258 140.856 352.189 140.883 352.145 140.985C352.101 141.086 352.079 141.271 352.079 141.54ZM356.295 142.079L353.404 145.848L352.346 145.317L355.237 141.548L356.295 142.079ZM357.661 146.395C357.661 146.914 357.543 147.261 357.307 147.429C357.071 147.596 356.735 147.574 356.304 147.357C355.894 147.151 355.57 146.843 355.331 146.428C355.091 146.013 354.973 145.554 354.973 145.051C354.973 144.548 355.089 144.182 355.322 144.017C355.556 143.852 355.883 143.874 356.304 144.086C356.719 144.295 357.051 144.605 357.296 145.02C357.541 145.435 357.664 145.895 357.664 146.395H357.661ZM356.045 145.6C356.045 145.875 356.067 146.082 356.114 146.227C356.158 146.37 356.227 146.466 356.317 146.51C356.419 146.563 356.491 146.527 356.529 146.409C356.568 146.29 356.587 146.112 356.587 145.873C356.587 145.633 356.568 145.435 356.529 145.279C356.491 145.119 356.419 145.015 356.317 144.965C356.224 144.919 356.155 144.946 356.111 145.048C356.067 145.15 356.045 145.334 356.045 145.603V145.6Z" fill="white"/>
<path d="M289.632 111.745C289.632 111.017 289.736 110.481 289.942 110.134C290.151 109.788 290.456 109.609 290.863 109.598C291.27 109.587 291.768 109.73 292.364 110.027C292.576 110.134 292.823 110.277 293.106 110.459V111.561C292.867 111.396 292.611 111.245 292.331 111.105C291.861 110.868 291.509 110.797 291.278 110.888C291.047 110.978 290.921 111.253 290.899 111.712L290.943 111.734C291.157 111.437 291.501 111.407 291.974 111.644C292.438 111.874 292.796 112.204 293.051 112.63C293.307 113.057 293.436 113.538 293.436 114.068C293.436 114.64 293.274 115.014 292.952 115.182C292.628 115.352 292.177 115.292 291.597 115.003C290.981 114.695 290.5 114.255 290.151 113.681C289.805 113.106 289.632 112.463 289.632 111.743V111.745ZM291.564 113.873C291.713 113.947 291.836 113.953 291.93 113.887C292.023 113.821 292.07 113.664 292.07 113.417C292.07 112.993 291.905 112.699 291.578 112.534C291.416 112.455 291.284 112.444 291.185 112.501C291.083 112.559 291.034 112.669 291.034 112.826C291.034 113.054 291.083 113.266 291.179 113.461C291.276 113.656 291.405 113.793 291.564 113.873V113.873Z" fill="white"/>
<path d="M296.031 113.735C296.33 113.883 296.6 114.09 296.842 114.348C297.083 114.609 297.27 114.898 297.405 115.22C297.54 115.541 297.606 115.868 297.606 116.201C297.606 116.784 297.43 117.144 297.078 117.279C296.726 117.416 296.196 117.306 295.486 116.949C294.879 116.644 294.382 116.303 293.997 115.921V114.763C294.203 114.961 294.437 115.156 294.698 115.349C294.959 115.541 295.181 115.684 295.371 115.778C295.632 115.91 295.833 115.954 295.973 115.912C296.113 115.871 296.185 115.745 296.185 115.527C296.185 115.327 296.113 115.137 295.97 114.953C295.827 114.769 295.61 114.606 295.322 114.461C295.102 114.351 294.863 114.271 294.604 114.227L294.087 113.71L294.283 111.055L297.257 112.542V113.716L295.481 112.828L295.418 113.485C295.605 113.543 295.737 113.589 295.814 113.625C295.893 113.661 295.965 113.697 296.031 113.73V113.735Z" fill="white"/>
<path d="M300.764 115.858C300.764 116.38 300.646 116.727 300.412 116.897C300.176 117.065 299.84 117.043 299.406 116.823C298.997 116.619 298.672 116.309 298.433 115.894C298.194 115.479 298.076 115.017 298.076 114.514C298.076 114.011 298.191 113.645 298.425 113.48C298.658 113.315 298.986 113.337 299.406 113.549C299.821 113.758 300.154 114.068 300.398 114.483C300.643 114.899 300.767 115.358 300.767 115.858H300.764ZM299.148 115.063C299.148 115.336 299.17 115.545 299.216 115.69C299.26 115.833 299.329 115.929 299.42 115.973C299.51 116.017 299.576 115.993 299.62 115.896C299.664 115.8 299.686 115.613 299.686 115.333C299.686 115.052 299.664 114.852 299.62 114.709C299.576 114.566 299.51 114.472 299.42 114.426C299.326 114.379 299.258 114.406 299.214 114.508C299.17 114.61 299.148 114.794 299.148 115.063ZM303.364 115.602L300.473 119.371L299.414 118.841L302.306 115.072L303.364 115.602ZM304.73 119.918C304.73 120.438 304.612 120.784 304.376 120.952C304.139 121.12 303.804 121.095 303.372 120.881C302.963 120.677 302.639 120.366 302.399 119.951C302.16 119.536 302.042 119.077 302.042 118.574C302.042 118.071 302.157 117.705 302.391 117.54C302.625 117.375 302.952 117.397 303.372 117.609C303.787 117.818 304.12 118.129 304.365 118.544C304.609 118.959 304.733 119.418 304.733 119.918H304.73ZM303.114 119.124C303.114 119.396 303.136 119.605 303.183 119.751C303.227 119.894 303.295 119.99 303.386 120.034C303.488 120.086 303.559 120.05 303.598 119.932C303.636 119.814 303.655 119.635 303.655 119.396C303.655 119.157 303.636 118.959 303.598 118.802C303.559 118.643 303.488 118.538 303.386 118.486C303.293 118.439 303.224 118.467 303.18 118.569C303.136 118.67 303.114 118.854 303.114 119.124V119.124Z" fill="white"/>
<path d="M423.426 98.0833V144.688L395.17 130.555V83.9503L393.804 83.2658V129.871L365.547 115.738V69.1327L364.181 68.451V115.056L335.925 100.923V54.318L334.562 53.6362V100.239L306.305 86.1055V39.5005L304.939 38.8187V85.4238L276.683 71.2908V24.6857L275.317 24.0039V71.9725L424.79 146.736V98.765L423.426 98.0833Z" fill="#6BBEFF"/>
<path style="mix-blend-mode:screen" d="M424.108 117.408C417.363 113.595 414.878 98.8574 407.096 94.9674C398.592 90.7146 395.75 106.893 386.179 102.104C377.512 97.7688 375.311 83.1189 367.45 79.1877C359.091 75.0064 357.238 87.9216 349.319 83.9629C342.525 80.565 337.841 70.4484 331.83 67.4409C324.925 63.9881 319.664 69.7144 314.859 67.3117C305.767 62.7648 303.359 38.9743 295.877 35.23C286.345 30.4631 286.265 57.1154 275.999 51.9801V71.6278L424.105 145.707V117.405L424.108 117.408Z" fill="url(#paint6_linear_1003_360589)"/>
<path d="M276.001 52.6668V51.3005C280.754 53.6784 283.277 48.1913 285.715 42.8856C286.924 40.2547 288.172 37.5358 289.698 35.8177C291.501 33.7861 293.521 33.3737 295.88 34.5504C299.873 36.5462 302.361 43.067 304.997 49.9727C307.715 57.0983 310.53 64.4631 314.862 66.6321C316.816 67.6107 319.043 67.0362 321.401 66.4259C324.419 65.6452 327.841 64.7627 331.832 66.7613C334.963 68.3255 337.736 71.6629 340.422 74.8903C343.182 78.2084 346.037 81.6393 349.322 83.2832C352.879 85.0619 355.155 83.0441 357.568 80.9108C360.174 78.6043 362.867 76.2181 367.452 78.5108C371.622 80.5974 374.288 85.3835 376.864 90.0102C379.546 94.8266 382.078 99.3736 386.182 101.427C390.747 103.709 393.793 100.715 396.737 97.8176C399.623 94.9778 402.608 92.0445 407.099 94.2905C411.527 96.5063 414.257 101.724 416.895 106.769C419.144 111.065 421.266 115.123 424.155 116.756L424.067 118.073C420.529 116.071 418.116 111.461 415.782 107C413.344 102.337 410.821 97.5152 407.099 95.6541C403.336 93.771 400.681 96.3826 397.869 99.1454C394.725 102.238 391.473 105.435 386.182 102.791C381.407 100.402 378.549 95.2665 375.783 90.3016C373.299 85.8399 370.951 81.6228 367.452 79.8744C363.566 77.9308 361.191 80.0338 358.676 82.2633C356.169 84.4818 353.58 86.7773 349.325 84.6495C345.609 82.7911 342.574 79.1431 339.638 75.6161C337.014 72.4601 334.531 69.4774 331.832 68.1276C328.297 66.3599 325.211 67.1571 322.226 67.9296C319.68 68.5867 317.278 69.208 314.862 68.0011C309.661 65.4005 306.663 57.5409 303.76 49.9424C301.314 43.5371 299.005 37.4864 295.877 35.9221C291.674 33.8191 289.398 38.7702 286.99 44.0099C284.39 49.6703 281.699 55.5258 275.999 52.6723L276.001 52.6668Z" fill="white"/>
<path style="mix-blend-mode:multiply" opacity="0.5" d="M241.703 163.488L422.492 254.554C427.758 257.188 436.293 257.188 441.559 254.554C446.826 251.921 446.826 247.651 441.559 245.018L260.771 153.952C255.504 151.318 246.97 151.318 241.703 153.952C236.437 156.585 236.437 160.855 241.703 163.488V163.488Z" fill="url(#paint7_linear_1003_360589)"/>
<path d="M288.479 213.566C296.918 217.786 302.084 231.279 311.617 236.049C322.73 241.606 325.328 219.65 337.058 225.518C348.091 231.037 351.345 255.508 364.745 262.209C377.725 268.702 381.884 247.724 392.921 251.69V283.302L266.818 220.226C266.818 220.226 279.813 209.233 288.479 213.566V213.566Z" fill="#D6567D"/>
<path style="mix-blend-mode:multiply" opacity="0.5" d="M247.188 220.227H266.815L392.917 283.302H247.188V220.227Z" fill="url(#paint8_linear_1003_360589)"/>
<path style="mix-blend-mode:multiply" opacity="0.5" d="M144.331 212.309H163.958L290.064 275.384H144.331V212.309Z" fill="url(#paint9_linear_1003_360589)"/>
<path d="M194.771 206.184C205.379 211.491 212.905 229.697 221.208 233.849C236.915 241.705 243.952 206.207 256.883 212.673C271.832 220.151 275.332 261.335 290.069 275.385L163.966 212.309C173.015 213.469 184.556 201.07 194.774 206.184H194.771Z" fill="#008AD9"/>
<path d="M164.319 249.411C154.751 244.626 148.161 230.387 139.696 226.152C129.977 221.292 122.568 229.353 115.808 225.97C103.01 219.568 99.6197 186.077 89.0865 180.808C75.6673 174.096 75.5536 211.617 61.1041 204.389L187.502 267.613V238.005C177.666 235.902 174.685 254.597 164.315 249.407L164.319 249.411Z" fill="#6335AD"/>
<path style="mix-blend-mode:multiply" opacity="0.5" d="M41.4763 204.395H61.1034L187.206 267.47H41.4763V204.395Z" fill="url(#paint10_linear_1003_360589)"/>
</g>
<defs>
<linearGradient id="paint0_linear_1003_360589" x1="135.349" y1="304.514" x2="147.927" y2="279.361" gradientUnits="userSpaceOnUse">
<stop stop-color="white"/>
<stop offset="1" stop-color="#587DDF"/>
</linearGradient>
<linearGradient id="paint1_linear_1003_360589" x1="64.9804" y1="206.519" x2="128.906" y2="206.519" gradientUnits="userSpaceOnUse">
<stop stop-color="white"/>
<stop offset="1" stop-color="#587DDF"/>
</linearGradient>
<linearGradient id="paint2_linear_1003_360589" x1="143.548" y1="87.4792" x2="109.302" y2="74.9687" gradientUnits="userSpaceOnUse">
<stop stop-color="#587DE0"/>
<stop offset="1" stop-color="#4A69BD"/>
</linearGradient>
<linearGradient id="paint3_linear_1003_360589" x1="124.726" y1="177.608" x2="197.112" y2="177.608" gradientUnits="userSpaceOnUse">
<stop stop-color="white"/>
<stop offset="1" stop-color="#587DDF"/>
</linearGradient>
<linearGradient id="paint4_linear_1003_360589" x1="197.931" y1="74.4163" x2="209.613" y2="45.9124" gradientUnits="userSpaceOnUse">
<stop stop-color="#587DE0"/>
<stop offset="1" stop-color="#4A69BD"/>
</linearGradient>
<linearGradient id="paint5_linear_1003_360589" x1="350.053" y1="225.809" x2="350.053" y2="-8.89872" gradientUnits="userSpaceOnUse">
<stop stop-color="#2F55BD"/>
<stop offset="0.39" stop-color="#3C85DA"/>
<stop offset="0.8" stop-color="#48B0F4"/>
<stop offset="1" stop-color="#4DC1FF"/>
</linearGradient>
<linearGradient id="paint6_linear_1003_360589" x1="363.272" y1="68.5103" x2="346.753" y2="106.41" gradientUnits="userSpaceOnUse">
<stop stop-color="white"/>
<stop offset="1"/>
</linearGradient>
<linearGradient id="paint7_linear_1003_360589" x1="252.47" y1="204.252" x2="440.254" y2="204.252" gradientUnits="userSpaceOnUse">
<stop stop-color="white"/>
<stop offset="1" stop-color="#587DDF"/>
</linearGradient>
<linearGradient id="paint8_linear_1003_360589" x1="257.509" y1="251.763" x2="389.232" y2="251.763" gradientUnits="userSpaceOnUse">
<stop stop-color="white"/>
<stop offset="1" stop-color="#587DDF"/>
</linearGradient>
<linearGradient id="paint9_linear_1003_360589" x1="154.655" y1="243.845" x2="286.379" y2="243.845" gradientUnits="userSpaceOnUse">
<stop stop-color="white"/>
<stop offset="1" stop-color="#587DDF"/>
</linearGradient>
<linearGradient id="paint10_linear_1003_360589" x1="51.7974" y1="235.931" x2="183.521" y2="235.931" gradientUnits="userSpaceOnUse">
<stop stop-color="white"/>
<stop offset="1" stop-color="#587DDF"/>
</linearGradient>
<clipPath id="clip0_1003_360589">
<rect width="485" height="352" fill="white"/>
</clipPath>
</defs>
</svg>
