<svg width="116" height="117" viewBox="0 0 116 117" fill="none" xmlns="http://www.w3.org/2000/svg">
<circle cx="58" cy="58.5078" r="50.5" stroke="#EEEEEE" stroke-width="15"/>
<path d="M58 8.00781C66.6248 8.00781 75.1058 10.2167 82.6347 14.424C90.1637 18.6313 96.4896 24.6968 101.01 32.0423C105.53 39.3878 108.093 47.7685 108.455 56.3856C108.818 65.0028 106.967 73.5691 103.08 81.2682C99.1929 88.9673 93.3986 95.5426 86.2496 100.367C79.1005 105.192 70.8349 108.105 62.2406 108.829C53.6463 109.554 45.0098 108.065 37.1541 104.505C29.2985 100.944 22.4855 95.4315 17.3647 88.4915" stroke="#B1D4F4" stroke-width="15" stroke-linecap="round"/>
<path d="M47.7866 51.0508V52.3398L42.103 65.2695H39.6225L45.2963 52.9258H37.933V51.0508H47.7866ZM50.4048 64.0977C50.4048 63.7331 50.5285 63.4271 50.7759 63.1797C51.0233 62.9258 51.3585 62.7988 51.7817 62.7988C52.2114 62.7988 52.5467 62.9258 52.7876 63.1797C53.035 63.4271 53.1587 63.7331 53.1587 64.0977C53.1587 64.4622 53.035 64.7682 52.7876 65.0156C52.5467 65.263 52.2114 65.3867 51.7817 65.3867C51.3585 65.3867 51.0233 65.263 50.7759 65.0156C50.5285 64.7682 50.4048 64.4622 50.4048 64.0977ZM63.3062 50.9629H63.5991V52.8867H63.4331C62.5933 52.8867 61.8674 53.0169 61.2554 53.2773C60.6499 53.5378 60.1519 53.8958 59.7612 54.3516C59.3706 54.8073 59.0777 55.3411 58.8823 55.9531C58.6935 56.5586 58.5991 57.2031 58.5991 57.8867V60.123C58.5991 60.6895 58.661 61.1908 58.7847 61.627C58.9084 62.0566 59.0809 62.418 59.3023 62.7109C59.5301 62.9974 59.7905 63.2155 60.0835 63.3652C60.3765 63.515 60.6922 63.5898 61.0308 63.5898C61.3823 63.5898 61.7014 63.5182 61.9878 63.375C62.2743 63.2253 62.5184 63.0202 62.7202 62.7598C62.9221 62.4993 63.0751 62.1901 63.1792 61.832C63.2834 61.474 63.3355 61.0833 63.3355 60.6602C63.3355 60.2565 63.2834 59.8789 63.1792 59.5273C63.0816 59.1693 62.9351 58.8568 62.7398 58.5898C62.5445 58.3164 62.3003 58.1048 62.0073 57.9551C61.7209 57.7988 61.3889 57.7207 61.0112 57.7207C60.5425 57.7207 60.1161 57.8314 59.732 58.0527C59.3543 58.2741 59.0484 58.5638 58.814 58.9219C58.5861 59.2734 58.4624 59.6478 58.4429 60.0449L57.5445 59.752C57.5965 59.1465 57.73 58.6029 57.9448 58.1211C58.1662 57.6393 58.4559 57.2292 58.814 56.8906C59.1721 56.5521 59.5855 56.2949 60.0542 56.1191C60.5295 55.9368 61.0503 55.8457 61.6167 55.8457C62.3068 55.8457 62.9058 55.9759 63.4136 56.2363C63.9214 56.4967 64.3413 56.8516 64.6734 57.3008C65.0119 57.7435 65.2626 58.2513 65.4253 58.8242C65.5946 59.3906 65.6792 59.9831 65.6792 60.6016C65.6792 61.2852 65.5751 61.9232 65.3667 62.5156C65.1584 63.1016 64.8524 63.6159 64.4487 64.0586C64.0516 64.5013 63.5666 64.8464 62.9937 65.0938C62.4273 65.3411 61.7827 65.4648 61.0601 65.4648C60.2984 65.4648 59.618 65.3184 59.0191 65.0254C58.4266 64.7324 57.9221 64.3288 57.5054 63.8145C57.0952 63.3001 56.7827 62.7077 56.5679 62.0371C56.353 61.3665 56.2456 60.6569 56.2456 59.9082V58.9316C56.2456 57.8509 56.3823 56.832 56.6558 55.875C56.9292 54.9115 57.3491 54.0618 57.9155 53.3262C58.4885 52.5905 59.2209 52.0143 60.1128 51.5977C61.0047 51.1745 62.0692 50.9629 63.3062 50.9629ZM67.731 56.6836V56.082C67.731 55.6497 67.8248 55.2565 68.0123 54.9023C68.1998 54.5482 68.4732 54.2643 68.8326 54.0508C69.192 53.8372 69.6242 53.7305 70.1295 53.7305C70.6503 53.7305 71.0878 53.8372 71.442 54.0508C71.8013 54.2643 72.0748 54.5482 72.2623 54.9023C72.4498 55.2565 72.5435 55.6497 72.5435 56.082V56.6836C72.5435 57.1055 72.4498 57.4935 72.2623 57.8477C72.08 58.2018 71.8091 58.4857 71.4498 58.6992C71.0956 58.9128 70.6607 59.0195 70.1451 59.0195C69.6347 59.0195 69.1972 58.9128 68.8326 58.6992C68.4732 58.4857 68.1998 58.2018 68.0123 57.8477C67.8248 57.4935 67.731 57.1055 67.731 56.6836ZM69.0357 56.082V56.6836C69.0357 56.8919 69.0748 57.0898 69.1529 57.2773C69.2362 57.4648 69.3612 57.6159 69.5279 57.7305C69.6946 57.8451 69.9003 57.9023 70.1451 57.9023C70.3951 57.9023 70.5982 57.8451 70.7545 57.7305C70.9159 57.6159 71.0357 57.4648 71.1138 57.2773C71.192 57.0898 71.231 56.8919 71.231 56.6836V56.082C71.231 55.8685 71.1893 55.668 71.106 55.4805C71.0279 55.2878 70.9081 55.1341 70.7466 55.0195C70.5852 54.9049 70.3795 54.8477 70.1295 54.8477C69.8899 54.8477 69.6867 54.9049 69.5201 55.0195C69.3586 55.1341 69.2362 55.2878 69.1529 55.4805C69.0748 55.668 69.0357 55.8685 69.0357 56.082ZM73.2154 63.0898V62.4805C73.2154 62.0534 73.3091 61.6628 73.4966 61.3086C73.6893 60.9544 73.9654 60.6706 74.3248 60.457C74.6841 60.2435 75.1164 60.1367 75.6216 60.1367C76.1425 60.1367 76.58 60.2435 76.9341 60.457C77.2935 60.6706 77.5643 60.9544 77.7466 61.3086C77.9341 61.6628 78.0279 62.0534 78.0279 62.4805V63.0898C78.0279 63.5169 77.9341 63.9076 77.7466 64.2617C77.5643 64.6159 77.2961 64.8997 76.942 65.1133C76.5878 65.3268 76.1555 65.4336 75.6451 65.4336C75.1295 65.4336 74.6893 65.3268 74.3248 65.1133C73.9654 64.8997 73.6893 64.6159 73.4966 64.2617C73.3091 63.9076 73.2154 63.5169 73.2154 63.0898ZM74.5279 62.4805V63.0898C74.5279 63.2982 74.5696 63.4961 74.6529 63.6836C74.7414 63.8711 74.869 64.0247 75.0357 64.1445C75.2024 64.2591 75.4029 64.3164 75.6373 64.3164C75.9029 64.3164 76.1164 64.2591 76.2779 64.1445C76.4393 64.0247 76.5539 63.8737 76.6216 63.6914C76.6946 63.5039 76.731 63.3034 76.731 63.0898V62.4805C76.731 62.2669 76.6893 62.0664 76.606 61.8789C76.5279 61.6914 76.4055 61.5404 76.2388 61.4258C76.0774 61.3112 75.8716 61.2539 75.6216 61.2539C75.3768 61.2539 75.1737 61.3112 75.0123 61.4258C74.8508 61.5404 74.7284 61.6914 74.6451 61.8789C74.567 62.0664 74.5279 62.2669 74.5279 62.4805ZM76.0904 55.5195L70.5357 64.4102L69.5748 63.8555L75.1295 54.9648L76.0904 55.5195Z" fill="#191919"/>
</svg>
