<svg width="730" height="31" viewBox="0 0 730 31" fill="none" xmlns="http://www.w3.org/2000/svg">
<g clip-path="url(#clip0_236_118731)">
<path d="M57.8522 11.3578C56.1688 7.81068 52.4841 5.53599 48.4245 5.53599H38.9559V5.57123C36.8038 5.7435 34.9411 6.54218 33.3596 7.97121C31.5662 9.59598 30.6694 11.5535 30.6694 13.84L30.6491 21.3531C30.6491 22.3632 29.7931 23.1815 28.7374 23.1815H16.2119V31H30.0051C32.5322 31 34.6965 30.1896 36.49 28.5648C38.2834 26.94 39.1801 24.9864 39.1801 22.696H39.2046V16.2204C39.2046 14.6387 40.5415 13.3545 42.1882 13.3545H46.362C47.7275 13.3545 48.9747 14.114 49.5535 15.3042L53.9678 24.356C56.0058 28.784 58.2517 31 60.6973 31H63.1428C65.5884 31 67.8343 28.784 69.8723 24.356L75.2363 13.3545H80.4943V22.696H80.5188C80.5188 24.9864 81.4155 26.94 83.2089 28.5648C85.0024 30.1896 87.1667 31 89.6938 31H93.9532V23.248H89.6938C89.2699 23.248 89.058 23.064 89.058 22.696V13.3545H90.7088V13.284H93.9492V5.53599H89.0539V0H80.4903V5.53599H71.034C69.5788 5.53599 68.2623 6.35426 67.6631 7.63059L61.9119 19.928L57.84 11.3539L57.8522 11.3578Z" fill="white"/>
<path d="M19.4235 22.6957C19.4235 24.986 18.2088 26.9397 16.4154 28.5644C14.622 30.1892 12.4576 30.9997 9.93049 30.9997H0.144043V23.1811H8.66286C9.71446 23.1811 10.5704 22.3629 10.5745 21.3528L10.5949 13.8396C10.5949 11.5532 11.4916 9.59563 13.285 7.97086C14.8665 6.54183 16.7292 5.74315 18.8814 5.57088V5.53564H30.0455V13.3542H21.975C20.5688 13.3542 19.4275 14.4504 19.4275 15.8011V22.6957H19.4235Z" fill="white"/>
</g>
<g clip-path="url(#clip1_236_118731)">
<path d="M258.666 4.2226C258.666 1.89052 256.708 0 254.292 0C251.876 0 249.917 1.89052 249.917 4.2226V26.7668C249.917 29.0989 251.876 30.9894 254.292 30.9894C256.708 30.9894 258.666 29.0989 258.666 26.7668V4.2226Z" fill="white"/>
<path d="M158.021 0.0283203C151.889 0.0283203 146.898 4.72207 146.678 10.5884H146.667V26.742C146.667 29.0906 148.637 30.9929 151.07 30.9929C153.503 30.9929 155.474 29.0906 155.474 26.742V11.0453C155.474 9.69922 156.601 8.56917 158.039 8.56917C159.478 8.56917 160.55 9.65316 160.55 10.9922C160.55 12.0054 159.907 12.8697 158.994 13.2346C157.302 13.8368 156.091 15.4026 156.091 17.2446C156.091 19.6039 158.072 21.5204 160.52 21.5204C161.261 21.5204 161.959 21.3433 162.572 21.0315V21.0386C166.575 19.3453 169.372 15.484 169.372 10.9958C169.379 4.93816 164.293 0.0283203 158.021 0.0283203Z" fill="white"/>
<path d="M184.124 0.0567137C177.717 -0.386093 172.377 4.49895 172.377 10.5884C172.377 10.5884 172.377 10.592 172.377 10.5955H172.359V26.8518C172.359 29.1402 174.282 30.9965 176.653 30.9965C179.023 30.9965 180.946 29.1402 180.946 26.8518V21.8251C180.946 21.8251 180.95 21.8145 180.957 21.8145C182.833 21.7153 184.323 20.2168 184.323 18.3818C184.323 16.5468 182.833 15.0519 180.957 14.9492C180.95 14.9492 180.946 14.9456 180.946 14.9386V10.8187L180.965 10.8116C180.965 9.53632 182.051 8.509 183.379 8.54089C184.708 8.57277 185.669 9.66739 185.669 10.9143V26.8447C185.669 29.1332 187.592 30.9894 189.963 30.9894C192.334 30.9894 194.257 29.1332 194.257 26.8447V10.8081C194.257 5.23932 189.879 0.457011 184.124 0.0567137V0.0567137Z" fill="white"/>
<path d="M219.887 10.5884C219.887 4.75749 214.992 0.0283203 208.947 0.0283203C202.903 0.0283203 198.008 4.75749 198.008 10.5884H197.997V26.8447C197.997 29.1331 199.92 30.9894 202.29 30.9894C204.661 30.9894 206.584 29.1331 206.584 26.8447V10.8045C206.584 9.55043 207.637 8.53375 208.936 8.53375C210.236 8.53375 211.289 9.55043 211.289 10.8045V26.8447C211.289 29.1331 213.212 30.9894 215.582 30.9894C217.953 30.9894 219.876 29.1331 219.876 26.8447V10.8895C219.876 10.7903 219.884 10.6911 219.884 10.5919L219.887 10.5884Z" fill="white"/>
<path d="M246.174 25.0595C246.141 24.9745 243.771 19.0727 242.02 14.7155C241.723 13.9716 241.774 13.1391 242.16 12.4342L245.4 6.52538C245.965 5.65747 246.222 4.58765 245.998 3.44698C245.653 1.68639 244.149 0.297744 242.31 0.0462302C240.211 -0.240708 238.347 0.896419 237.598 2.60388L233.062 10.8684C232.658 11.6053 232.427 12.4058 232.369 13.2171V4.23695C232.369 1.90602 230.409 0.0143482 227.994 0.0143482C225.579 0.0143482 223.62 1.90602 223.62 4.23695V26.7811C223.62 29.112 225.579 31.0037 227.994 31.0037C230.409 31.0037 232.369 29.112 232.369 26.7811V14.0177C232.409 14.6057 232.537 15.1938 232.761 15.757L237.771 28.2867L237.785 28.2796C238.714 30.4688 241.29 31.5528 243.587 30.6955C245.914 29.8276 247.074 27.3054 246.174 25.0595V25.0595Z" fill="white"/>
</g>
<g clip-path="url(#clip2_236_118731)">
<path d="M311.333 15.3995C311.333 7.56265 315.807 3 322.3 3C328.793 3 333.266 7.58629 333.266 15.3995C333.266 23.2128 328.793 28 322.3 28C315.807 28 311.333 23.2128 311.333 15.3995ZM328.252 15.3995C328.252 10.2222 325.931 7.1253 322.288 7.1253C318.644 7.1253 316.324 10.2222 316.324 15.3995C316.324 20.5768 318.644 23.8274 322.288 23.8274C325.931 23.8274 328.252 20.5414 328.252 15.3995V15.3995Z" fill="white"/>
<path d="M335.671 15.6005C335.671 7.65721 340.878 3 347.071 3C350.185 3 352.662 4.46572 354.261 6.09693L351.712 9.15839C350.45 7.98818 349.031 7.13712 347.179 7.13712C343.475 7.13712 340.686 10.2577 340.686 15.435C340.686 20.6123 343.199 23.8392 347.083 23.8392C349.199 23.8392 350.822 22.8582 352.145 21.4634L354.73 24.4539C352.71 26.7707 350.089 28 346.914 28C340.722 28 335.683 23.6383 335.683 15.6005H335.671Z" fill="white"/>
<path d="M357.496 3.42529H372.527V7.45603H362.39V13.0234H371V17.066H362.39V23.508H372.887V27.5506H357.484V3.42529H357.496Z" fill="white"/>
<path d="M381.413 3.42529H387.173L395.061 27.5506H389.926L388.207 21.3686H380.258L378.539 27.5506H373.573L381.413 3.42529ZM381.317 17.6215H387.148L386.415 14.9856C385.657 12.4797 384.996 9.71371 384.299 7.10142H384.13C383.505 9.73735 382.772 12.4678 382.038 14.9856L381.305 17.6215H381.317Z" fill="white"/>
<path d="M396.768 3.42529H401.77L408.889 16.2858L411.342 21.4986H411.51C411.282 18.9927 410.885 15.8012 410.885 13.0707V3.42529H415.526V27.5506H410.56L403.478 14.6546L400.989 9.4773H400.82C401.049 12.0778 401.422 15.1038 401.422 17.8816V27.5506H396.78V3.42529H396.768Z" fill="white"/>
<path d="M417.246 3.42529H422.381L425.627 15.1747C426.385 17.8461 426.914 20.2574 427.683 22.9525H427.852C428.645 20.2456 429.174 17.8461 429.944 15.1747L433.106 3.42529H438.073L430.593 27.5506H424.725L417.246 3.42529Z" fill="white"/>
<path d="M439.72 3.42529H444.626V27.5506H439.72V3.42529Z" fill="white"/>
<path d="M449.496 3.42529H464.527V7.45603H454.39V13.0234H463V17.066H454.39V23.508H464.887V27.5506H449.484V3.42529H449.496Z" fill="white"/>
<path d="M466.318 3.42529H471.285L473.232 15.2102C473.593 17.7515 473.99 20.2929 474.363 22.8934H474.495C474.988 20.2929 475.517 17.7161 476.046 15.2102L478.896 3.42529H483.105L485.918 15.2102C486.447 17.6806 486.94 20.2929 487.47 22.8934H487.638C487.999 20.2929 488.371 17.7161 488.732 15.2102L490.68 3.42529H495.322L490.788 27.5506H484.692L481.938 15.6357C481.541 13.7444 481.181 11.8887 480.88 10.0329H480.748C480.411 11.8887 480.086 13.7444 479.69 15.6357L477.008 27.5506H471.02L466.318 3.42529Z" fill="white"/>
</g>
<g clip-path="url(#clip3_236_118731)">
<path d="M595.575 4.2937C595.575 1.92236 593.614 0 591.194 0C588.774 0 586.812 1.92236 586.812 4.2937V26.7063C586.812 29.0776 588.774 31 591.194 31C593.614 31 595.575 29.0776 595.575 26.7063V4.2937Z" fill="white"/>
<path d="M619.105 22.4126H608.192V4.2937C608.205 1.92699 606.238 0 603.823 0C601.408 0 599.442 1.92699 599.442 4.2937V26.7063C599.442 29.073 601.408 31 603.823 31H619.105C621.52 31 623.487 29.073 623.487 26.7063C623.487 24.3396 621.52 22.4126 619.105 22.4126V22.4126Z" fill="white"/>
<path d="M697.641 11.7042H687.704V11.6783C687.704 9.97121 689.116 8.57447 690.871 8.57447H697.681C700.096 8.57447 702.062 6.64748 702.062 4.28077C702.062 1.91406 700.083 0 697.667 0H690.924C684.299 0 678.941 5.26366 678.941 11.743V14.9633C678.941 17.3559 680.92 19.2829 683.349 19.2829H693.286V19.3087C693.286 21.0159 691.874 22.4126 690.119 22.4126H683.309C680.894 22.4126 678.928 24.3396 678.928 26.7063C678.928 29.073 680.894 31 683.309 31H690.436C696.849 31 702.049 25.9045 702.049 19.6191V16.0367C702.049 13.6441 700.069 11.7171 697.641 11.7171V11.7042Z" fill="white"/>
<path d="M725.579 11.7042H715.642V11.6783C715.642 9.97121 717.054 8.57447 718.809 8.57447H725.619C728.034 8.57447 730 6.64748 730 4.28077C730 1.91406 728.034 0 725.619 0H718.875C712.25 0 706.879 5.26366 706.879 11.743V14.9633C706.879 17.3559 708.858 19.2829 711.287 19.2829H721.224V19.3087C721.224 21.0159 719.812 22.4126 718.057 22.4126H711.247C708.832 22.4126 706.866 24.3396 706.866 26.7063C706.866 29.073 708.832 31 711.247 31H718.374C724.787 31 729.987 25.9045 729.987 19.6191V16.0367C729.987 13.6441 728.007 11.7171 725.579 11.7171V11.7042Z" fill="white"/>
<path d="M567.954 0H552.54C550.032 0 548 1.99166 548 4.44889C548 6.90613 550.032 8.89779 552.54 8.89779H553.464C552.566 10.8248 552.051 12.9458 552.051 15.1961C552.051 23.5895 558.993 30.3922 567.558 30.3922C576.123 30.3922 583.064 23.5895 583.064 15.1961C583.064 6.80267 576.334 0.206925 567.954 0ZM567.571 21.4944C564.021 21.4944 561.144 18.675 561.144 15.1961C561.144 11.7171 564.021 8.89779 567.571 8.89779C571.121 8.89779 573.998 11.7171 573.998 15.1961C573.998 18.675 571.121 21.4944 567.571 21.4944V21.4944Z" fill="white"/>
<path d="M636.789 0H628.66V0.0258657C626.377 0.18106 624.582 2.01752 624.582 4.2937V26.7063C624.582 29.073 626.548 31 628.963 31C631.378 31 633.345 29.073 633.345 26.7063V22.917H636.802C643.256 22.917 648.495 17.7826 648.495 11.4585C648.495 5.13433 643.256 0 636.789 0ZM636.789 15.2478H633.332V7.66917H636.789C638.927 7.66917 640.656 9.36337 640.656 11.4585C640.656 13.5536 638.927 15.2478 636.789 15.2478Z" fill="white"/>
<path d="M675.457 17.3429C675.259 7.73383 667.261 0 657.403 0H655.661C653.246 0 651.28 1.92699 651.28 4.2937V26.7063C651.28 29.073 653.246 31 655.661 31C658.076 31 660.043 29.073 660.043 26.7063V23.2403H667.182V26.9262C667.182 29.1765 669.043 31 671.339 31C673.636 31 675.496 29.1765 675.496 26.9262V17.3429H675.483H675.457ZM660.043 14.6529V8.88486C662.986 9.64789 665.348 11.8335 666.285 14.6529H660.043Z" fill="white"/>
</g>
<defs>
<clipPath id="clip0_236_118731">
<rect width="94" height="31" fill="white"/>
</clipPath>
<clipPath id="clip1_236_118731">
<rect width="112" height="31" fill="white" transform="translate(146.667)"/>
</clipPath>
<clipPath id="clip2_236_118731">
<rect width="184" height="25" fill="white" transform="translate(311.333 3)"/>
</clipPath>
<clipPath id="clip3_236_118731">
<rect width="182" height="31" fill="white" transform="translate(548)"/>
</clipPath>
</defs>
</svg>
