<svg width="520" height="23" viewBox="0 0 520 23" fill="none" xmlns="http://www.w3.org/2000/svg">
<g clip-path="url(#clip0_236_118793)">
<path d="M44.3122 8.42675C43.0228 5.79502 40.2005 4.10735 37.0909 4.10735H29.8384V4.13349C28.19 4.2613 26.7632 4.85388 25.5519 5.91412C24.1782 7.1196 23.4913 8.57199 23.4913 10.2684L23.4757 15.8426C23.4757 16.5921 22.8201 17.1992 22.0115 17.1992H12.4175V23H22.9824C24.9181 23 26.5759 22.3987 27.9496 21.1932C29.3233 19.9877 30.0101 18.5383 30.0101 16.839H30.0289V12.0345C30.0289 10.8609 31.0529 9.90818 32.3142 9.90818H35.5112C36.557 9.90818 37.5124 10.4717 37.9557 11.3548L41.3369 18.0706C42.8979 21.3559 44.6181 23 46.4914 23H48.3646C50.2378 23 51.958 21.3559 53.5191 18.0706L57.6277 9.90818H61.6551V16.839H61.6738C61.6738 18.5383 62.3607 19.9877 63.7343 21.1932C65.108 22.3987 66.7658 23 68.7015 23H71.964V17.2485H68.7015C68.3768 17.2485 68.2145 17.112 68.2145 16.839V9.90818H69.4789V9.8559H71.9609V4.10735H68.2113V0H61.652V4.10735H54.4088C53.2943 4.10735 52.2859 4.71445 51.8269 5.6614L47.4217 14.7853L44.3028 8.42384L44.3122 8.42675Z" fill="white"/>
<path d="M14.8776 16.8386C14.8776 18.5379 13.9472 19.9873 12.5735 21.1928C11.1998 22.3983 9.54202 22.9996 7.60636 22.9996H0.110352V17.1987H6.6354C7.44089 17.1987 8.09652 16.5917 8.09964 15.8422L8.11525 10.268C8.11525 8.57157 8.80209 7.11918 10.1758 5.9137C11.3871 4.85346 12.8139 4.26089 14.4623 4.13308V4.10693H23.0136V9.90777H16.832C15.7549 9.90777 14.8807 10.7211 14.8807 11.7233V16.8386H14.8776Z" fill="white"/>
</g>
<g clip-path="url(#clip1_236_118793)">
<path d="M185 3.1329C185 1.40265 183.496 0 181.641 0C179.786 0 178.282 1.40265 178.282 3.1329V19.8592C178.282 21.5895 179.786 22.9921 181.641 22.9921C183.496 22.9921 185 21.5895 185 19.8592V3.1329Z" fill="white"/>
<path d="M107.719 0.0209961C103.01 0.0209961 99.1775 3.50346 99.0085 7.85587H99V19.8408C99 21.5833 100.513 22.9947 102.381 22.9947C104.25 22.9947 105.763 21.5833 105.763 19.8408V8.19492C105.763 7.19618 106.628 6.35776 107.733 6.35776C108.837 6.35776 109.66 7.16201 109.66 8.15549C109.66 8.90718 109.167 9.54848 108.465 9.81919C107.166 10.266 106.236 11.4277 106.236 12.7944C106.236 14.5448 107.758 15.9667 109.638 15.9667C110.207 15.9667 110.742 15.8353 111.213 15.604V15.6093C114.287 14.353 116.434 11.4881 116.434 8.15812C116.44 3.66378 112.534 0.0209961 107.719 0.0209961Z" fill="white"/>
<path d="M127.762 0.0421881C122.842 -0.286346 118.742 3.33804 118.742 7.85604C118.742 7.85604 118.742 7.85867 118.742 7.86129H118.728V19.9224C118.728 21.6203 120.205 22.9975 122.025 22.9975C123.845 22.9975 125.322 21.6203 125.322 19.9224V16.1929C125.322 16.1929 125.325 16.185 125.33 16.185C126.77 16.1114 127.914 14.9997 127.914 13.6382C127.914 12.2768 126.77 11.1677 125.33 11.0914C125.325 11.0914 125.322 11.0888 125.322 11.0836V8.02688L125.336 8.02162C125.336 7.07544 126.17 6.31324 127.19 6.3369C128.21 6.36055 128.949 7.17269 128.949 8.09784V19.9172C128.949 21.615 130.425 22.9923 132.246 22.9923C134.066 22.9923 135.543 21.615 135.543 19.9172V8.01899C135.543 3.88735 132.181 0.339183 127.762 0.0421881Z" fill="white"/>
<path d="M155.223 7.85587C155.223 3.52974 151.464 0.0209961 146.823 0.0209961C142.182 0.0209961 138.423 3.52974 138.423 7.85587H138.414V19.917C138.414 21.6149 139.891 22.9921 141.711 22.9921C143.531 22.9921 145.008 21.6149 145.008 19.917V8.0162C145.008 7.08579 145.817 6.33147 146.814 6.33147C147.812 6.33147 148.621 7.08579 148.621 8.0162V19.917C148.621 21.6149 150.097 22.9921 151.918 22.9921C153.738 22.9921 155.214 21.6149 155.214 19.917V8.07928C155.214 8.00568 155.22 7.93209 155.22 7.8585L155.223 7.85587Z" fill="white"/>
<path d="M175.408 18.5925C175.382 18.5295 173.562 14.1508 172.218 10.918C171.99 10.366 172.029 9.74841 172.325 9.22538L174.813 4.84142C175.247 4.1975 175.444 3.40376 175.273 2.55746C175.008 1.25121 173.852 0.220923 172.441 0.0343156C170.829 -0.178574 169.397 0.665101 168.822 1.93193L165.339 8.06368C165.029 8.61036 164.852 9.20435 164.807 9.80623V3.14356C164.807 1.41416 163.302 0.0106612 161.448 0.0106612C159.594 0.0106612 158.089 1.41416 158.089 3.14356V19.8699C158.089 21.5993 159.594 23.0028 161.448 23.0028C163.302 23.0028 164.807 21.5993 164.807 19.8699V10.4002C164.838 10.8365 164.936 11.2728 165.108 11.6907L168.955 20.9869L168.966 20.9816C169.679 22.6059 171.657 23.4102 173.421 22.7741C175.208 22.1302 176.098 20.2589 175.408 18.5925Z" fill="white"/>
</g>
<g clip-path="url(#clip2_236_118793)">
<path d="M212 11.4236C212 5.46761 215.428 2 220.404 2C225.379 2 228.807 5.48558 228.807 11.4236C228.807 17.3617 225.379 21 220.404 21C215.428 21 212 17.3617 212 11.4236ZM224.965 11.4236C224.965 7.48889 223.186 5.13522 220.394 5.13522C217.602 5.13522 215.824 7.48889 215.824 11.4236C215.824 15.3584 217.602 17.8288 220.394 17.8288C223.186 17.8288 224.965 15.3314 224.965 11.4236Z" fill="white"/>
<path d="M230.65 11.5764C230.65 5.53948 234.64 2 239.385 2C241.772 2 243.67 3.11395 244.895 4.35366L242.942 6.68038C241.975 5.79102 240.887 5.14421 239.468 5.14421C236.63 5.14421 234.492 7.51584 234.492 11.4506C234.492 15.3853 236.418 17.8378 239.394 17.8378C241.016 17.8378 242.26 17.0922 243.274 16.0322L245.255 18.305C243.707 20.0657 241.698 21 239.265 21C234.52 21 230.659 17.6851 230.659 11.5764H230.65Z" fill="white"/>
<path d="M247.374 2.32324H258.893V5.3866H251.125V9.6178H257.722V12.6901H251.125V17.5861H259.169V20.6585H247.365V2.32324H247.374Z" fill="white"/>
<path d="M265.702 2.32324H270.116L276.161 20.6585H272.226L270.908 15.9601H264.818L263.5 20.6585H259.694L265.702 2.32324ZM265.628 13.1124H270.097L269.535 11.1091C268.955 9.20457 268.448 7.10244 267.914 5.1171H267.785C267.305 7.12041 266.743 9.19558 266.181 11.1091L265.619 13.1124H265.628Z" fill="white"/>
<path d="M277.469 2.32324H281.302L286.757 12.0972L288.637 16.0589H288.766C288.591 14.1544 288.287 11.7289 288.287 9.65374V2.32324H291.843V20.6585H288.038L282.61 10.8575L280.703 6.92277H280.574C280.749 8.89913 281.035 11.1989 281.035 13.31V20.6585H277.478V2.32324H277.469Z" fill="white"/>
<path d="M293.161 2.32324H297.096L299.584 11.2528C300.164 13.2831 300.57 15.1157 301.159 17.1639H301.288C301.896 15.1067 302.302 13.2831 302.892 11.2528L305.315 2.32324H309.121L303.389 20.6585H298.893L293.161 2.32324Z" fill="white"/>
<path d="M310.383 2.32324H314.142V20.6585H310.383V2.32324Z" fill="white"/>
<path d="M317.874 2.32324H329.393V5.3866H321.625V9.6178H328.222V12.6901H321.625V17.5861H329.669V20.6585H317.865V2.32324H317.874Z" fill="white"/>
<path d="M330.766 2.32324H334.571L336.064 11.2797C336.34 13.2112 336.644 15.1426 336.93 17.119H337.031C337.409 15.1426 337.815 13.1842 338.22 11.2797L340.404 2.32324H343.629L345.785 11.2797C346.191 13.1573 346.568 15.1426 346.974 17.119H347.103C347.379 15.1426 347.665 13.1842 347.941 11.2797L349.434 2.32324H352.991L349.517 20.6585H344.845L342.735 11.6031C342.431 10.1658 342.155 8.75539 341.924 7.34499H341.823C341.565 8.75539 341.316 10.1658 341.012 11.6031L338.957 20.6585H334.368L330.766 2.32324Z" fill="white"/>
</g>
<g clip-path="url(#clip3_236_118793)">
<path d="M416.596 3.18565C416.596 1.42626 415.087 0 413.226 0C411.364 0 409.855 1.42626 409.855 3.18565V19.8144C409.855 21.5737 411.364 23 413.226 23C415.087 23 416.596 21.5737 416.596 19.8144V3.18565Z" fill="white"/>
<path d="M434.697 16.6287H426.301V3.18565C426.311 1.4297 424.799 0 422.941 0C421.083 0 419.571 1.4297 419.571 3.18565V19.8144C419.571 21.5703 421.083 23 422.941 23H434.697C436.554 23 438.067 21.5703 438.067 19.8144C438.067 18.0584 436.554 16.6287 434.697 16.6287Z" fill="white"/>
<path d="M495.108 8.68377H487.464V8.66458C487.464 7.398 488.55 6.3617 489.901 6.3617H495.139C496.996 6.3617 498.509 4.932 498.509 3.17605C498.509 1.42011 496.986 0 495.129 0H489.941C484.845 0 480.724 3.9053 480.724 8.71256V11.1018C480.724 12.8769 482.246 14.3066 484.114 14.3066H491.758V14.3258C491.758 15.5924 490.672 16.6287 489.322 16.6287H484.084C482.226 16.6287 480.713 18.0584 480.713 19.8144C480.713 21.5703 482.226 23 484.084 23H489.566C494.499 23 498.499 19.2194 498.499 14.5561V11.8982C498.499 10.1231 496.976 8.69337 495.108 8.69337V8.68377Z" fill="white"/>
<path d="M516.599 8.68377H508.955V8.66458C508.955 7.398 510.041 6.3617 511.391 6.3617H516.629C518.487 6.3617 520 4.932 520 3.17605C520 1.42011 518.487 0 516.629 0H511.442C506.346 0 502.214 3.9053 502.214 8.71256V11.1018C502.214 12.8769 503.737 14.3066 505.605 14.3066H513.249V14.3258C513.249 15.5924 512.163 16.6287 510.813 16.6287H505.574C503.717 16.6287 502.204 18.0584 502.204 19.8144C502.204 21.5703 503.717 23 505.574 23H511.056C515.99 23 519.99 19.2194 519.99 14.5561V11.8982C519.99 10.1231 518.467 8.69337 516.599 8.69337V8.68377Z" fill="white"/>
<path d="M395.349 0H383.492C381.563 0 380 1.47768 380 3.30079C380 5.12391 381.563 6.60159 383.492 6.60159H384.203C383.512 8.03129 383.117 9.60492 383.117 11.2745C383.117 17.5019 388.456 22.549 395.045 22.549C401.633 22.549 406.973 17.5019 406.973 11.2745C406.973 5.04714 401.795 0.153525 395.349 0ZM395.055 15.9474C392.324 15.9474 390.111 13.8557 390.111 11.2745C390.111 8.69337 392.324 6.60159 395.055 6.60159C397.786 6.60159 399.999 8.69337 399.999 11.2745C399.999 13.8557 397.786 15.9474 395.055 15.9474Z" fill="white"/>
<path d="M448.3 0H442.046V0.0191907C440.29 0.134335 438.91 1.49687 438.91 3.18565V19.8144C438.91 21.5703 440.422 23 442.28 23C444.138 23 445.65 21.5703 445.65 19.8144V17.0029H448.31C453.274 17.0029 457.304 13.1936 457.304 8.50146C457.304 3.80935 453.274 0 448.3 0ZM448.3 11.3129H445.64V5.69003H448.3C449.944 5.69003 451.274 6.94702 451.274 8.50146C451.274 10.0559 449.944 11.3129 448.3 11.3129Z" fill="white"/>
<path d="M478.043 12.8673C477.891 5.73801 471.739 0 464.156 0H462.816C460.958 0 459.446 1.4297 459.446 3.18565V19.8144C459.446 21.5703 460.958 23 462.816 23C464.674 23 466.186 21.5703 466.186 19.8144V17.2428H471.678V19.9775C471.678 21.6471 473.11 23 474.876 23C476.643 23 478.074 21.6471 478.074 19.9775V12.8673H478.064H478.043ZM466.186 10.8715V6.59199C468.45 7.15811 470.267 8.77973 470.988 10.8715H466.186Z" fill="white"/>
</g>
<defs>
<clipPath id="clip0_236_118793">
<rect width="72" height="23" fill="white"/>
</clipPath>
<clipPath id="clip1_236_118793">
<rect width="86" height="23" fill="white" transform="translate(99)"/>
</clipPath>
<clipPath id="clip2_236_118793">
<rect width="141" height="19" fill="white" transform="translate(212 2)"/>
</clipPath>
<clipPath id="clip3_236_118793">
<rect width="140" height="23" fill="white" transform="translate(380)"/>
</clipPath>
</defs>
</svg>
