<svg width="116" height="117" viewBox="0 0 116 117" fill="none" xmlns="http://www.w3.org/2000/svg">
<circle cx="58" cy="58.5078" r="50.5" stroke="#EEEEEE" stroke-width="15"/>
<path d="M58 8.00781C64.6318 8.00781 71.1986 9.31403 77.3255 11.8519C83.4525 14.3898 89.0195 18.1096 93.7089 22.7989C98.3983 27.4883 102.118 33.0554 104.656 39.1823C107.194 45.3092 108.5 51.8761 108.5 58.5078C108.5 65.1396 107.194 71.7064 104.656 77.8333C102.118 83.9603 98.3982 89.5274 93.7089 94.2167C89.0195 98.9061 83.4524 102.626 77.3255 105.164C71.1986 107.702 64.6317 109.008 58 109.008C51.3682 109.008 44.8014 107.702 38.6745 105.164C32.5475 102.626 26.9804 98.9061 22.2911 94.2167C17.6017 89.5273 13.8819 83.9602 11.3441 77.8333C8.80621 71.7064 7.5 65.1395 7.5 58.5078C7.5 51.876 8.80623 45.3092 11.3441 39.1823C13.882 33.0553 17.6018 27.4883 22.2911 22.7989C26.9805 18.1095 32.5476 14.3897 38.6745 11.8519C44.8015 9.31403 51.3683 8.00781 58 8.00781L58 8.00781Z" stroke="#1C49A6" stroke-width="15" stroke-linecap="round"/>
<path d="M29.8784 57.0957H31.2846C31.8315 57.0957 32.284 57.0013 32.642 56.8125C33.0066 56.6237 33.2768 56.3633 33.4526 56.0312C33.6284 55.6992 33.7163 55.3184 33.7163 54.8887C33.7163 54.4395 33.6349 54.0553 33.4721 53.7363C33.3159 53.4108 33.075 53.1602 32.7495 52.9844C32.4304 52.8086 32.0235 52.7207 31.5288 52.7207C31.1121 52.7207 30.7345 52.8053 30.3959 52.9746C30.0639 53.1374 29.8002 53.3717 29.6049 53.6777C29.4096 53.9772 29.312 54.3353 29.312 54.752H26.9487C26.9487 53.9967 27.1472 53.3262 27.5444 52.7402C27.9415 52.1543 28.4819 51.6953 29.1655 51.3633C29.8556 51.0247 30.6303 50.8555 31.4897 50.8555C32.4077 50.8555 33.2084 51.0085 33.892 51.3145C34.5821 51.6139 35.1192 52.0632 35.5034 52.6621C35.8875 53.2611 36.0795 54.0033 36.0795 54.8887C36.0795 55.2923 35.9851 55.7025 35.7963 56.1191C35.6075 56.5358 35.3276 56.9167 34.9565 57.2617C34.5854 57.6003 34.1232 57.877 33.5698 58.0918C33.0164 58.3001 32.3751 58.4043 31.6459 58.4043H29.8784V57.0957ZM29.8784 58.9316V57.6426H31.6459C32.4793 57.6426 33.1889 57.7402 33.7748 57.9355C34.3673 58.1309 34.8491 58.401 35.2202 58.7461C35.5913 59.0846 35.8614 59.472 36.0307 59.9082C36.2065 60.3444 36.2944 60.8066 36.2944 61.2949C36.2944 61.959 36.1739 62.5514 35.933 63.0723C35.6987 63.5866 35.3634 64.0228 34.9272 64.3809C34.491 64.7389 33.9799 65.0091 33.394 65.1914C32.8146 65.3737 32.183 65.4648 31.4995 65.4648C30.8875 65.4648 30.3015 65.3802 29.7416 65.2109C29.1817 65.0417 28.6804 64.791 28.2377 64.459C27.795 64.1204 27.4435 63.7005 27.183 63.1992C26.9291 62.6914 26.8022 62.1055 26.8022 61.4414H29.1557C29.1557 61.8646 29.2534 62.2389 29.4487 62.5645C29.6505 62.8835 29.9304 63.1341 30.2885 63.3164C30.6531 63.4987 31.0698 63.5898 31.5385 63.5898C32.0333 63.5898 32.4597 63.502 32.8178 63.3262C33.1759 63.1504 33.4493 62.89 33.6381 62.5449C33.8334 62.1999 33.9311 61.7832 33.9311 61.2949C33.9311 60.7415 33.8237 60.2923 33.6088 59.9473C33.394 59.6022 33.088 59.3483 32.6909 59.1855C32.2937 59.0163 31.825 58.9316 31.2846 58.9316H29.8784ZM48.2095 56.9688V59.293C48.2095 60.4062 48.0988 61.3568 47.8774 62.1445C47.6626 62.9258 47.3501 63.5605 46.9399 64.0488C46.5298 64.5371 46.0382 64.8952 45.4653 65.123C44.8989 65.3509 44.2641 65.4648 43.561 65.4648C43.0011 65.4648 42.4803 65.3932 41.9985 65.25C41.5233 65.1068 41.0936 64.8822 40.7095 64.5762C40.3253 64.2702 39.9966 63.8763 39.7231 63.3945C39.4562 62.9062 39.2479 62.3236 39.0981 61.6465C38.9549 60.9694 38.8833 60.1849 38.8833 59.293V56.9688C38.8833 55.849 38.994 54.9049 39.2153 54.1367C39.4367 53.362 39.7524 52.7337 40.1626 52.252C40.5727 51.7637 41.061 51.4089 41.6274 51.1875C42.2003 50.9661 42.8384 50.8555 43.5415 50.8555C44.1079 50.8555 44.6287 50.9271 45.104 51.0703C45.5858 51.207 46.0154 51.4251 46.393 51.7246C46.7772 52.0241 47.1027 52.4147 47.3696 52.8965C47.643 53.3717 47.8514 53.9479 47.9946 54.625C48.1378 55.2956 48.2095 56.0768 48.2095 56.9688ZM45.8559 59.625V56.6172C45.8559 56.0508 45.8234 55.5527 45.7583 55.123C45.6932 54.6868 45.5955 54.319 45.4653 54.0195C45.3416 53.7135 45.1854 53.4661 44.9966 53.2773C44.8078 53.082 44.5929 52.9421 44.352 52.8574C44.1111 52.7663 43.841 52.7207 43.5415 52.7207C43.1769 52.7207 42.8514 52.7923 42.5649 52.9355C42.2785 53.0723 42.0376 53.2936 41.8423 53.5996C41.647 53.9056 41.4972 54.3092 41.393 54.8105C41.2954 55.3053 41.2466 55.9076 41.2466 56.6172V59.625C41.2466 60.1979 41.2791 60.7025 41.3442 61.1387C41.4093 61.5749 41.507 61.9492 41.6372 62.2617C41.7674 62.5677 41.9236 62.8216 42.1059 63.0234C42.2947 63.2188 42.5096 63.362 42.7505 63.4531C42.9979 63.5443 43.268 63.5898 43.561 63.5898C43.9321 63.5898 44.2609 63.5182 44.5473 63.375C44.8338 63.2318 45.0747 63.0039 45.27 62.6914C45.4653 62.3724 45.6118 61.959 45.7095 61.4512C45.8071 60.9434 45.8559 60.3346 45.8559 59.625ZM60.0366 56.9688V59.293C60.0366 60.4062 59.926 61.3568 59.7046 62.1445C59.4898 62.9258 59.1773 63.5605 58.7671 64.0488C58.357 64.5371 57.8654 64.8952 57.2925 65.123C56.7261 65.3509 56.0913 65.4648 55.3882 65.4648C54.8283 65.4648 54.3075 65.3932 53.8257 65.25C53.3504 65.1068 52.9208 64.8822 52.5366 64.5762C52.1525 64.2702 51.8238 63.8763 51.5503 63.3945C51.2834 62.9062 51.0751 62.3236 50.9253 61.6465C50.7821 60.9694 50.7105 60.1849 50.7105 59.293V56.9688C50.7105 55.849 50.8211 54.9049 51.0425 54.1367C51.2639 53.362 51.5796 52.7337 51.9898 52.252C52.3999 51.7637 52.8882 51.4089 53.4546 51.1875C54.0275 50.9661 54.6655 50.8555 55.3687 50.8555C55.9351 50.8555 56.4559 50.9271 56.9312 51.0703C57.4129 51.207 57.8426 51.4251 58.2202 51.7246C58.6044 52.0241 58.9299 52.4147 59.1968 52.8965C59.4702 53.3717 59.6786 53.9479 59.8218 54.625C59.965 55.2956 60.0366 56.0768 60.0366 56.9688ZM57.6831 59.625V56.6172C57.6831 56.0508 57.6506 55.5527 57.5855 55.123C57.5204 54.6868 57.4227 54.319 57.2925 54.0195C57.1688 53.7135 57.0126 53.4661 56.8238 53.2773C56.6349 53.082 56.4201 52.9421 56.1792 52.8574C55.9383 52.7663 55.6682 52.7207 55.3687 52.7207C55.0041 52.7207 54.6786 52.7923 54.3921 52.9355C54.1057 53.0723 53.8648 53.2936 53.6695 53.5996C53.4741 53.9056 53.3244 54.3092 53.2202 54.8105C53.1226 55.3053 53.0738 55.9076 53.0738 56.6172V59.625C53.0738 60.1979 53.1063 60.7025 53.1714 61.1387C53.2365 61.5749 53.3342 61.9492 53.4644 62.2617C53.5946 62.5677 53.7508 62.8216 53.9331 63.0234C54.1219 63.2188 54.3368 63.362 54.5777 63.4531C54.8251 63.5443 55.0952 63.5898 55.3882 63.5898C55.7593 63.5898 56.0881 63.5182 56.3745 63.375C56.661 63.2318 56.9019 63.0039 57.0972 62.6914C57.2925 62.3724 57.439 61.959 57.5366 61.4512C57.6343 60.9434 57.6831 60.3346 57.6831 59.625ZM64.498 62.9655H72.418V66.6615H74.53V61.3015H64.498V62.9655ZM66.274 58.1815C65.218 58.1815 64.418 57.4935 64.418 56.3255C64.418 55.1575 65.218 54.4855 66.274 54.4855C67.346 54.4855 68.162 55.1575 68.162 56.3255C68.162 57.4935 67.346 58.1815 66.274 58.1815ZM72.418 51.9095V55.4775H70.082C69.682 53.8295 68.162 52.6775 66.274 52.6775C64.098 52.6775 62.402 54.2135 62.402 56.3255C62.402 58.4535 64.098 59.9895 66.274 59.9895C68.162 59.9895 69.682 58.8535 70.082 57.1735H72.418V60.6455H74.53V51.9095H72.418ZM84.4488 60.4695V61.9095H87.2168V63.0775H89.3288V51.9095H87.2168V60.4695H84.4488ZM81.6168 53.9415C82.5928 53.9415 83.2808 54.3255 83.2808 55.0455C83.2808 55.7655 82.5928 56.1335 81.6168 56.1335C80.6248 56.1335 79.9368 55.7655 79.9368 55.0455C79.9368 54.3255 80.6248 53.9415 81.6168 53.9415ZM81.6168 57.6695C83.7608 57.6695 85.2808 56.6135 85.2808 55.0455C85.2808 53.4775 83.7608 52.4055 81.6168 52.4055C79.4568 52.4055 77.9528 53.4775 77.9528 55.0455C77.9528 56.6135 79.4568 57.6695 81.6168 57.6695ZM80.8328 64.7095V62.6935H82.8648V59.9095C84.0488 59.8135 85.2328 59.6855 86.3848 59.4935L86.2408 57.9895C83.1368 58.3895 79.5528 58.4215 76.8648 58.4375L77.1368 60.1175C78.2408 60.1175 79.4728 60.1015 80.7688 60.0375V62.0055H78.7208V66.3895H89.6488V64.7095H80.8328Z" fill="#191919"/>
</svg>
