<svg width="273" height="184" viewBox="0 0 273 184" fill="none" xmlns="http://www.w3.org/2000/svg">
<circle cx="8.5" cy="9" r="7" stroke="#1C49A6" stroke-width="3"/>
<path d="M15 9H105V49" stroke="#1C49A6" stroke-width="3" stroke-linejoin="round" stroke-dasharray="4 10"/>
<circle cx="264.5" cy="175" r="7" transform="rotate(-180 264.5 175)" stroke="#1C49A6" stroke-width="3"/>
<path d="M258 175L168 175L168 135" stroke="#1C49A6" stroke-width="3" stroke-linejoin="round" stroke-dasharray="4 10"/>
<g filter="url(#filter0_d_990_341190)">
<path d="M86.5226 53.7056L128.977 29.0291C133.632 26.3236 139.368 26.3236 144.022 29.0291L186.477 53.7056C191.132 56.411 193.999 61.4121 193.999 66.8231V116.177C193.999 121.589 191.131 126.589 186.477 129.294L144.022 153.971C139.367 156.676 133.631 156.676 128.977 153.971L86.5226 129.294C81.8681 126.588 79 121.588 79 116.177V66.8231C79 61.4112 81.8681 56.411 86.5226 53.7056V53.7056Z" fill="white"/>
</g>
<path d="M136.522 51.3086L101.959 71.4324V111.552L136.522 131.695L171.041 111.552V71.4324L136.522 51.3086Z" fill="url(#paint0_linear_990_341190)"/>
<path d="M136.517 58.7109L108.322 75.1276V107.858L136.517 124.29L164.678 107.858V75.1276L136.517 58.7109Z" fill="url(#paint1_linear_990_341190)"/>
<path d="M136.522 106.243L149.174 98.8604V84.1392L149.164 84.1328L136.329 91.4975L136.522 106.243Z" fill="url(#paint2_linear_990_341190)"/>
<path d="M136.522 106.242L136.508 106.25L123.826 98.859V84.1562L136.42 91.3123L136.508 106.25" fill="url(#paint3_linear_990_341190)"/>
<path d="M136.508 76.7539L123.826 84.1379V84.1563L136.447 91.5476L149.164 84.1315L136.508 76.7539Z" fill="url(#paint4_linear_990_341190)"/>
<path d="M102.101 71.4336L136.447 91.5482L170.942 71.4336" stroke="white" stroke-width="12" stroke-miterlimit="10"/>
<path d="M136.521 131.557V91.5469" stroke="white" stroke-width="12" stroke-miterlimit="10"/>
<defs>
<filter id="filter0_d_990_341190" x="61" y="13" width="150.999" height="165" filterUnits="userSpaceOnUse" color-interpolation-filters="sRGB">
<feFlood flood-opacity="0" result="BackgroundImageFix"/>
<feColorMatrix in="SourceAlpha" type="matrix" values="0 0 0 0 0 0 0 0 0 0 0 0 0 0 0 0 0 0 127 0" result="hardAlpha"/>
<feOffset dy="4"/>
<feGaussianBlur stdDeviation="9"/>
<feComposite in2="hardAlpha" operator="out"/>
<feColorMatrix type="matrix" values="0 0 0 0 0.321569 0 0 0 0 0.4 0 0 0 0 0.647059 0 0 0 0.17 0"/>
<feBlend mode="normal" in2="BackgroundImageFix" result="effect1_dropShadow_990_341190"/>
<feBlend mode="normal" in="SourceGraphic" in2="effect1_dropShadow_990_341190" result="shape"/>
</filter>
<linearGradient id="paint0_linear_990_341190" x1="146.151" y1="60.4488" x2="130.996" y2="108.545" gradientUnits="userSpaceOnUse">
<stop stop-color="#01C2D6"/>
<stop offset="0.18" stop-color="#0B9FDC"/>
<stop offset="0.44" stop-color="#1874E4"/>
<stop offset="0.67" stop-color="#2254EA"/>
<stop offset="0.87" stop-color="#2740EE"/>
<stop offset="1" stop-color="#2A3AF0"/>
</linearGradient>
<linearGradient id="paint1_linear_990_341190" x1="125.801" y1="126.584" x2="142.989" y2="70.9615" gradientUnits="userSpaceOnUse">
<stop offset="0.13" stop-color="#569AFF"/>
<stop offset="0.2" stop-color="#4C85FB"/>
<stop offset="0.32" stop-color="#406AF7"/>
<stop offset="0.45" stop-color="#3654F4"/>
<stop offset="0.59" stop-color="#2F45F1"/>
<stop offset="0.76" stop-color="#2B3CF0"/>
<stop offset="1" stop-color="#2A3AF0"/>
</linearGradient>
<linearGradient id="paint2_linear_990_341190" x1="147.749" y1="85.6749" x2="136.957" y2="105.924" gradientUnits="userSpaceOnUse">
<stop stop-color="#73A9FF"/>
<stop offset="0.3" stop-color="#71A6FE"/>
<stop offset="0.51" stop-color="#6B9DFD"/>
<stop offset="0.69" stop-color="#618DFC"/>
<stop offset="0.85" stop-color="#5278FA"/>
<stop offset="1" stop-color="#415DF8"/>
</linearGradient>
<linearGradient id="paint3_linear_990_341190" x1="126.339" y1="100.362" x2="134.257" y2="89.8443" gradientUnits="userSpaceOnUse">
<stop offset="0.26" stop-color="#569AFF"/>
<stop offset="0.57" stop-color="#406BF7"/>
<stop offset="0.85" stop-color="#3047F2"/>
<stop offset="1" stop-color="#2A3AF0"/>
</linearGradient>
<linearGradient id="paint4_linear_990_341190" x1="140.023" y1="79.0412" x2="133.023" y2="89.014" gradientUnits="userSpaceOnUse">
<stop stop-color="#59FCFD"/>
<stop offset="0.43" stop-color="#35E4ED"/>
<stop offset="1" stop-color="#01C2D6"/>
</linearGradient>
</defs>
</svg>
