<?xml version="1.0" encoding="utf-8"?>
<!-- Generator: Adobe Illustrator 26.5.2, SVG Export Plug-In . SVG Version: 6.00 Build 0)  -->
<svg version="1.1" id="레이어_1" xmlns="http://www.w3.org/2000/svg" xmlns:xlink="http://www.w3.org/1999/xlink" x="0px"
	 y="0px" viewBox="0 0 16 16" style="enable-background:new 0 0 16 16;" xml:space="preserve">
<style type="text/css">
	.st0{fill:#263A68;}
	.st1{fill:#E61C2F;}
</style>
<g>
	<path class="st0" d="M9.8,7.3c-0.3-0.6-0.9-1-1.6-1H7.6H7.4H6.8H6.6v0c-0.4,0-0.7,0.2-1,0.4C5.4,7,5.2,7.3,5.2,7.7l0,1.3
		c0,0.2-0.1,0.3-0.3,0.3H2.7v1.4h0.9h1.1h0.4c0.4,0,0.8-0.1,1.1-0.4c0.3-0.3,0.5-0.6,0.5-1h0V8.1c0-0.3,0.2-0.5,0.5-0.5h0.7
		c0.2,0,0.4,0.1,0.5,0.3l0.8,1.6c0.3,0.8,0.7,1.2,1.1,1.2h0.4c0.4,0,0.8-0.4,1.1-1.2l0.9-2h0.9v1.7h0c0,0.4,0.2,0.8,0.5,1
		c0.3,0.3,0.7,0.4,1.1,0.4H16V9.4h-0.7c-0.1,0-0.1,0-0.1-0.1V7.6h0.3v0H16V6.2h-0.6h-0.3v-1h-1.5v1h-0.2h-1h-0.3
		c-0.2,0-0.5,0.1-0.6,0.4l-1,2.2L9.8,7.3z"/>
	<path class="st1" d="M3.3,9.3c0,0.4-0.2,0.8-0.5,1c-0.3,0.3-0.7,0.4-1.1,0.4H1.3H0.2H0V9.4h1.5c0.2,0,0.3-0.1,0.3-0.3l0-1.3
		c0-0.4,0.2-0.8,0.5-1c0.3-0.3,0.6-0.4,1-0.4v0h0.2h1.5h0.3v1.4H3.7c-0.2,0-0.4,0.2-0.4,0.4V9.3z"/>
</g>
</svg>
